<?xml version="1.0" encoding="UTF-8"?>
<svg xmlns="http://www.w3.org/2000/svg" xmlns:xlink="http://www.w3.org/1999/xlink" width="32px" height="32px" viewBox="0 0 32 32" version="1.1">
<g id="surface1">
<path style=" stroke:none;fill-rule:nonzero;fill:rgb(50.196078%,54.509804%,59.215686%);fill-opacity:1;" d="M 23 2 L 9 2 C 7.34375 2 6 3.34375 6 5 L 6 27 C 6 28.65625 7.34375 30 9 30 L 23 30 C 24.65625 30 26 28.65625 26 27 L 26 5 C 26 3.34375 24.65625 2 23 2 Z M 24 27 C 24 27.550781 23.550781 28 23 28 L 9 28 C 8.449219 28 8 27.550781 8 27 L 8 5 C 8 4.449219 8.449219 4 9 4 L 23 4 C 23.550781 4 24 4.449219 24 5 Z M 24 27 "/>
<path style=" stroke:none;fill-rule:nonzero;fill:rgb(50.196078%,54.509804%,59.215686%);fill-opacity:1;" d="M 21 8 L 11 8 C 10.449219 8 10 8.449219 10 9 C 10 9.550781 10.449219 10 11 10 L 21 10 C 21.550781 10 22 9.550781 22 9 C 22 8.449219 21.550781 8 21 8 Z M 21 12 L 11 12 C 10.449219 12 10 12.449219 10 13 C 10 13.550781 10.449219 14 11 14 L 21 14 C 21.550781 14 22 13.550781 22 13 C 22 12.449219 21.550781 12 21 12 Z M 21 16 L 11 16 C 10.449219 16 10 16.449219 10 17 C 10 17.550781 10.449219 18 11 18 L 21 18 C 21.550781 18 22 17.550781 22 17 C 22 16.449219 21.550781 16 21 16 Z M 20.464844 22.714844 C 20.085938 22.375 19.511719 22.375 19.128906 22.714844 L 18.601562 23.199219 L 18.070312 22.722656 C 17.691406 22.378906 17.113281 22.378906 16.730469 22.722656 L 16.203125 23.199219 L 15.671875 22.722656 C 15.261719 22.390625 14.660156 22.4375 14.304688 22.828125 C 13.949219 23.222656 13.960938 23.820312 14.332031 24.199219 L 15.53125 25.28125 C 15.910156 25.621094 16.488281 25.621094 16.871094 25.28125 L 17.398438 24.804688 L 17.925781 25.28125 C 18.304688 25.621094 18.882812 25.621094 19.265625 25.28125 L 19.800781 24.800781 L 20.332031 25.28125 C 20.589844 25.554688 20.980469 25.660156 21.34375 25.554688 C 21.707031 25.449219 21.976562 25.148438 22.046875 24.777344 C 22.113281 24.40625 21.96875 24.027344 21.667969 23.800781 Z M 20.464844 22.714844 "/>
</g>
</svg>
