<?xml version="1.0" encoding="UTF-8"?>
<svg xmlns="http://www.w3.org/2000/svg" xmlns:xlink="http://www.w3.org/1999/xlink" width="32px" height="32px" viewBox="0 0 32 32" version="1.1">
<g id="surface1">
<path style=" stroke:none;fill-rule:nonzero;fill:rgb(50.196078%,54.509804%,59.215686%);fill-opacity:1;" d="M 16 4 C 14.527344 4 13.332031 5.195312 13.332031 6.667969 L 13.332031 7.121094 C 10.226562 8.21875 8 11.183594 8 14.667969 L 8 21.332031 L 6.667969 21.332031 C 5.929688 21.332031 5.332031 21.929688 5.332031 22.667969 C 5.332031 23.402344 5.929688 24 6.667969 24 L 25.332031 24 C 26.070312 24 26.667969 23.402344 26.667969 22.667969 C 26.667969 21.929688 26.070312 21.332031 25.332031 21.332031 L 24 21.332031 L 24 14.667969 C 24 11.277344 21.863281 8.253906 18.667969 7.121094 L 18.667969 6.667969 C 18.667969 5.195312 17.472656 4 16 4 Z M 16 28 C 14.527344 28 13.332031 26.804688 13.332031 25.332031 L 18.667969 25.332031 C 18.667969 26.804688 17.472656 28 16 28 Z M 16 28 "/>
</g>
</svg>
