<?xml version="1.0" standalone="no"?>
<!DOCTYPE svg PUBLIC "-//W3C//DTD SVG 20010904//EN"
 "http://www.w3.org/TR/2001/REC-SVG-20010904/DTD/svg10.dtd">
<svg version="1.0" xmlns="http://www.w3.org/2000/svg"
 width="150.000000pt" height="150.000000pt" viewBox="0 0 512.000000 512.000000"
 preserveAspectRatio="xMidYMid meet">

<g transform="translate(0.000000,512.000000) scale(0.100000,-0.100000)"
fill="#78B7BB" stroke="none">
<path d="M1829 5107 c-103 -29 -112 -39 -851 -862 -416 -464 -723 -814 -738
-842 -19 -37 -25 -62 -25 -114 0 -59 4 -73 30 -110 44 -63 108 -92 214 -99
l86 -5 5 -910 5 -910 29 -58 c35 -68 101 -133 171 -167 l50 -25 1200 -6 c1268
-6 1255 -6 1540 -54 194 -34 415 -100 560 -169 284 -135 456 -320 514 -556 22
-91 33 -113 68 -138 92 -64 223 0 223 109 0 100 -76 306 -159 427 -190 280
-564 486 -1076 593 -267 55 -346 61 -905 66 -491 4 -516 5 -540 24 -35 27
-109 65 -144 73 l-29 7 7 129 c11 206 60 356 134 406 17 12 52 24 78 28 40 5
51 3 70 -15 27 -26 58 -21 62 9 2 12 -8 47 -22 77 -19 41 -31 56 -52 61 -22 6
-31 2 -49 -19 -11 -15 -30 -27 -41 -27 -37 0 -123 -51 -155 -91 -71 -90 -119
-284 -119 -481 l0 -98 -29 0 -28 0 -6 103 c-3 56 -14 129 -25 162 -23 76 -15
215 16 287 31 70 97 137 169 169 34 16 65 33 68 39 12 19 -4 58 -25 65 -31 10
-141 -46 -200 -101 -49 -45 -120 -166 -120 -204 0 -33 -14 -29 -43 13 -17 23
-48 61 -70 83 l-39 41 36 7 c44 8 119 76 114 103 -4 25 -42 28 -93 9 -55 -21
-79 -48 -73 -81 5 -22 2 -25 -24 -25 -42 0 -65 -15 -87 -58 -28 -56 -35 -97
-17 -111 19 -16 44 -3 79 38 l25 30 49 -60 c102 -124 173 -300 173 -430 0 -58
-1 -59 -37 -78 -21 -10 -55 -33 -77 -50 l-39 -31 -394 0 -394 0 -24 25 -25 24
0 963 c0 937 -1 964 -20 995 -31 52 -65 67 -156 73 l-82 5 611 682 c337 374
633 704 658 732 33 36 54 51 72 51 21 0 72 -50 268 -261 133 -143 252 -265
266 -270 51 -19 106 -11 145 21 50 42 58 76 58 263 0 154 1 158 25 182 34 35
93 34 126 -1 l24 -26 5 -432 c4 -376 7 -435 21 -456 9 -14 112 -128 229 -255
l212 -230 -79 -5 c-88 -6 -122 -22 -153 -73 -35 -57 -22 -124 35 -177 26 -25
28 -25 218 -25 l192 0 48 28 c98 58 132 165 85 269 -27 57 -33 64 -330 386
l-197 213 -3 407 -3 407 -31 65 c-94 199 -325 275 -518 172 -61 -33 -141 -122
-163 -181 -9 -25 -19 -49 -23 -54 -3 -4 -50 41 -104 100 -113 124 -164 168
-223 195 -55 24 -155 32 -214 15z"/>
<path d="M1938 3723 c-18 -47 -21 -126 -5 -147 22 -30 64 -14 75 28 9 32 1
114 -13 137 -13 19 -46 9 -57 -18z"/>
<path d="M2065 3574 c-20 -49 -23 -117 -6 -138 18 -22 58 -20 71 3 14 27 12
111 -3 141 -20 39 -44 37 -62 -6z"/>
<path d="M1703 3547 c-72 -27 -69 -60 7 -76 79 -17 130 1 130 45 0 42 -66 57
-137 31z"/>
<path d="M2224 3423 c-20 -47 -23 -116 -5 -137 34 -41 81 0 81 70 0 99 -46
140 -76 67z"/>
<path d="M1593 3414 c-9 -15 -19 -52 -21 -83 -3 -47 -1 -59 16 -74 24 -22 56
-10 68 25 18 56 -6 158 -36 158 -5 0 -17 -12 -27 -26z"/>
<path d="M1860 3378 c-70 -20 -80 -51 -23 -75 40 -16 115 -12 139 8 21 17 17
46 -8 63 -25 18 -56 19 -108 4z"/>
<path d="M2375 3258 c-19 -65 -19 -88 1 -116 49 -70 107 39 73 137 -8 23 -17
31 -35 31 -19 0 -26 -8 -39 -52z"/>
<path d="M1733 3278 c-29 -38 -42 -123 -23 -159 12 -21 52 -26 68 -6 18 23 22
72 10 122 -13 51 -35 68 -55 43z"/>
<path d="M2045 3281 c-110 -27 -93 -91 24 -91 76 0 117 51 69 84 -24 17 -44
18 -93 7z"/>
<path d="M1461 3226 c-6 -8 -17 -39 -23 -69 -10 -48 -9 -58 6 -82 21 -33 55
-30 74 5 15 29 10 124 -9 146 -15 18 -33 18 -48 0z"/>
<path d="M2525 3139 c-9 -16 -19 -52 -22 -78 -5 -41 -2 -52 16 -70 43 -43 88
16 76 99 -13 84 -42 105 -70 49z"/>
<path d="M1856 3100 c-33 -83 -9 -162 43 -145 53 16 45 185 -8 185 -13 0 -24
-13 -35 -40z"/>
<path d="M2185 3091 c-110 -27 -93 -91 24 -91 76 0 117 51 69 84 -24 17 -44
18 -93 7z"/>
<path d="M1539 3063 c-27 -69 -23 -145 7 -157 49 -19 78 37 63 119 -11 58 -15
65 -40 65 -12 0 -24 -10 -30 -27z"/>
<path d="M2046 2977 c-40 -61 -36 -159 7 -173 32 -10 57 28 57 86 0 87 -34
133 -64 87z"/>
<path d="M1250 2952 c-45 -22 -51 -48 -13 -63 38 -14 114 -15 141 0 28 15 29
56 3 71 -29 15 -91 11 -131 -8z"/>
<path d="M1666 2920 c-31 -78 -13 -150 38 -150 40 0 56 113 24 173 -16 31 -45
20 -62 -23z"/>
<path d="M2368 2933 c-18 -47 -21 -126 -5 -147 22 -30 64 -14 75 28 9 32 1
114 -13 137 -13 19 -46 9 -57 -18z"/>
<path d="M2181 2881 c-6 -11 -16 -42 -22 -71 -9 -43 -8 -55 5 -75 22 -34 63
-34 76 1 14 35 12 104 -3 134 -16 32 -43 37 -56 11z"/>
<path d="M2531 2887 c-17 -21 -35 -111 -27 -140 9 -39 39 -51 67 -28 20 16 24
28 23 78 -1 85 -31 128 -63 90z"/>
<path d="M1785 2808 c-20 -67 -19 -91 3 -118 24 -30 57 -20 71 22 14 39 14 63
0 111 -8 30 -15 37 -34 37 -21 0 -27 -8 -40 -52z"/>
<path d="M1405 2831 c-34 -15 -97 -87 -93 -107 5 -28 46 -28 98 -2 53 27 81
69 64 95 -13 21 -40 26 -69 14z"/>
<path d="M2664 2735 c-28 -20 -27 -150 0 -171 24 -17 28 -17 52 0 22 17 25 78
5 138 -14 42 -31 52 -57 33z"/>
<path d="M1906 2700 c-31 -79 -15 -150 35 -150 42 0 59 110 27 173 -16 31 -45
20 -62 -23z"/>
<path d="M1504 2688 c-44 -34 -63 -61 -64 -85 0 -19 6 -23 28 -23 40 0 114 40
131 72 13 22 13 29 2 42 -19 23 -63 20 -97 -6z"/>
<path d="M2236 2658 c-26 -61 -30 -106 -12 -133 35 -53 86 -15 86 65 0 87 -48
131 -74 68z"/>
<path d="M1203 2648 c-16 -20 -33 -78 -33 -110 0 -42 17 -68 44 -68 31 0 44
17 51 65 12 74 -31 152 -62 113z"/>
<path d="M978 2639 c-13 -35 72 -129 116 -129 32 0 50 24 42 55 -12 48 -146
110 -158 74z"/>
<path d="M2471 2637 c-23 -28 33 -142 75 -153 80 -20 68 78 -19 146 -30 23
-41 25 -56 7z"/>
<path d="M1620 2573 c-55 -49 -66 -71 -47 -90 14 -14 20 -14 63 1 60 20 94 51
94 87 0 51 -55 53 -110 2z"/>
<path d="M2034 2563 c-31 -73 -17 -153 27 -153 41 0 65 97 39 164 -15 40 -48
34 -66 -11z"/>
<path d="M1358 2523 c-57 -59 -69 -115 -27 -128 30 -10 68 21 91 71 39 90 1
124 -64 57z"/>
<path d="M2753 2518 c-26 -13 -30 -49 -8 -68 40 -33 175 -14 175 24 0 35 -122
67 -167 44z"/>
<path d="M1766 2501 c-38 -42 -58 -137 -31 -147 38 -15 119 81 113 133 -2 23
-8 29 -34 31 -20 2 -36 -4 -48 -17z"/>
<path d="M2343 2505 c-15 -42 64 -161 102 -153 51 9 43 71 -16 128 -43 42 -75
51 -86 25z"/>
<path d="M1063 2469 c-57 -11 -83 -26 -83 -50 0 -40 127 -56 170 -21 49 40 -7
85 -87 71z"/>
<path d="M1504 2418 c-65 -46 -96 -126 -56 -146 38 -20 81 18 107 96 9 24 10
43 4 54 -12 23 -18 23 -55 -4z"/>
<path d="M1893 2390 c-24 -10 -56 -66 -67 -116 -10 -46 15 -64 52 -37 59 44
90 121 60 151 -14 14 -15 14 -45 2z"/>
<path d="M2253 2393 c-36 -13 9 -133 59 -159 37 -19 58 -5 58 41 0 46 -83 130
-117 118z"/>
<path d="M2654 2365 c-4 -18 -1 -32 12 -46 28 -31 92 -61 122 -57 43 5 39 34
-11 83 -36 37 -51 45 -80 45 -31 0 -38 -4 -43 -25z"/>
<path d="M2036 2320 c-14 -17 -31 -48 -37 -70 -23 -77 14 -93 74 -32 40 41 57
93 37 117 -19 23 -46 18 -74 -15z"/>
<path d="M1130 2303 c-55 -49 -66 -71 -47 -90 14 -14 20 -14 63 1 60 20 94 51
94 87 0 51 -55 53 -110 2z"/>
<path d="M1582 2267 c-32 -32 -44 -53 -45 -77 -4 -74 70 -61 111 20 48 95 6
131 -66 57z"/>
<path d="M2530 2249 c-9 -16 -8 -26 5 -46 19 -28 118 -78 140 -69 29 11 16 52
-30 95 -51 47 -97 55 -115 20z"/>
<path d="M2123 2224 c-16 -42 70 -118 129 -112 69 6 35 83 -49 112 -58 20 -72
20 -80 0z"/>
<path d="M1300 2213 c-8 -3 -34 -24 -57 -46 -67 -64 -52 -102 29 -77 77 22
124 95 79 120 -21 11 -28 11 -51 3z"/>
<path d="M2418 2159 c-42 -24 -9 -83 64 -114 78 -32 108 -9 63 50 -42 56 -95
83 -127 64z"/>
<path d="M1375 2069 c-83 -77 -46 -121 57 -68 50 26 73 61 58 88 -18 35 -64
27 -115 -20z"/>
<path d="M912 843 c-52 -3 -65 -8 -78 -28 -11 -17 -13 -29 -6 -42 10 -17 42
-18 564 -19 611 -1 880 -16 1218 -70 528 -83 841 -204 997 -386 54 -62 81
-121 96 -208 14 -83 30 -101 71 -82 23 10 26 18 26 60 0 97 -41 196 -120 291
-219 263 -775 425 -1655 481 -145 9 -962 11 -1113 3z"/>
</g>
</svg>
