<?xml version="1.0" encoding="UTF-8"?>
<svg xmlns="http://www.w3.org/2000/svg" xmlns:xlink="http://www.w3.org/1999/xlink" width="300px" height="300px" viewBox="0 0 300 300" version="1.1">
<defs>
<filter id="alpha" filterUnits="objectBoundingBox" x="0%" y="0%" width="100%" height="100%">
  <feColorMatrix type="matrix" in="SourceGraphic" values="0 0 0 0 1 0 0 0 0 1 0 0 0 0 1 0 0 0 1 0"/>
</filter>
<mask id="mask0">
  <g filter="url(#alpha)">
<rect x="0" y="0" width="300" height="300" style="fill:rgb(0%,0%,0%);fill-opacity:0.2;stroke:none;"/>
  </g>
</mask>
<clipPath id="clip1">
  <rect x="0" y="0" width="300" height="300"/>
</clipPath>
<g id="surface5" clip-path="url(#clip1)">
<path style=" stroke:none;fill-rule:nonzero;fill:rgb(0%,0%,0%);fill-opacity:1;" d="M 211.378906 94.800781 C 212.488281 98.898438 206.476562 107.140625 206.476562 107.140625 L 198.601562 102.726562 C 198.601562 102.726562 200.074219 99.335938 201.875 95.886719 C 204.761719 90.3125 210.113281 90.125 211.378906 94.800781 Z M 211.378906 94.800781 "/>
</g>
<mask id="mask1">
  <g filter="url(#alpha)">
<rect x="0" y="0" width="300" height="300" style="fill:rgb(0%,0%,0%);fill-opacity:0.2;stroke:none;"/>
  </g>
</mask>
<clipPath id="clip2">
  <rect x="0" y="0" width="300" height="300"/>
</clipPath>
<g id="surface8" clip-path="url(#clip2)">
<path style=" stroke:none;fill-rule:nonzero;fill:rgb(0%,0%,0%);fill-opacity:1;" d="M 201.726562 104.488281 L 204.828125 106.230469 L 205.375 96.707031 C 203.566406 98.09375 202.296875 102.269531 201.726562 104.488281 Z M 201.726562 104.488281 "/>
</g>
<mask id="mask2">
  <g filter="url(#alpha)">
<rect x="0" y="0" width="300" height="300" style="fill:rgb(0%,0%,0%);fill-opacity:0.2;stroke:none;"/>
  </g>
</mask>
<clipPath id="clip3">
  <rect x="0" y="0" width="300" height="300"/>
</clipPath>
<g id="surface11" clip-path="url(#clip3)">
<path style=" stroke:none;fill-rule:nonzero;fill:rgb(0%,0%,0%);fill-opacity:1;" d="M 206.195312 91.714844 C 206.195312 91.714844 200.0625 105.359375 203.640625 130.765625 L 227.800781 130.765625 C 228.1875 127.054688 226.914062 108.960938 231.515625 91.488281 C 228.867188 90.96875 226.183594 90.628906 223.488281 90.460938 C 220.070312 90.265625 216.640625 90.265625 213.222656 90.460938 C 210.851562 90.703125 208.503906 91.121094 206.195312 91.714844 Z M 206.195312 91.714844 "/>
</g>
<mask id="mask3">
  <g filter="url(#alpha)">
<rect x="0" y="0" width="300" height="300" style="fill:rgb(0%,0%,0%);fill-opacity:0.2;stroke:none;"/>
  </g>
</mask>
<clipPath id="clip4">
  <rect x="0" y="0" width="300" height="300"/>
</clipPath>
<g id="surface14" clip-path="url(#clip4)">
<path style=" stroke:none;fill-rule:nonzero;fill:rgb(0%,0%,0%);fill-opacity:1;" d="M 202.871094 123.894531 C 202.960938 124.980469 203.0625 126.089844 203.195312 127.230469 L 221.160156 121.398438 C 223.964844 120.566406 226.402344 118.804688 228.070312 116.398438 C 228.144531 114.796875 228.234375 113.113281 228.371094 111.355469 C 228.433594 110.503906 228.503906 109.625 228.582031 108.738281 C 228.660156 107.851562 228.769531 106.867188 228.882812 105.917969 Z M 202.871094 123.894531 "/>
</g>
<mask id="mask4">
  <g filter="url(#alpha)">
<rect x="0" y="0" width="300" height="300" style="fill:rgb(0%,0%,0%);fill-opacity:0.2;stroke:none;"/>
  </g>
</mask>
<clipPath id="clip5">
  <rect x="0" y="0" width="300" height="300"/>
</clipPath>
<g id="surface17" clip-path="url(#clip5)">
<path style=" stroke:none;fill-rule:nonzero;fill:rgb(0%,0%,0%);fill-opacity:1;" d="M 213.71875 140.730469 C 210.484375 147.4375 212.664062 160.703125 214.414062 168.5625 C 215.082031 163.015625 215.875 156.988281 216.625 151.414062 C 216.550781 142.847656 215.886719 136.230469 213.71875 140.730469 Z M 213.71875 140.730469 "/>
</g>
<mask id="mask5">
  <g filter="url(#alpha)">
<rect x="0" y="0" width="300" height="300" style="fill:rgb(0%,0%,0%);fill-opacity:0.2;stroke:none;"/>
  </g>
</mask>
<clipPath id="clip6">
  <rect x="0" y="0" width="300" height="300"/>
</clipPath>
<g id="surface20" clip-path="url(#clip6)">
<path style=" stroke:none;fill-rule:nonzero;fill:rgb(0%,0%,0%);fill-opacity:1;" d="M 233.699219 234.671875 C 233.660156 234.671875 233.628906 234.644531 233.621094 234.605469 C 233.574219 234.1875 229.105469 192.605469 228.265625 180.007812 C 227.351562 166.339844 225.515625 136.019531 225.496094 135.714844 C 225.496094 135.695312 225.503906 135.675781 225.515625 135.660156 C 225.53125 135.644531 225.550781 135.636719 225.570312 135.636719 C 225.609375 135.636719 225.644531 135.667969 225.648438 135.707031 C 225.648438 136.015625 227.503906 166.308594 228.414062 180 C 229.253906 192.601562 233.722656 234.148438 233.765625 234.601562 C 233.769531 234.621094 233.765625 234.640625 233.75 234.65625 C 233.738281 234.671875 233.71875 234.683594 233.699219 234.683594 Z M 233.699219 234.671875 "/>
</g>
<mask id="mask6">
  <g filter="url(#alpha)">
<rect x="0" y="0" width="300" height="300" style="fill:rgb(0%,0%,0%);fill-opacity:0.2;stroke:none;"/>
  </g>
</mask>
<clipPath id="clip7">
  <rect x="0" y="0" width="300" height="300"/>
</clipPath>
<g id="surface23" clip-path="url(#clip7)">
<path style=" stroke:none;fill-rule:nonzero;fill:rgb(0%,0%,0%);fill-opacity:1;" d="M 219.894531 234.496094 C 219.929688 234.496094 220.746094 236.789062 220.746094 236.789062 L 212.441406 240.28125 L 211.132812 237.847656 Z M 219.894531 234.496094 "/>
</g>
<mask id="mask7">
  <g filter="url(#alpha)">
<rect x="0" y="0" width="300" height="300" style="fill:rgb(0%,0%,0%);fill-opacity:0.2;stroke:none;"/>
  </g>
</mask>
<clipPath id="clip8">
  <rect x="0" y="0" width="300" height="300"/>
</clipPath>
<g id="surface26" clip-path="url(#clip8)">
<path style=" stroke:none;fill-rule:nonzero;fill:rgb(0%,0%,0%);fill-opacity:1;" d="M 236.867188 237.40625 C 236.902344 237.40625 237.144531 239.71875 237.144531 239.71875 L 228.046875 239.71875 L 227.398438 237.066406 Z M 236.867188 237.40625 "/>
</g>
<mask id="mask8">
  <g filter="url(#alpha)">
<rect x="0" y="0" width="300" height="300" style="fill:rgb(0%,0%,0%);fill-opacity:0.2;stroke:none;"/>
  </g>
</mask>
<clipPath id="clip9">
  <rect x="0" y="0" width="300" height="300"/>
</clipPath>
<g id="surface29" clip-path="url(#clip9)">
<path style=" stroke:none;fill-rule:nonzero;fill:rgb(0%,0%,0%);fill-opacity:1;" d="M 235.464844 95.664062 C 237.113281 100.984375 230.664062 108.265625 230.664062 108.265625 L 221.753906 104.628906 C 222.808594 101.550781 224.027344 98.535156 225.402344 95.585938 C 228.136719 89.6875 233.796875 90.292969 235.464844 95.664062 Z M 235.464844 95.664062 "/>
</g>
<mask id="mask9">
  <g filter="url(#alpha)">
<rect x="0" y="0" width="300" height="300" style="fill:rgb(0%,0%,0%);fill-opacity:0.560784;stroke:none;"/>
  </g>
</mask>
<clipPath id="clip10">
  <rect x="0" y="0" width="300" height="300"/>
</clipPath>
<g id="surface32" clip-path="url(#clip10)">
<path style=" stroke:none;fill-rule:nonzero;fill:rgb(98.039216%,98.039216%,98.039216%);fill-opacity:1;" d="M 193.253906 47.140625 L 122.453125 47.140625 L 115.867188 194.574219 L 186.664062 194.574219 Z M 193.253906 47.140625 "/>
</g>
<mask id="mask10">
  <g filter="url(#alpha)">
<rect x="0" y="0" width="300" height="300" style="fill:rgb(0%,0%,0%);fill-opacity:0.0705882;stroke:none;"/>
  </g>
</mask>
<clipPath id="clip11">
  <rect x="0" y="0" width="300" height="300"/>
</clipPath>
<g id="surface35" clip-path="url(#clip11)">
<path style=" stroke:none;fill-rule:nonzero;fill:rgb(47.058824%,71.764706%,73.333333%);fill-opacity:1;" d="M 191.140625 49.164062 L 120.34375 49.164062 L 113.746094 196.597656 L 184.546875 196.597656 Z M 191.140625 49.164062 "/>
</g>
<mask id="mask11">
  <g filter="url(#alpha)">
<rect x="0" y="0" width="300" height="300" style="fill:rgb(0%,0%,0%);fill-opacity:0.470588;stroke:none;"/>
  </g>
</mask>
<clipPath id="clip12">
  <rect x="0" y="0" width="300" height="300"/>
</clipPath>
<g id="surface38" clip-path="url(#clip12)">
<path style=" stroke:none;fill-rule:nonzero;fill:rgb(47.058824%,71.764706%,73.333333%);fill-opacity:1;" d="M 170.640625 170.425781 L 130.003906 170.425781 L 129.394531 183.941406 L 170.035156 183.941406 Z M 170.640625 170.425781 "/>
</g>
<mask id="mask12">
  <g filter="url(#alpha)">
<rect x="0" y="0" width="300" height="300" style="fill:rgb(0%,0%,0%);fill-opacity:0.101961;stroke:none;"/>
  </g>
</mask>
<clipPath id="clip13">
  <rect x="0" y="0" width="300" height="300"/>
</clipPath>
<g id="surface41" clip-path="url(#clip13)">
<path style=" stroke:none;fill-rule:nonzero;fill:rgb(100%,100%,100%);fill-opacity:1;" d="M 159.269531 67.433594 C 156.921875 65.035156 152.984375 65.082031 150.472656 67.535156 C 147.960938 69.992188 147.828125 73.929688 150.175781 76.328125 C 152.523438 78.730469 156.460938 78.683594 158.972656 76.226562 C 161.484375 73.773438 161.617188 69.835938 159.269531 67.433594 Z M 159.269531 67.433594 "/>
</g>
<mask id="mask13">
  <g filter="url(#alpha)">
<rect x="0" y="0" width="300" height="300" style="fill:rgb(0%,0%,0%);fill-opacity:0.101961;stroke:none;"/>
  </g>
</mask>
<clipPath id="clip14">
  <rect x="0" y="0" width="300" height="300"/>
</clipPath>
<g id="surface44" clip-path="url(#clip14)">
<path style=" stroke:none;fill-rule:nonzero;fill:rgb(100%,100%,100%);fill-opacity:1;" d="M 166.523438 86.058594 C 163.496094 90.027344 158.796875 92.367188 153.804688 92.398438 C 148.953125 92.441406 144.398438 90.0625 141.660156 86.058594 C 144.574219 83.152344 149.191406 81.257812 154.300781 81.257812 C 159.414062 81.257812 163.867188 83.152344 166.523438 86.058594 Z M 166.523438 86.058594 "/>
</g>
<mask id="mask14">
  <g filter="url(#alpha)">
<rect x="0" y="0" width="300" height="300" style="fill:rgb(0%,0%,0%);fill-opacity:0.6;stroke:none;"/>
  </g>
</mask>
<clipPath id="clip15">
  <rect x="0" y="0" width="300" height="300"/>
</clipPath>
<g id="surface47" clip-path="url(#clip15)">
<path style=" stroke:none;fill-rule:nonzero;fill:rgb(0%,0%,0%);fill-opacity:1;" d="M 82.027344 119.496094 C 81.941406 118.925781 82.328125 118.394531 82.894531 118.296875 C 85.007812 117.949219 89.808594 117.238281 92.21875 117.574219 C 94.019531 117.828125 94.488281 118.871094 94.566406 119.730469 C 94.589844 120.035156 94.484375 120.332031 94.269531 120.550781 C 94.058594 120.769531 93.761719 120.886719 93.457031 120.871094 L 83.027344 120.402344 C 82.519531 120.375 82.101562 119.996094 82.027344 119.496094 Z M 82.027344 119.496094 "/>
</g>
<mask id="mask15">
  <g filter="url(#alpha)">
<rect x="0" y="0" width="300" height="300" style="fill:rgb(0%,0%,0%);fill-opacity:0.6;stroke:none;"/>
  </g>
</mask>
<clipPath id="clip16">
  <rect x="0" y="0" width="300" height="300"/>
</clipPath>
<g id="surface50" clip-path="url(#clip16)">
<path style=" stroke:none;fill-rule:nonzero;fill:rgb(0%,0%,0%);fill-opacity:1;" d="M 91.320312 148.800781 C 91.320312 148.800781 106.429688 167.839844 103.589844 186.046875 C 101.304688 200.753906 88.042969 220.667969 88.042969 220.667969 L 81.808594 217.570312 C 86.203125 208.765625 89.953125 199.65625 93.03125 190.308594 C 94.953125 184.429688 94.066406 177.992188 90.628906 172.847656 C 82.972656 161.671875 70.710938 168.324219 78.960938 148.800781 Z M 91.320312 148.800781 "/>
</g>
<mask id="mask16">
  <g filter="url(#alpha)">
<rect x="0" y="0" width="300" height="300" style="fill:rgb(0%,0%,0%);fill-opacity:0.4;stroke:none;"/>
  </g>
</mask>
<clipPath id="clip17">
  <rect x="0" y="0" width="300" height="300"/>
</clipPath>
<g id="surface53" clip-path="url(#clip17)">
<path style=" stroke:none;fill-rule:nonzero;fill:rgb(0%,0%,0%);fill-opacity:1;" d="M 98.730469 161.027344 L 96.535156 158.84375 C 96.535156 159.019531 100.789062 185.28125 101.980469 192.660156 C 102.6875 190.503906 103.226562 188.296875 103.597656 186.058594 C 105 177.125 102.066406 168 98.730469 161.027344 Z M 98.730469 161.027344 "/>
</g>
<mask id="mask17">
  <g filter="url(#alpha)">
<rect x="0" y="0" width="300" height="300" style="fill:rgb(0%,0%,0%);fill-opacity:0.6;stroke:none;"/>
  </g>
</mask>
<clipPath id="clip18">
  <rect x="0" y="0" width="300" height="300"/>
</clipPath>
<g id="surface56" clip-path="url(#clip18)">
<path style=" stroke:none;fill-rule:nonzero;fill:rgb(0%,0%,0%);fill-opacity:1;" d="M 98.0625 148.800781 C 98.0625 148.800781 116.257812 172.726562 116.773438 187.074219 C 117.199219 199.074219 96.972656 222.324219 96.972656 222.324219 L 91.09375 218.519531 C 91.09375 218.519531 102.929688 202.007812 105.910156 188.519531 C 104.761719 175.152344 80.398438 148.800781 80.398438 148.800781 Z M 98.0625 148.800781 "/>
</g>
<mask id="mask18">
  <g filter="url(#alpha)">
<rect x="0" y="0" width="300" height="300" style="fill:rgb(0%,0%,0%);fill-opacity:0.2;stroke:none;"/>
  </g>
</mask>
<clipPath id="clip19">
  <rect x="0" y="0" width="300" height="300"/>
</clipPath>
<g id="surface59" clip-path="url(#clip19)">
<path style=" stroke:none;fill-rule:nonzero;fill:rgb(0%,0%,0%);fill-opacity:1;" d="M 77.046875 124.800781 L 76.519531 130.960938 L 79.34375 132.859375 C 80.125 131.101562 80.703125 129.261719 81.066406 127.375 Z M 77.046875 124.800781 "/>
</g>
<mask id="mask19">
  <g filter="url(#alpha)">
<rect x="0" y="0" width="300" height="300" style="fill:rgb(0%,0%,0%);fill-opacity:0.4;stroke:none;"/>
  </g>
</mask>
<clipPath id="clip20">
  <rect x="0" y="0" width="300" height="300"/>
</clipPath>
<g id="surface62" clip-path="url(#clip20)">
<path style=" stroke:none;fill-rule:nonzero;fill:rgb(100%,100%,100%);fill-opacity:1;" d="M 78.660156 147.671875 L 78 149.398438 C 77.933594 149.53125 78.089844 149.671875 78.3125 149.671875 L 98.160156 149.671875 C 98.335938 149.671875 98.476562 149.585938 98.488281 149.476562 L 98.65625 147.761719 C 98.65625 147.648438 98.519531 147.546875 98.335938 147.546875 L 78.972656 147.546875 C 78.855469 147.535156 78.738281 147.582031 78.660156 147.671875 Z M 78.660156 147.671875 "/>
</g>
<mask id="mask20">
  <g filter="url(#alpha)">
<rect x="0" y="0" width="300" height="300" style="fill:rgb(0%,0%,0%);fill-opacity:0.301961;stroke:none;"/>
  </g>
</mask>
<clipPath id="clip21">
  <rect x="0" y="0" width="300" height="300"/>
</clipPath>
<g id="surface65" clip-path="url(#clip21)">
<path style=" stroke:none;fill-rule:nonzero;fill:rgb(100%,100%,100%);fill-opacity:1;" d="M 70.46875 177.148438 L 70.46875 178.242188 C 70.46875 179.140625 71.449219 179.875 72.648438 179.875 L 90.046875 179.875 C 91.246094 179.875 92.226562 179.140625 92.226562 178.242188 L 92.226562 177.148438 Z M 70.46875 177.148438 "/>
</g>
</defs>
<g id="surface1">
<path style=" stroke:none;fill-rule:nonzero;fill:rgb(90.196078%,90.196078%,90.196078%);fill-opacity:1;" d="M 0 229.441406 L 300 229.441406 L 300 229.589844 L 0 229.589844 Z M 0 229.441406 "/>
<path style=" stroke:none;fill-rule:nonzero;fill:rgb(90.196078%,90.196078%,90.196078%);fill-opacity:1;" d="M 55.019531 238.519531 L 74.890625 238.519531 L 74.890625 238.667969 L 55.019531 238.667969 Z M 55.019531 238.519531 "/>
<path style=" stroke:none;fill-rule:nonzero;fill:rgb(90.196078%,90.196078%,90.196078%);fill-opacity:1;" d="M 37.21875 238.519531 L 48.730469 238.519531 L 48.730469 238.667969 L 37.21875 238.667969 Z M 37.21875 238.519531 "/>
<path style=" stroke:none;fill-rule:nonzero;fill:rgb(90.196078%,90.196078%,90.196078%);fill-opacity:1;" d="M 114.816406 240.726562 L 126.328125 240.726562 L 126.328125 240.875 L 114.816406 240.875 Z M 114.816406 240.726562 "/>
<path style=" stroke:none;fill-rule:nonzero;fill:rgb(90.196078%,90.196078%,90.196078%);fill-opacity:1;" d="M 160.453125 244.074219 L 186.367188 244.074219 L 186.367188 244.222656 L 160.453125 244.222656 Z M 160.453125 244.074219 "/>
<path style=" stroke:none;fill-rule:nonzero;fill:rgb(90.196078%,90.196078%,90.196078%);fill-opacity:1;" d="M 151.3125 244.074219 L 155.113281 244.074219 L 155.113281 244.222656 L 151.3125 244.222656 Z M 151.3125 244.074219 "/>
<path style=" stroke:none;fill-rule:nonzero;fill:rgb(90.196078%,90.196078%,90.196078%);fill-opacity:1;" d="M 215.800781 240.726562 L 272.011719 240.726562 L 272.011719 240.875 L 215.800781 240.875 Z M 215.800781 240.726562 "/>
<path style=" stroke:none;fill-rule:nonzero;fill:rgb(90.196078%,90.196078%,90.196078%);fill-opacity:1;" d="M 142.199219 202.679688 L 26.347656 202.679688 C 24.457031 202.675781 22.925781 201.144531 22.925781 199.253906 L 22.925781 36.394531 C 22.941406 34.519531 24.46875 33.003906 26.347656 33 L 142.199219 33 C 144.09375 33 145.625 34.535156 145.625 36.425781 L 145.625 199.253906 C 145.625 201.144531 144.09375 202.679688 142.199219 202.679688 Z M 26.347656 33.121094 C 24.539062 33.125 23.074219 34.589844 23.074219 36.394531 L 23.074219 199.253906 C 23.074219 201.0625 24.539062 202.527344 26.347656 202.53125 L 142.199219 202.53125 C 144.007812 202.527344 145.472656 201.0625 145.476562 199.253906 L 145.476562 36.394531 C 145.472656 34.589844 144.007812 33.125 142.199219 33.121094 Z M 26.347656 33.121094 "/>
<path style=" stroke:none;fill-rule:nonzero;fill:rgb(90.196078%,90.196078%,90.196078%);fill-opacity:1;" d="M 271.984375 202.679688 L 156.125 202.679688 C 154.234375 202.675781 152.703125 201.144531 152.699219 199.253906 L 152.699219 36.394531 C 152.71875 34.515625 154.246094 33.003906 156.125 33 L 271.984375 33 C 273.863281 33.007812 275.382812 34.519531 275.398438 36.394531 L 275.398438 199.253906 C 275.398438 201.140625 273.875 202.671875 271.984375 202.679688 Z M 156.125 33.121094 C 154.316406 33.125 152.851562 34.589844 152.851562 36.394531 L 152.851562 199.253906 C 152.851562 201.0625 154.316406 202.527344 156.125 202.53125 L 271.984375 202.53125 C 273.792969 202.527344 275.257812 201.0625 275.261719 199.253906 L 275.261719 36.394531 C 275.257812 34.589844 273.792969 33.125 271.984375 33.121094 Z M 156.125 33.121094 "/>
<path style=" stroke:none;fill-rule:nonzero;fill:rgb(87.843137%,87.843137%,87.843137%);fill-opacity:1;" d="M 147.246094 178.1875 L 160.441406 178.1875 L 160.441406 230.527344 L 147.246094 230.527344 Z M 147.246094 178.1875 "/>
<path style=" stroke:none;fill-rule:nonzero;fill:rgb(98.039216%,98.039216%,98.039216%);fill-opacity:1;" d="M 157.933594 230.527344 L 160.441406 230.527344 L 160.441406 223.398438 L 155.304688 223.398438 Z M 157.933594 230.527344 "/>
<path style=" stroke:none;fill-rule:nonzero;fill:rgb(87.843137%,87.843137%,87.843137%);fill-opacity:1;" d="M 89.429688 178.1875 L 102.625 178.1875 L 102.625 230.527344 L 89.429688 230.527344 Z M 89.429688 178.1875 "/>
<path style=" stroke:none;fill-rule:nonzero;fill:rgb(98.039216%,98.039216%,98.039216%);fill-opacity:1;" d="M 100.441406 178.1875 L 160.441406 178.1875 L 160.441406 226.152344 L 100.441406 226.152344 Z M 100.441406 178.1875 "/>
<path style=" stroke:none;fill-rule:nonzero;fill:rgb(87.843137%,87.843137%,87.843137%);fill-opacity:1;" d="M 158.261719 180.546875 L 158.261719 193.234375 L 102.601562 193.234375 L 102.601562 180.546875 L 158.242188 180.546875 M 158.476562 180.3125 L 102.382812 180.3125 L 102.382812 193.464844 L 158.496094 193.464844 L 158.496094 180.3125 Z M 158.476562 180.3125 "/>
<path style=" stroke:none;fill-rule:nonzero;fill:rgb(98.039216%,98.039216%,98.039216%);fill-opacity:1;" d="M 102.941406 230.527344 L 100.441406 230.527344 L 100.441406 223.398438 L 105.570312 223.398438 Z M 102.941406 230.527344 "/>
<path style=" stroke:none;fill-rule:nonzero;fill:rgb(90.196078%,90.196078%,90.196078%);fill-opacity:1;" d="M 129.113281 186.886719 C 129.113281 187.621094 129.707031 188.214844 130.441406 188.214844 C 131.171875 188.214844 131.765625 187.621094 131.765625 186.886719 C 131.765625 186.15625 131.171875 185.5625 130.441406 185.5625 C 129.707031 185.5625 129.113281 186.15625 129.113281 186.886719 Z M 129.113281 186.886719 "/>
<path style=" stroke:none;fill-rule:nonzero;fill:rgb(87.843137%,87.843137%,87.843137%);fill-opacity:1;" d="M 158.261719 195.820312 L 158.261719 208.511719 L 102.601562 208.511719 L 102.601562 195.820312 L 158.242188 195.820312 M 158.476562 195.59375 L 102.382812 195.59375 L 102.382812 208.746094 L 158.496094 208.746094 L 158.496094 195.601562 Z M 158.476562 195.59375 "/>
<path style=" stroke:none;fill-rule:nonzero;fill:rgb(90.196078%,90.196078%,90.196078%);fill-opacity:1;" d="M 129.113281 202.199219 C 129.113281 202.933594 129.707031 203.527344 130.441406 203.527344 C 131.171875 203.527344 131.765625 202.933594 131.765625 202.199219 C 131.765625 201.46875 131.171875 200.875 130.441406 200.875 C 129.707031 200.875 129.113281 201.46875 129.113281 202.199219 Z M 129.113281 202.199219 "/>
<path style=" stroke:none;fill-rule:nonzero;fill:rgb(87.843137%,87.843137%,87.843137%);fill-opacity:1;" d="M 158.261719 211.105469 L 158.261719 223.800781 L 102.601562 223.800781 L 102.601562 211.105469 L 158.242188 211.105469 M 158.476562 210.871094 L 102.382812 210.871094 L 102.382812 224.027344 L 158.496094 224.027344 L 158.496094 210.871094 Z M 158.476562 210.871094 "/>
<path style=" stroke:none;fill-rule:nonzero;fill:rgb(90.196078%,90.196078%,90.196078%);fill-opacity:1;" d="M 129.113281 217.453125 C 129.117188 218.183594 129.710938 218.773438 130.445312 218.773438 C 131.175781 218.769531 131.765625 218.175781 131.765625 217.445312 C 131.765625 216.710938 131.171875 216.121094 130.441406 216.121094 C 130.085938 216.121094 129.75 216.261719 129.5 216.511719 C 129.25 216.761719 129.113281 217.097656 129.113281 217.453125 Z M 129.113281 217.453125 "/>
<path style=" stroke:none;fill-rule:nonzero;fill:rgb(87.843137%,87.843137%,87.843137%);fill-opacity:1;" d="M 81.371094 147.792969 L 94.566406 147.792969 L 94.566406 230.53125 L 81.371094 230.53125 Z M 81.371094 147.792969 "/>
<path style=" stroke:none;fill-rule:nonzero;fill:rgb(98.039216%,98.039216%,98.039216%);fill-opacity:1;" d="M 92.058594 230.527344 L 94.566406 230.527344 L 94.566406 223.398438 L 89.4375 223.398438 Z M 92.058594 230.527344 "/>
<path style=" stroke:none;fill-rule:nonzero;fill:rgb(87.843137%,87.843137%,87.843137%);fill-opacity:1;" d="M 32.0625 147.792969 L 45.257812 147.792969 L 45.257812 230.53125 L 32.0625 230.53125 Z M 32.0625 147.792969 "/>
<path style=" stroke:none;fill-rule:nonzero;fill:rgb(98.039216%,98.039216%,98.039216%);fill-opacity:1;" d="M 43.066406 147.792969 L 94.566406 147.792969 L 94.566406 226.15625 L 43.066406 226.15625 Z M 43.066406 147.792969 "/>
<path style=" stroke:none;fill-rule:nonzero;fill:rgb(87.843137%,87.843137%,87.843137%);fill-opacity:1;" d="M 92.347656 150 L 92.347656 167.742188 L 45.289062 167.742188 L 45.289062 150 L 92.347656 150 M 92.621094 149.730469 L 45 149.730469 L 45 168 L 92.609375 168 L 92.609375 149.734375 Z M 92.621094 149.730469 "/>
<path style=" stroke:none;fill-rule:nonzero;fill:rgb(87.843137%,87.843137%,87.843137%);fill-opacity:1;" d="M 92.347656 169.90625 L 92.347656 216.964844 L 69.929688 216.964844 L 69.929688 169.90625 L 92.347656 169.90625 M 92.621094 169.632812 L 69.660156 169.632812 L 69.660156 217.242188 L 92.621094 217.242188 Z M 92.621094 169.632812 "/>
<path style=" stroke:none;fill-rule:nonzero;fill:rgb(87.843137%,87.843137%,87.843137%);fill-opacity:1;" d="M 67.703125 169.90625 L 67.703125 216.964844 L 45.289062 216.964844 L 45.289062 169.90625 L 67.703125 169.90625 M 67.972656 169.632812 L 45 169.632812 L 45 217.242188 L 67.960938 217.242188 L 67.960938 169.632812 Z M 67.972656 169.632812 "/>
<path style=" stroke:none;fill-rule:nonzero;fill:rgb(98.039216%,98.039216%,98.039216%);fill-opacity:1;" d="M 45.574219 230.527344 L 43.066406 230.527344 L 43.066406 223.398438 L 48.203125 223.398438 Z M 45.574219 230.527344 "/>
<path style=" stroke:none;fill-rule:nonzero;fill:rgb(90.196078%,90.196078%,90.196078%);fill-opacity:1;" d="M 67.488281 158.878906 C 67.484375 159.417969 67.808594 159.90625 68.304688 160.113281 C 68.804688 160.324219 69.378906 160.210938 69.757812 159.828125 C 70.140625 159.449219 70.257812 158.875 70.050781 158.378906 C 69.84375 157.878906 69.359375 157.554688 68.820312 157.554688 C 68.085938 157.554688 67.492188 158.148438 67.488281 158.878906 Z M 67.488281 158.878906 "/>
<path style=" stroke:none;fill-rule:nonzero;fill:rgb(90.196078%,90.196078%,90.196078%);fill-opacity:1;" d="M 72.238281 192.316406 C 72.238281 192.855469 72.566406 193.34375 73.0625 193.550781 C 73.5625 193.753906 74.136719 193.640625 74.515625 193.257812 C 74.894531 192.875 75.007812 192.300781 74.800781 191.804688 C 74.59375 191.304688 74.105469 190.984375 73.566406 190.984375 C 73.214844 190.984375 72.875 191.125 72.625 191.375 C 72.378906 191.625 72.238281 191.964844 72.238281 192.316406 Z M 72.238281 192.316406 "/>
<path style=" stroke:none;fill-rule:nonzero;fill:rgb(90.196078%,90.196078%,90.196078%);fill-opacity:1;" d="M 62.742188 192.316406 C 62.746094 193.050781 63.339844 193.640625 64.070312 193.636719 C 64.804688 193.636719 65.394531 193.042969 65.394531 192.308594 C 65.394531 191.578125 64.800781 190.984375 64.066406 190.984375 C 63.714844 190.984375 63.378906 191.125 63.128906 191.375 C 62.878906 191.625 62.742188 191.964844 62.742188 192.316406 Z M 62.742188 192.316406 "/>
<path style=" stroke:none;fill-rule:nonzero;fill:rgb(87.843137%,87.843137%,87.843137%);fill-opacity:1;" d="M 61.242188 124.722656 L 55.679688 124.722656 C 56.191406 127.421875 56.515625 130.152344 56.644531 132.894531 C 56.644531 135.894531 52.410156 147.792969 58.445312 147.792969 C 64.480469 147.792969 60.246094 135.925781 60.246094 132.894531 C 60.386719 130.148438 60.71875 127.417969 61.242188 124.722656 Z M 61.242188 124.722656 "/>
<path style=" stroke:none;fill-rule:nonzero;fill:rgb(96.078431%,96.078431%,96.078431%);fill-opacity:1;" d="M 40.078125 136.890625 L 40.078125 140.488281 C 40.09375 144.507812 43.347656 147.761719 47.363281 147.773438 L 50.964844 147.773438 C 54.980469 147.761719 58.234375 144.507812 58.246094 140.488281 L 58.246094 136.890625 Z M 40.078125 136.890625 "/>
<path style=" stroke:none;fill-rule:nonzero;fill:rgb(87.843137%,87.843137%,87.843137%);fill-opacity:1;" d="M 117.402344 170.554688 C 117.402344 174.757812 122.101562 178.1875 127.84375 178.1875 L 133.027344 178.1875 C 138.769531 178.1875 143.464844 174.757812 143.464844 170.554688 Z M 117.402344 170.554688 "/>
<path style=" stroke:none;fill-rule:nonzero;fill:rgb(87.843137%,87.843137%,87.843137%);fill-opacity:1;" d="M 254.765625 164.398438 C 251.621094 166.96875 247.277344 171.664062 243.304688 178.277344 C 240.652344 182.683594 239.058594 187.277344 238.355469 193.386719 C 238.355469 186.484375 238.398438 179.074219 238.421875 172.078125 C 239.21875 170.28125 241.042969 166.128906 242.351562 162.851562 C 246.714844 151.914062 248.351562 149.21875 252.269531 139.789062 C 257.507812 127.1875 262.871094 112.273438 261.335938 113.464844 C 258.203125 115.894531 246.203125 138.367188 244.90625 141.582031 C 241.375 150.164062 239.191406 159.242188 238.433594 168.492188 C 238.433594 161.890625 238.480469 155.890625 238.507812 151.234375 C 238.589844 136.050781 238.847656 131.148438 238.972656 129.636719 C 239.460938 128.867188 240.03125 127.972656 240.367188 127.492188 C 243.1875 123.414062 244.273438 119.945312 246.925781 113.863281 C 250.691406 105.253906 253.933594 89.957031 252.984375 90.726562 C 249.035156 93.941406 245.929688 100.84375 241.835938 109.644531 C 237.742188 118.445312 238.914062 123.503906 238.105469 131.015625 C 237.9375 132.492188 237.804688 138.058594 237.707031 145.769531 C 236.652344 137.550781 234.660156 132.136719 231.03125 127.21875 C 226.566406 121.164062 222.246094 117.078125 219.078125 114.941406 C 215.910156 112.804688 224.550781 127.675781 228.679688 134.140625 C 232.355469 139.925781 235.746094 145.019531 237.679688 150.042969 C 237.574219 160.5 237.527344 173.734375 237.527344 186.042969 C 236.578125 180.4375 235.03125 174.394531 232.96875 169.722656 C 230.484375 164.105469 226.667969 155.488281 223.625 152.566406 C 222.898438 151.867188 226.804688 168.625 229.3125 173.074219 C 231.820312 177.527344 233.664062 181.734375 235.242188 184.261719 C 235.609375 184.859375 236.832031 187.121094 237.527344 188.429688 C 237.527344 203.472656 237.613281 216.742188 237.742188 221.261719 L 238.390625 221.261719 C 238.351562 220.097656 238.339844 212.441406 238.355469 202.3125 C 239.921875 196.816406 243.496094 190.542969 246.449219 184.816406 C 249.664062 178.621094 257.910156 161.851562 254.765625 164.398438 Z M 254.765625 164.398438 "/>
<path style=" stroke:none;fill-rule:nonzero;fill:rgb(94.117647%,94.117647%,94.117647%);fill-opacity:1;" d="M 247.464844 230.527344 L 228.660156 230.527344 L 227.238281 212.09375 L 248.886719 212.09375 Z M 247.464844 230.527344 "/>
<path style=" stroke:none;fill-rule:nonzero;fill:rgb(96.078431%,96.078431%,96.078431%);fill-opacity:1;" d="M 250.285156 214.242188 L 225.835938 214.242188 L 225.136719 208.019531 L 250.984375 208.019531 Z M 250.285156 214.242188 "/>
<path style=" stroke:none;fill-rule:nonzero;fill:rgb(87.843137%,87.843137%,87.843137%);fill-opacity:1;" d="M 40.925781 45.300781 L 74.554688 45.300781 L 74.554688 82.230469 L 40.925781 82.230469 Z M 40.925781 45.300781 "/>
<path style=" stroke:none;fill-rule:nonzero;fill:rgb(96.078431%,96.078431%,96.078431%);fill-opacity:1;" d="M 43.457031 45.300781 L 78.199219 45.300781 L 78.199219 82.230469 L 43.457031 82.230469 Z M 43.457031 45.300781 "/>
<path style=" stroke:none;fill-rule:nonzero;fill:rgb(100%,100%,100%);fill-opacity:1;" d="M 75.289062 48.210938 L 75.289062 79.320312 L 46.367188 79.320312 L 46.367188 48.210938 Z M 75.289062 48.210938 "/>
<path style=" stroke:none;fill-rule:nonzero;fill:rgb(96.078431%,96.078431%,96.078431%);fill-opacity:1;" d="M 68.273438 55.746094 L 68.273438 71.773438 L 53.375 71.773438 L 53.375 55.746094 Z M 68.273438 55.746094 "/>
<path style=" stroke:none;fill-rule:nonzero;fill:rgb(87.843137%,87.843137%,87.843137%);fill-opacity:1;" d="M 214.789062 49.601562 L 246.03125 49.601562 L 246.03125 83.910156 L 214.789062 83.910156 Z M 214.789062 49.601562 "/>
<path style=" stroke:none;fill-rule:nonzero;fill:rgb(96.078431%,96.078431%,96.078431%);fill-opacity:1;" d="M 217.144531 49.601562 L 249.414062 49.601562 L 249.414062 83.910156 L 217.144531 83.910156 Z M 217.144531 49.601562 "/>
<path style=" stroke:none;fill-rule:nonzero;fill:rgb(100%,100%,100%);fill-opacity:1;" d="M 246.714844 52.308594 L 246.714844 81.203125 L 219.851562 81.203125 L 219.851562 52.308594 Z M 246.714844 52.308594 "/>
<path style=" stroke:none;fill-rule:nonzero;fill:rgb(96.078431%,96.078431%,96.078431%);fill-opacity:1;" d="M 241.660156 66.757812 C 241.660156 71.386719 237.910156 75.136719 233.28125 75.136719 C 228.652344 75.136719 224.898438 71.386719 224.898438 66.757812 C 224.898438 62.125 228.652344 58.375 233.28125 58.375 C 237.910156 58.375 241.660156 62.125 241.660156 66.757812 Z M 241.660156 66.757812 "/>
<path style=" stroke:none;fill-rule:nonzero;fill:rgb(87.843137%,87.843137%,87.843137%);fill-opacity:1;" d="M 84.546875 67.320312 L 109.492188 67.320312 L 109.492188 94.714844 L 84.546875 94.714844 Z M 84.546875 67.320312 "/>
<path style=" stroke:none;fill-rule:nonzero;fill:rgb(96.078431%,96.078431%,96.078431%);fill-opacity:1;" d="M 86.425781 67.320312 L 112.195312 67.320312 L 112.195312 94.714844 L 86.425781 94.714844 Z M 86.425781 67.320312 "/>
<path style=" stroke:none;fill-rule:nonzero;fill:rgb(100%,100%,100%);fill-opacity:1;" d="M 110.035156 69.480469 L 110.035156 92.554688 L 88.585938 92.554688 L 88.585938 69.480469 Z M 110.035156 69.480469 "/>
<path style=" stroke:none;fill-rule:nonzero;fill:rgb(96.078431%,96.078431%,96.078431%);fill-opacity:1;" d="M 99.3125 75.179688 L 93.445312 85.34375 L 105.179688 85.34375 Z M 99.3125 75.179688 "/>
<path style=" stroke:none;fill-rule:nonzero;fill:rgb(96.078431%,96.078431%,96.078431%);fill-opacity:1;" d="M 266.335938 249.742188 C 266.335938 245.992188 214.25 242.953125 150 242.953125 C 85.75 242.953125 33.664062 245.992188 33.664062 249.742188 C 33.664062 253.496094 85.75 256.535156 150 256.535156 C 214.25 256.535156 266.335938 253.496094 266.335938 249.742188 Z M 266.335938 249.742188 "/>
<path style=" stroke:none;fill-rule:nonzero;fill:rgb(89.803922%,54.117647%,48.235294%);fill-opacity:1;" d="M 209.550781 98.058594 L 203.597656 95.65625 C 203.597656 95.65625 195.742188 109.980469 193.492188 110.707031 C 190.433594 111.691406 184.097656 114.425781 180.34375 114.90625 C 179.832031 115.507812 178.996094 117.371094 179.074219 118.050781 C 184.121094 119.734375 195.210938 117.496094 197.585938 115.734375 C 202.992188 111.730469 209.550781 98.058594 209.550781 98.058594 Z M 209.550781 98.058594 "/>
<path style=" stroke:none;fill-rule:nonzero;fill:rgb(47.058824%,71.764706%,73.333333%);fill-opacity:1;" d="M 211.378906 94.800781 C 212.488281 98.898438 206.476562 107.140625 206.476562 107.140625 L 198.601562 102.726562 C 198.601562 102.726562 200.074219 99.335938 201.875 95.886719 C 204.761719 90.3125 210.113281 90.125 211.378906 94.800781 Z M 211.378906 94.800781 "/>
<use xlink:href="#surface5" mask="url(#mask0)"/>
<use xlink:href="#surface8" mask="url(#mask1)"/>
<path style=" stroke:none;fill-rule:nonzero;fill:rgb(47.058824%,71.764706%,73.333333%);fill-opacity:1;" d="M 206.195312 91.714844 C 206.195312 91.714844 200.0625 105.359375 203.640625 130.765625 L 227.800781 130.765625 C 228.1875 127.054688 226.914062 108.960938 231.515625 91.488281 C 228.867188 90.96875 226.183594 90.628906 223.488281 90.460938 C 220.070312 90.265625 216.640625 90.265625 213.222656 90.460938 C 210.851562 90.703125 208.503906 91.121094 206.195312 91.714844 Z M 206.195312 91.714844 "/>
<use xlink:href="#surface11" mask="url(#mask2)"/>
<path style=" stroke:none;fill-rule:nonzero;fill:rgb(90.980392%,92.54902%,94.509804%);fill-opacity:1;" d="M 200.59375 250.285156 C 200.554688 250.933594 209.71875 251.453125 221.050781 251.453125 C 232.386719 251.453125 241.613281 250.933594 241.648438 250.285156 C 241.6875 249.636719 232.53125 249.121094 221.191406 249.121094 C 209.851562 249.121094 200.632812 249.640625 200.59375 250.285156 Z M 200.59375 250.285156 "/>
<path style=" stroke:none;fill-rule:nonzero;fill:rgb(89.803922%,54.117647%,48.235294%);fill-opacity:1;" d="M 212.433594 234.917969 L 216.71875 233.257812 L 220.410156 242.792969 L 216.125 244.453125 Z M 212.433594 234.917969 "/>
<path style=" stroke:none;fill-rule:nonzero;fill:rgb(89.803922%,54.117647%,48.235294%);fill-opacity:1;" d="M 235.828125 245.671875 L 231.3125 245.671875 L 229.65625 235.210938 L 234.175781 235.210938 Z M 235.828125 245.671875 "/>
<path style=" stroke:none;fill-rule:nonzero;fill:rgb(14.901961%,19.607843%,21.960784%);fill-opacity:1;" d="M 231 245.148438 L 236.074219 245.148438 C 236.257812 245.148438 236.414062 245.28125 236.441406 245.460938 L 237.097656 249.472656 C 237.125 249.679688 237.0625 249.882812 236.925781 250.039062 C 236.789062 250.191406 236.59375 250.28125 236.386719 250.277344 C 234.617188 250.246094 233.765625 250.140625 231.535156 250.140625 C 230.160156 250.140625 227.335938 250.285156 225.425781 250.285156 C 223.519531 250.285156 223.390625 248.410156 224.179688 248.238281 C 227.707031 247.476562 229.074219 246.4375 230.25 245.429688 C 230.457031 245.246094 230.722656 245.148438 231 245.148438 Z M 231 245.148438 "/>
<path style=" stroke:none;fill-rule:nonzero;fill:rgb(14.901961%,19.607843%,21.960784%);fill-opacity:1;" d="M 216 243.601562 L 220.800781 242.195312 C 220.976562 242.144531 221.164062 242.226562 221.25 242.386719 L 223.050781 245.988281 C 223.132812 246.171875 223.132812 246.386719 223.046875 246.570312 C 222.960938 246.753906 222.796875 246.890625 222.601562 246.941406 C 220.855469 247.421875 219.683594 247.714844 217.5 248.351562 C 215.992188 248.789062 214.457031 249.503906 212.96875 249.976562 C 211.9375 250.308594 209.515625 250.320312 208.261719 250.320312 C 206.40625 250.320312 205.992188 248.363281 206.789062 248.273438 C 208.800781 248.050781 209.070312 248.152344 210.179688 247.597656 C 211.996094 246.800781 213.640625 245.664062 215.027344 244.246094 C 215.289062 243.949219 215.625 243.726562 216 243.601562 Z M 216 243.601562 "/>
<path style=" stroke:none;fill-rule:nonzero;fill:rgb(89.803922%,54.117647%,48.235294%);fill-opacity:1;" d="M 181.097656 114.882812 L 176.128906 112.800781 L 174.085938 118.308594 C 176.121094 118.617188 178.191406 118.617188 180.226562 118.308594 Z M 181.097656 114.882812 "/>
<path style=" stroke:none;fill-rule:nonzero;fill:rgb(89.803922%,54.117647%,48.235294%);fill-opacity:1;" d="M 172.433594 112.65625 L 172.300781 116.316406 L 174.085938 118.296875 L 176.128906 112.789062 Z M 172.433594 112.65625 "/>
<path style=" stroke:none;fill-rule:nonzero;fill:rgb(81.176471%,43.529412%,39.215686%);fill-opacity:1;" d="M 213.007812 235.726562 L 217.308594 234.066406 L 219.210938 239 L 214.914062 240.660156 Z M 213.007812 235.726562 "/>
<path style=" stroke:none;fill-rule:nonzero;fill:rgb(81.176471%,43.529412%,39.215686%);fill-opacity:1;" d="M 234.175781 235.210938 L 229.65625 235.210938 L 230.515625 240.605469 L 235.03125 240.605469 Z M 234.175781 235.210938 "/>
<use xlink:href="#surface14" mask="url(#mask3)"/>
<path style=" stroke:none;fill-rule:nonzero;fill:rgb(100%,100%,100%);fill-opacity:1;" d="M 208.738281 104.214844 L 208.140625 104.140625 C 208.492188 101.140625 210.730469 98.777344 213.089844 98.839844 L 213.089844 99.4375 C 211.027344 99.394531 209.058594 101.527344 208.738281 104.214844 Z M 208.738281 104.214844 "/>
<path style=" stroke:none;fill-rule:nonzero;fill:rgb(100%,100%,100%);fill-opacity:1;" d="M 211.9375 109.753906 L 211.835938 109.753906 L 211.835938 109.152344 C 213.898438 109.230469 215.839844 107.074219 216.15625 104.394531 L 216.757812 104.464844 C 216.4375 107.398438 214.273438 109.753906 211.9375 109.753906 Z M 211.9375 109.753906 "/>
<path style=" stroke:none;fill-rule:nonzero;fill:rgb(89.803922%,54.117647%,48.235294%);fill-opacity:1;" d="M 223.152344 78.898438 C 222.304688 82.207031 221.308594 88.261719 223.488281 90.460938 C 223.488281 90.460938 221.964844 93.816406 215.824219 93.816406 C 210.214844 93.816406 213.222656 90.460938 213.222656 90.460938 C 216.953125 89.585938 217.019531 86.863281 216.527344 84.28125 Z M 223.152344 78.898438 "/>
<path style=" stroke:none;fill-rule:nonzero;fill:rgb(81.176471%,43.529412%,39.215686%);fill-opacity:1;" d="M 220.453125 81.097656 L 216.535156 84.28125 C 216.65625 84.875 216.726562 85.476562 216.742188 86.082031 C 217.890625 87.222656 220.1875 84.335938 220.421875 82.859375 C 220.539062 82.277344 220.550781 81.679688 220.453125 81.097656 Z M 220.453125 81.097656 "/>
<path style=" stroke:none;fill-rule:nonzero;fill:rgb(81.176471%,43.529412%,39.215686%);fill-opacity:1;" d="M 209.796875 78.859375 C 210.347656 79.8125 211.269531 80.496094 212.347656 80.742188 C 213.785156 81.058594 214.507812 79.734375 214.109375 78.402344 C 213.757812 77.203125 212.574219 75.589844 211.109375 75.863281 C 210.472656 75.996094 209.941406 76.425781 209.679688 77.019531 C 209.417969 77.617188 209.460938 78.300781 209.796875 78.859375 Z M 209.796875 78.859375 "/>
<path style=" stroke:none;fill-rule:nonzero;fill:rgb(14.901961%,19.607843%,21.960784%);fill-opacity:1;" d="M 212.179688 68.28125 C 209.933594 69.304688 209.140625 78.222656 211.960938 79.542969 C 214.78125 80.863281 216.425781 66.328125 212.179688 68.28125 Z M 212.179688 68.28125 "/>
<path style=" stroke:none;fill-rule:nonzero;fill:rgb(89.803922%,54.117647%,48.235294%);fill-opacity:1;" d="M 223.835938 73.925781 C 223.296875 78.402344 223.234375 81.035156 220.835938 83.328125 C 219.320312 84.878906 217.0625 85.449219 214.992188 84.804688 C 212.921875 84.15625 211.386719 82.40625 211.019531 80.269531 C 210.292969 76.246094 211.296875 69.605469 215.785156 67.824219 C 217.703125 66.976562 219.933594 67.238281 221.605469 68.503906 C 223.277344 69.773438 224.132812 71.847656 223.835938 73.925781 Z M 223.835938 73.925781 "/>
<path style=" stroke:none;fill-rule:nonzero;fill:rgb(14.901961%,19.607843%,21.960784%);fill-opacity:1;" d="M 216.460938 70.597656 C 219.785156 69.75 222.226562 69.175781 221.351562 71.941406 C 220.195312 75.636719 218.800781 79.210938 220.667969 79.375 C 221.808594 79.476562 226.847656 77.339844 226.207031 75.175781 C 225.648438 73.289062 228.007812 72.773438 228.425781 71.820312 C 229.980469 68.363281 225.535156 68.820312 226.324219 66.71875 C 227.117188 64.621094 222.726562 61.234375 220.324219 62.921875 C 216.421875 65.644531 209.71875 65.605469 213.238281 61.121094 C 215.765625 57.925781 211.261719 58.578125 211.261719 58.578125 C 211.261719 58.578125 213.984375 60.191406 209.398438 62.6875 C 204.550781 65.351562 208.996094 72.511719 216.460938 70.597656 Z M 216.460938 70.597656 "/>
<path style=" stroke:none;fill-rule:nonzero;fill:rgb(89.803922%,54.117647%,48.235294%);fill-opacity:1;" d="M 225.601562 78.859375 C 224.945312 79.808594 223.957031 80.480469 222.835938 80.742188 C 221.351562 81.058594 220.78125 79.734375 221.339844 78.402344 C 221.839844 77.203125 223.207031 75.589844 224.621094 75.863281 C 226.039062 76.140625 226.363281 77.683594 225.601562 78.859375 Z M 225.601562 78.859375 "/>
<path style=" stroke:none;fill-rule:nonzero;fill:rgb(47.058824%,71.764706%,73.333333%);fill-opacity:1;" d="M 203.640625 130.765625 C 203.640625 130.765625 199.585938 167.0625 199.265625 180.839844 C 198.941406 195.167969 213.011719 239.875 213.011719 239.875 L 220.210938 236.875 C 220.210938 236.875 211.8125 196.027344 213.011719 181.957031 C 214.285156 166.613281 219.539062 130.789062 219.539062 130.789062 Z M 203.640625 130.765625 "/>
<use xlink:href="#surface17" mask="url(#mask4)"/>
<path style=" stroke:none;fill-rule:nonzero;fill:rgb(47.058824%,71.764706%,73.333333%);fill-opacity:1;" d="M 219.894531 234.496094 C 219.929688 234.496094 220.746094 236.789062 220.746094 236.789062 L 212.441406 240.28125 L 211.132812 237.847656 Z M 219.894531 234.496094 "/>
<path style=" stroke:none;fill-rule:nonzero;fill:rgb(47.058824%,71.764706%,73.333333%);fill-opacity:1;" d="M 212.214844 130.765625 C 212.214844 130.765625 215.316406 165.289062 217.367188 178.21875 C 219.625 192.382812 228.46875 239.5625 228.46875 239.5625 L 236.742188 239.5625 C 236.742188 239.5625 231.785156 193.53125 230.851562 179.503906 C 229.828125 164.285156 227.800781 130.765625 227.800781 130.765625 Z M 212.214844 130.765625 "/>
<path style=" stroke:none;fill-rule:nonzero;fill:rgb(47.058824%,71.764706%,73.333333%);fill-opacity:1;" d="M 236.867188 237.40625 C 236.902344 237.40625 237.144531 239.71875 237.144531 239.71875 L 228.046875 239.71875 L 227.398438 237.066406 Z M 236.867188 237.40625 "/>
<use xlink:href="#surface20" mask="url(#mask5)"/>
<path style=" stroke:none;fill-rule:nonzero;fill:rgb(14.901961%,19.607843%,21.960784%);fill-opacity:1;" d="M 216.972656 75.175781 C 216.972656 75.539062 216.742188 75.835938 216.503906 75.835938 C 216.265625 75.835938 216.089844 75.539062 216.113281 75.175781 C 216.136719 74.808594 216.34375 74.515625 216.582031 74.515625 C 216.820312 74.515625 216.996094 74.8125 216.972656 75.175781 Z M 216.972656 75.175781 "/>
<path style=" stroke:none;fill-rule:nonzero;fill:rgb(14.901961%,19.607843%,21.960784%);fill-opacity:1;" d="M 212.855469 75.175781 C 212.855469 75.539062 212.621094 75.835938 212.386719 75.835938 C 212.152344 75.835938 211.972656 75.539062 211.992188 75.175781 C 212.011719 74.808594 212.226562 74.515625 212.464844 74.515625 C 212.707031 74.515625 212.878906 74.8125 212.855469 75.175781 Z M 212.855469 75.175781 "/>
<path style=" stroke:none;fill-rule:nonzero;fill:rgb(87.45098%,34.117647%,32.54902%);fill-opacity:1;" d="M 214.152344 75.359375 C 213.652344 76.476562 213.003906 77.523438 212.230469 78.472656 C 212.832031 79.074219 213.953125 78.796875 213.953125 78.796875 Z M 214.152344 75.359375 "/>
<path style=" stroke:none;fill-rule:nonzero;fill:rgb(14.901961%,19.607843%,21.960784%);fill-opacity:1;" d="M 214.261719 80.328125 C 214.230469 80.328125 214.203125 80.316406 214.1875 80.296875 C 214.167969 80.277344 214.15625 80.25 214.15625 80.21875 C 214.160156 80.160156 214.210938 80.113281 214.273438 80.113281 C 215.203125 80.117188 216.082031 79.703125 216.671875 78.984375 C 216.714844 78.945312 216.777344 78.945312 216.820312 78.984375 C 216.863281 79.027344 216.863281 79.09375 216.820312 79.132812 C 216.191406 79.898438 215.25 80.335938 214.261719 80.328125 Z M 214.261719 80.328125 "/>
<path style=" stroke:none;fill-rule:nonzero;fill:rgb(14.901961%,19.607843%,21.960784%);fill-opacity:1;" d="M 217.703125 74.070312 C 217.644531 74.101562 217.578125 74.101562 217.519531 74.070312 C 217.0625 73.777344 216.496094 73.714844 215.988281 73.90625 C 215.9375 73.933594 215.882812 73.9375 215.828125 73.917969 C 215.777344 73.898438 215.734375 73.863281 215.710938 73.8125 C 215.664062 73.699219 215.714844 73.574219 215.824219 73.523438 C 216.460938 73.265625 217.1875 73.332031 217.765625 73.703125 C 217.808594 73.734375 217.84375 73.785156 217.851562 73.839844 C 217.863281 73.894531 217.851562 73.953125 217.816406 73.996094 C 217.789062 74.03125 217.75 74.058594 217.703125 74.070312 Z M 217.703125 74.070312 "/>
<path style=" stroke:none;fill-rule:nonzero;fill:rgb(14.901961%,19.607843%,21.960784%);fill-opacity:1;" d="M 211.265625 72.871094 C 211.234375 72.863281 211.203125 72.84375 211.183594 72.820312 C 211.140625 72.78125 211.117188 72.726562 211.117188 72.671875 C 211.117188 72.617188 211.140625 72.5625 211.183594 72.523438 C 211.648438 72 212.332031 71.722656 213.03125 71.777344 C 213.085938 71.785156 213.136719 71.816406 213.167969 71.863281 C 213.199219 71.910156 213.210938 71.96875 213.199219 72.023438 C 213.171875 72.140625 213.0625 72.214844 212.945312 72.203125 C 212.394531 72.167969 211.855469 72.390625 211.488281 72.804688 C 211.433594 72.867188 211.347656 72.890625 211.265625 72.871094 Z M 211.265625 72.871094 "/>
<path style=" stroke:none;fill-rule:nonzero;fill:rgb(89.803922%,54.117647%,48.235294%);fill-opacity:1;" d="M 233.839844 97.390625 L 227.597656 95.730469 C 227.597656 95.730469 221.476562 110.796875 219.3125 111.773438 C 216.371094 113.117188 208.925781 117.773438 205.757812 119.976562 C 205.585938 120.726562 205.722656 122.710938 206.117188 123.257812 C 211.519531 122.273438 221.855469 118.296875 224.015625 116.273438 C 228.941406 111.660156 233.839844 97.390625 233.839844 97.390625 Z M 233.839844 97.390625 "/>
<path style=" stroke:none;fill-rule:nonzero;fill:rgb(47.058824%,71.764706%,73.333333%);fill-opacity:1;" d="M 229.480469 245.941406 C 229.175781 245.964844 228.875 245.882812 228.625 245.707031 C 228.464844 245.5625 228.394531 245.351562 228.4375 245.140625 C 228.445312 245.011719 228.523438 244.898438 228.640625 244.84375 C 229.144531 244.585938 230.554688 245.476562 230.71875 245.578125 C 230.753906 245.601562 230.773438 245.648438 230.761719 245.6875 C 230.75 245.730469 230.71875 245.765625 230.675781 245.777344 C 230.285156 245.875 229.882812 245.929688 229.480469 245.941406 Z M 228.882812 245.003906 C 228.835938 244.992188 228.789062 244.992188 228.742188 245.003906 C 228.695312 245.027344 228.667969 245.078125 228.671875 245.128906 C 228.640625 245.273438 228.683594 245.421875 228.792969 245.519531 C 229.027344 245.730469 229.613281 245.753906 230.386719 245.605469 C 229.925781 245.300781 229.40625 245.097656 228.863281 245.003906 Z M 228.882812 245.003906 "/>
<path style=" stroke:none;fill-rule:nonzero;fill:rgb(47.058824%,71.764706%,73.333333%);fill-opacity:1;" d="M 230.644531 245.777344 C 230.628906 245.78125 230.613281 245.78125 230.597656 245.777344 C 230.148438 245.527344 229.300781 244.535156 229.429688 244.03125 C 229.464844 243.867188 229.613281 243.75 229.78125 243.75 C 229.945312 243.726562 230.109375 243.777344 230.230469 243.886719 C 230.730469 244.3125 230.761719 245.621094 230.761719 245.6875 C 230.765625 245.730469 230.742188 245.769531 230.707031 245.785156 C 230.6875 245.789062 230.664062 245.785156 230.644531 245.777344 Z M 229.84375 243.949219 L 229.800781 243.949219 C 229.660156 243.949219 229.644531 244.027344 229.636719 244.054688 C 229.566406 244.351562 230.101562 245.101562 230.542969 245.453125 C 230.542969 244.945312 230.386719 244.453125 230.09375 244.039062 C 230.023438 243.976562 229.933594 243.945312 229.84375 243.949219 Z M 229.84375 243.949219 "/>
<path style=" stroke:none;fill-rule:nonzero;fill:rgb(47.058824%,71.764706%,73.333333%);fill-opacity:1;" d="M 213.550781 245.191406 C 213.183594 245.316406 212.785156 245.316406 212.417969 245.191406 C 212.25 245.097656 212.136719 244.925781 212.125 244.734375 C 212.109375 244.613281 212.15625 244.492188 212.25 244.414062 C 212.730469 243.984375 214.691406 244.414062 214.914062 244.5 C 214.957031 244.511719 214.988281 244.550781 214.984375 244.597656 C 214.988281 244.640625 214.960938 244.683594 214.921875 244.703125 C 214.476562 244.902344 214.019531 245.066406 213.550781 245.191406 Z M 212.574219 244.476562 C 212.503906 244.488281 212.441406 244.519531 212.386719 244.566406 C 212.347656 244.59375 212.332031 244.644531 212.339844 244.691406 C 212.347656 244.820312 212.421875 244.933594 212.53125 244.996094 C 212.851562 245.164062 213.589844 245.035156 214.542969 244.632812 C 213.898438 244.46875 213.234375 244.417969 212.574219 244.476562 Z M 212.574219 244.476562 "/>
<path style=" stroke:none;fill-rule:nonzero;fill:rgb(47.058824%,71.764706%,73.333333%);fill-opacity:1;" d="M 214.902344 244.703125 L 214.855469 244.703125 C 214.253906 244.597656 213.054688 243.90625 213.019531 243.390625 C 213.019531 243.269531 213.070312 243.101562 213.359375 243.007812 C 213.554688 242.9375 213.773438 242.949219 213.960938 243.042969 C 214.609375 243.359375 214.949219 244.511719 214.96875 244.566406 C 214.976562 244.601562 214.964844 244.640625 214.9375 244.667969 C 214.929688 244.683594 214.917969 244.695312 214.902344 244.703125 Z M 213.480469 243.1875 L 213.421875 243.1875 C 213.234375 243.253906 213.234375 243.328125 213.234375 243.355469 C 213.234375 243.664062 214.105469 244.234375 214.710938 244.429688 C 214.570312 243.945312 214.273438 243.523438 213.871094 243.226562 C 213.75 243.167969 213.609375 243.152344 213.480469 243.1875 Z M 213.480469 243.1875 "/>
<path style=" stroke:none;fill-rule:nonzero;fill:rgb(89.803922%,54.117647%,48.235294%);fill-opacity:1;" d="M 206.269531 119.621094 L 200.011719 122.503906 L 199.285156 124.300781 L 201.59375 125.855469 C 201.59375 125.855469 205.914062 125.386719 207.144531 122.609375 Z M 206.269531 119.621094 "/>
<path style=" stroke:none;fill-rule:nonzero;fill:rgb(14.901961%,19.607843%,21.960784%);fill-opacity:1;" d="M 206.53125 123.359375 C 206.390625 122.15625 205.996094 121 205.367188 119.964844 L 206.359375 119.21875 C 207.101562 120.414062 207.578125 121.753906 207.75 123.148438 Z M 206.53125 123.359375 "/>
<path style=" stroke:none;fill-rule:nonzero;fill:rgb(14.901961%,19.607843%,21.960784%);fill-opacity:1;" d="M 207.601562 120.472656 C 207.871094 120.898438 207.847656 121.449219 207.539062 121.851562 C 207.230469 122.25 206.703125 122.414062 206.222656 122.261719 C 205.742188 122.105469 205.40625 121.667969 205.386719 121.164062 C 205.367188 120.660156 205.667969 120.195312 206.136719 120.007812 C 206.667969 119.734375 207.324219 119.941406 207.601562 120.472656 Z M 207.601562 120.472656 "/>
<path style=" stroke:none;fill-rule:nonzero;fill:rgb(89.803922%,54.117647%,48.235294%);fill-opacity:1;" d="M 195.78125 124.828125 L 196.613281 125.671875 L 202.230469 123.269531 L 200.011719 122.503906 Z M 195.78125 124.828125 "/>
<use xlink:href="#surface23" mask="url(#mask6)"/>
<use xlink:href="#surface26" mask="url(#mask7)"/>
<path style=" stroke:none;fill-rule:nonzero;fill:rgb(47.058824%,71.764706%,73.333333%);fill-opacity:1;" d="M 235.464844 95.664062 C 237.113281 100.984375 230.664062 108.265625 230.664062 108.265625 L 221.753906 104.628906 C 222.808594 101.550781 224.027344 98.535156 225.402344 95.585938 C 228.136719 89.6875 233.796875 90.292969 235.464844 95.664062 Z M 235.464844 95.664062 "/>
<use xlink:href="#surface29" mask="url(#mask8)"/>
<path style=" stroke:none;fill-rule:nonzero;fill:rgb(47.058824%,71.764706%,73.333333%);fill-opacity:1;" d="M 143.09375 42.34375 L 146.929688 42.34375 L 146.929688 42.960938 L 143.09375 42.960938 Z M 143.09375 42.34375 "/>
<path style=" stroke:none;fill-rule:nonzero;fill:rgb(47.058824%,71.764706%,73.333333%);fill-opacity:1;" d="M 196.09375 77.097656 L 196.558594 66.800781 L 197.175781 66.828125 L 196.710938 77.128906 Z M 196.09375 77.097656 "/>
<path style=" stroke:none;fill-rule:nonzero;fill:rgb(47.058824%,71.764706%,73.333333%);fill-opacity:1;" d="M 195.367188 45.113281 L 124.566406 45.113281 L 117.976562 192.546875 L 188.777344 192.546875 Z M 195.367188 45.113281 "/>
<use xlink:href="#surface32" mask="url(#mask9)"/>
<use xlink:href="#surface35" mask="url(#mask10)"/>
<path style=" stroke:none;fill-rule:nonzero;fill:rgb(100%,100%,100%);fill-opacity:1;" d="M 183.085938 113.464844 L 122.652344 113.464844 L 122.148438 124.746094 L 182.578125 124.746094 Z M 183.085938 113.464844 "/>
<path style=" stroke:none;fill-rule:nonzero;fill:rgb(47.058824%,71.764706%,73.333333%);fill-opacity:1;" d="M 155.886719 105.234375 L 123.019531 105.234375 L 122.796875 110.28125 L 155.664062 110.28125 Z M 155.886719 105.234375 "/>
<path style=" stroke:none;fill-rule:nonzero;fill:rgb(100%,100%,100%);fill-opacity:1;" d="M 181.722656 143.910156 L 121.289062 143.910156 L 120.785156 155.191406 L 181.21875 155.191406 Z M 181.722656 143.910156 "/>
<use xlink:href="#surface38" mask="url(#mask11)"/>
<path style=" stroke:none;fill-rule:nonzero;fill:rgb(100%,100%,100%);fill-opacity:1;" d="M 167.921875 186.042969 L 127.285156 186.042969 C 127.265625 186.046875 127.246094 186.046875 127.230469 186.042969 C 127.222656 186.023438 127.222656 186.003906 127.230469 185.988281 L 127.828125 172.464844 C 127.828125 172.445312 127.835938 172.425781 127.851562 172.414062 C 127.863281 172.402344 127.882812 172.394531 127.902344 172.398438 L 168.539062 172.398438 C 168.554688 172.390625 168.574219 172.390625 168.589844 172.398438 C 168.597656 172.414062 168.597656 172.429688 168.589844 172.445312 L 168 186 C 167.984375 186.027344 167.953125 186.046875 167.921875 186.042969 Z M 127.355469 185.898438 L 167.851562 185.898438 L 168.449219 172.519531 L 127.957031 172.519531 Z M 127.355469 185.898438 "/>
<path style=" stroke:none;fill-rule:nonzero;fill:rgb(47.058824%,71.764706%,73.333333%);fill-opacity:1;" d="M 148.789062 135.679688 L 121.65625 135.679688 L 121.433594 140.730469 L 148.558594 140.730469 Z M 148.789062 135.679688 "/>
<path style=" stroke:none;fill-rule:nonzero;fill:rgb(100%,100%,100%);fill-opacity:1;" d="M 169.867188 77.027344 C 169.710938 80.3125 168.542969 83.464844 166.523438 86.058594 C 163.496094 90.027344 158.796875 92.367188 153.804688 92.398438 C 149.78125 92.429688 145.921875 90.796875 143.144531 87.886719 C 140.363281 84.976562 138.910156 81.046875 139.128906 77.027344 C 139.566406 68.464844 146.601562 61.722656 155.179688 61.65625 C 159.207031 61.617188 163.070312 63.25 165.851562 66.160156 C 168.632812 69.074219 170.085938 73.007812 169.867188 77.027344 Z M 169.867188 77.027344 "/>
<path style=" stroke:none;fill-rule:nonzero;fill:rgb(47.058824%,71.764706%,73.333333%);fill-opacity:1;" d="M 171.3125 64.871094 C 171.273438 65.746094 170.960938 66.582031 170.425781 67.273438 C 169.617188 68.324219 168.367188 68.949219 167.039062 68.957031 C 165.75 68.964844 164.542969 68.335938 163.8125 67.273438 C 163.335938 66.566406 163.101562 65.722656 163.140625 64.871094 C 163.261719 62.597656 165.128906 60.8125 167.40625 60.792969 C 168.476562 60.78125 169.5 61.214844 170.242188 61.988281 C 170.980469 62.761719 171.367188 63.804688 171.3125 64.871094 Z M 171.3125 64.871094 "/>
<path style=" stroke:none;fill-rule:nonzero;fill:rgb(14.901961%,19.607843%,21.960784%);fill-opacity:1;" d="M 129.160156 119.105469 C 129.101562 120.109375 128.277344 120.894531 127.273438 120.90625 C 126.800781 120.910156 126.34375 120.722656 126.019531 120.378906 C 125.691406 120.039062 125.519531 119.578125 125.542969 119.105469 C 125.597656 118.101562 126.425781 117.3125 127.433594 117.304688 C 127.90625 117.300781 128.359375 117.492188 128.6875 117.832031 C 129.011719 118.175781 129.183594 118.632812 129.160156 119.105469 Z M 129.160156 119.105469 "/>
<path style=" stroke:none;fill-rule:nonzero;fill:rgb(14.901961%,19.607843%,21.960784%);fill-opacity:1;" d="M 137.25 119.105469 C 137.191406 120.109375 136.367188 120.898438 135.359375 120.90625 C 134.886719 120.910156 134.4375 120.71875 134.109375 120.378906 C 133.785156 120.039062 133.613281 119.578125 133.636719 119.105469 C 133.691406 118.101562 134.515625 117.3125 135.523438 117.304688 C 135.996094 117.300781 136.449219 117.492188 136.777344 117.832031 C 137.101562 118.171875 137.273438 118.632812 137.25 119.105469 Z M 137.25 119.105469 "/>
<path style=" stroke:none;fill-rule:nonzero;fill:rgb(14.901961%,19.607843%,21.960784%);fill-opacity:1;" d="M 145.34375 119.105469 C 145.285156 120.109375 144.460938 120.898438 143.453125 120.90625 C 142.980469 120.910156 142.527344 120.71875 142.203125 120.378906 C 141.875 120.039062 141.703125 119.578125 141.726562 119.105469 C 141.78125 118.101562 142.609375 117.3125 143.617188 117.304688 C 144.089844 117.300781 144.542969 117.492188 144.871094 117.832031 C 145.199219 118.171875 145.367188 118.632812 145.34375 119.105469 Z M 145.34375 119.105469 "/>
<path style=" stroke:none;fill-rule:nonzero;fill:rgb(14.901961%,19.607843%,21.960784%);fill-opacity:1;" d="M 127.800781 149.550781 C 127.738281 150.554688 126.914062 151.339844 125.910156 151.351562 C 125.4375 151.355469 124.984375 151.164062 124.65625 150.824219 C 124.332031 150.480469 124.160156 150.023438 124.183594 149.550781 C 124.238281 148.546875 125.066406 147.757812 126.070312 147.75 C 126.542969 147.746094 126.996094 147.9375 127.324219 148.277344 C 127.652344 148.617188 127.824219 149.078125 127.800781 149.550781 Z M 127.800781 149.550781 "/>
<path style=" stroke:none;fill-rule:nonzero;fill:rgb(14.901961%,19.607843%,21.960784%);fill-opacity:1;" d="M 135.886719 149.550781 C 135.832031 150.550781 135.007812 151.339844 134.003906 151.351562 C 133.53125 151.355469 133.078125 151.164062 132.75 150.824219 C 132.421875 150.484375 132.25 150.023438 132.277344 149.550781 C 132.332031 148.546875 133.160156 147.757812 134.164062 147.75 C 134.636719 147.746094 135.089844 147.9375 135.414062 148.277344 C 135.742188 148.617188 135.914062 149.078125 135.886719 149.550781 Z M 135.886719 149.550781 "/>
<path style=" stroke:none;fill-rule:nonzero;fill:rgb(14.901961%,19.607843%,21.960784%);fill-opacity:1;" d="M 144 149.550781 C 143.941406 150.554688 143.117188 151.34375 142.109375 151.351562 C 141.636719 151.351562 141.1875 151.160156 140.859375 150.820312 C 140.535156 150.480469 140.359375 150.019531 140.382812 149.550781 C 140.441406 148.546875 141.265625 147.761719 142.273438 147.75 C 142.746094 147.746094 143.199219 147.933594 143.527344 148.277344 C 143.851562 148.617188 144.023438 149.078125 144 149.550781 Z M 144 149.550781 "/>
<path style=" stroke:none;fill-rule:nonzero;fill:rgb(14.901961%,19.607843%,21.960784%);fill-opacity:1;" d="M 152.074219 149.550781 C 152.015625 150.554688 151.191406 151.339844 150.1875 151.351562 C 149.714844 151.351562 149.261719 151.160156 148.9375 150.820312 C 148.609375 150.480469 148.4375 150.019531 148.457031 149.550781 C 148.519531 148.546875 149.34375 147.761719 150.347656 147.75 C 150.820312 147.746094 151.273438 147.9375 151.601562 148.277344 C 151.925781 148.617188 152.097656 149.078125 152.074219 149.550781 Z M 152.074219 149.550781 "/>
<path style=" stroke:none;fill-rule:nonzero;fill:rgb(14.901961%,19.607843%,21.960784%);fill-opacity:1;" d="M 160.199219 149.550781 C 160.140625 150.554688 159.316406 151.339844 158.308594 151.351562 C 157.835938 151.355469 157.382812 151.164062 157.054688 150.824219 C 156.730469 150.484375 156.558594 150.023438 156.582031 149.550781 C 156.640625 148.546875 157.464844 147.757812 158.472656 147.75 C 158.945312 147.746094 159.398438 147.9375 159.722656 148.277344 C 160.050781 148.617188 160.222656 149.078125 160.199219 149.550781 Z M 160.199219 149.550781 "/>
<path style=" stroke:none;fill-rule:nonzero;fill:rgb(47.058824%,71.764706%,73.333333%);fill-opacity:1;" d="M 159.269531 67.433594 C 156.921875 65.035156 152.984375 65.082031 150.472656 67.535156 C 147.960938 69.992188 147.828125 73.929688 150.175781 76.328125 C 152.523438 78.730469 156.460938 78.683594 158.972656 76.226562 C 161.484375 73.773438 161.617188 69.835938 159.269531 67.433594 Z M 159.269531 67.433594 "/>
<path style=" stroke:none;fill-rule:nonzero;fill:rgb(47.058824%,71.764706%,73.333333%);fill-opacity:1;" d="M 166.523438 86.058594 C 163.496094 90.027344 158.796875 92.367188 153.804688 92.398438 C 148.953125 92.441406 144.398438 90.0625 141.660156 86.058594 C 144.574219 83.152344 149.191406 81.257812 154.300781 81.257812 C 159.414062 81.257812 163.867188 83.152344 166.523438 86.058594 Z M 166.523438 86.058594 "/>
<use xlink:href="#surface41" mask="url(#mask12)"/>
<use xlink:href="#surface44" mask="url(#mask13)"/>
<path style=" stroke:none;fill-rule:nonzero;fill:rgb(89.803922%,54.117647%,48.235294%);fill-opacity:1;" d="M 78.246094 127.464844 C 77.675781 128.710938 77.074219 130.085938 76.554688 131.417969 C 76.03125 132.75 75.496094 134.125 75.035156 135.492188 C 74.09375 138.1875 73.375 140.957031 72.886719 143.773438 L 72.757812 144.652344 C 72.742188 144.804688 72.757812 144.957031 72.796875 145.105469 C 72.941406 145.601562 73.164062 146.070312 73.457031 146.496094 C 74.230469 147.59375 75.121094 148.601562 76.121094 149.496094 C 77.175781 150.476562 78.28125 151.398438 79.433594 152.261719 C 80.585938 153.148438 81.796875 154.015625 82.992188 154.828125 L 81.871094 156.9375 C 79.019531 155.695312 76.3125 154.140625 73.800781 152.308594 C 72.460938 151.332031 71.25 150.1875 70.199219 148.902344 C 69.578125 148.136719 69.09375 147.269531 68.765625 146.339844 C 68.574219 145.757812 68.480469 145.152344 68.476562 144.539062 C 68.476562 144.394531 68.476562 144.1875 68.476562 144.085938 L 68.476562 143.789062 L 68.539062 143.191406 C 68.882812 140.0625 69.539062 136.980469 70.5 133.984375 C 70.96875 132.511719 71.464844 131.039062 72.035156 129.605469 C 72.605469 128.171875 73.195312 126.769531 73.921875 125.308594 Z M 78.246094 127.464844 "/>
<path style=" stroke:none;fill-rule:nonzero;fill:rgb(89.803922%,54.117647%,48.235294%);fill-opacity:1;" d="M 82.144531 154.457031 L 86.386719 152.308594 L 85.289062 156.964844 C 85.289062 156.964844 82.378906 157.78125 81.03125 156.367188 Z M 82.144531 154.457031 "/>
<path style=" stroke:none;fill-rule:nonzero;fill:rgb(89.803922%,54.117647%,48.235294%);fill-opacity:1;" d="M 90.269531 153.070312 L 89.140625 156.925781 L 85.289062 156.964844 L 86.386719 152.308594 Z M 90.269531 153.070312 "/>
<path style=" stroke:none;fill-rule:nonzero;fill:rgb(87.45098%,34.117647%,32.54902%);fill-opacity:1;" d="M 96.257812 105 C 96.484375 105.832031 96.800781 106.636719 97.199219 107.398438 C 96.960938 107.667969 96.597656 107.785156 96.246094 107.707031 Z M 96.257812 105 "/>
<path style=" stroke:none;fill-rule:nonzero;fill:rgb(14.901961%,19.607843%,21.960784%);fill-opacity:1;" d="M 96.582031 104.347656 C 96.582031 103.964844 96.378906 103.65625 96.132812 103.65625 C 95.882812 103.65625 95.683594 103.964844 95.683594 104.347656 C 95.683594 104.726562 95.882812 105.035156 96.132812 105.035156 C 96.378906 105.035156 96.582031 104.726562 96.582031 104.347656 Z M 96.582031 104.347656 "/>
<path style=" stroke:none;fill-rule:nonzero;fill:rgb(14.901961%,19.607843%,21.960784%);fill-opacity:1;" d="M 96 103.679688 L 96.910156 103.421875 C 96.910156 103.421875 96.46875 104.128906 96 103.679688 Z M 96 103.679688 "/>
<path style=" stroke:none;fill-rule:nonzero;fill:rgb(89.803922%,54.117647%,48.235294%);fill-opacity:1;" d="M 84.539062 109.402344 C 85.085938 112.195312 85.632812 117.3125 83.675781 119.179688 C 83.675781 119.179688 84.445312 122.011719 89.632812 122.011719 C 95.339844 122.011719 92.359375 119.179688 92.359375 119.179688 C 89.242188 118.433594 89.320312 116.125 89.867188 113.953125 Z M 84.539062 109.402344 "/>
<path style=" stroke:none;fill-rule:nonzero;fill:rgb(89.803922%,54.117647%,48.235294%);fill-opacity:1;" d="M 83.023438 103.042969 C 83.308594 107.707031 83.335938 109.6875 85.6875 112.078125 C 89.230469 115.679688 94.894531 114.3125 96.007812 109.679688 C 97.007812 105.480469 96.371094 98.566406 91.804688 96.714844 C 89.769531 95.875 87.441406 96.148438 85.652344 97.4375 C 83.867188 98.722656 82.871094 100.84375 83.023438 103.042969 Z M 83.023438 103.042969 "/>
<path style=" stroke:none;fill-rule:nonzero;fill:rgb(14.901961%,19.607843%,21.960784%);fill-opacity:1;" d="M 83.484375 97.800781 C 81.144531 98.652344 78.023438 98.015625 79.246094 105.234375 C 80.542969 112.878906 78.550781 115.390625 78.550781 115.390625 C 78.550781 115.390625 87.425781 117.28125 96.484375 115.277344 C 96.484375 115.277344 93.71875 110.441406 94.492188 106.878906 C 95.484375 102.378906 94.703125 100.714844 94.703125 100.714844 C 94.703125 100.714844 86.773438 96.601562 83.484375 97.800781 Z M 83.484375 97.800781 "/>
<path style=" stroke:none;fill-rule:nonzero;fill:rgb(89.803922%,54.117647%,48.235294%);fill-opacity:1;" d="M 93.382812 105.472656 C 93.386719 106.359375 93.640625 107.226562 94.117188 107.976562 C 94.753906 108.949219 95.503906 108.574219 95.6875 107.542969 C 95.855469 106.636719 95.730469 105.035156 94.921875 104.410156 C 94.109375 103.789062 93.394531 104.398438 93.382812 105.472656 Z M 93.382812 105.472656 "/>
<path style=" stroke:none;fill-rule:nonzero;fill:rgb(14.901961%,19.607843%,21.960784%);fill-opacity:1;" d="M 81.449219 98.585938 C 80.777344 96.695312 83.980469 93.785156 90.761719 94.984375 C 97.542969 96.1875 97.835938 101.832031 97.835938 101.832031 L 96.46875 100.199219 L 96.527344 101.914062 L 89.5625 103.253906 Z M 81.449219 98.585938 "/>
<path style=" stroke:none;fill-rule:nonzero;fill:rgb(47.058824%,71.764706%,73.333333%);fill-opacity:1;" d="M 82.027344 119.496094 C 81.941406 118.925781 82.328125 118.394531 82.894531 118.296875 C 85.007812 117.949219 89.808594 117.238281 92.21875 117.574219 C 94.019531 117.828125 94.488281 118.871094 94.566406 119.730469 C 94.589844 120.035156 94.484375 120.332031 94.269531 120.550781 C 94.058594 120.769531 93.761719 120.886719 93.457031 120.871094 L 83.027344 120.402344 C 82.519531 120.375 82.101562 119.996094 82.027344 119.496094 Z M 82.027344 119.496094 "/>
<use xlink:href="#surface47" mask="url(#mask14)"/>
<path style=" stroke:none;fill-rule:nonzero;fill:rgb(89.803922%,54.117647%,48.235294%);fill-opacity:1;" d="M 88.054688 224.316406 L 91.925781 227.003906 L 98.398438 218.226562 L 94.53125 215.542969 Z M 88.054688 224.316406 "/>
<path style=" stroke:none;fill-rule:nonzero;fill:rgb(89.803922%,54.117647%,48.235294%);fill-opacity:1;" d="M 79.03125 224.140625 L 83.117188 226.46875 L 88.847656 217.1875 L 84.761719 214.859375 Z M 79.03125 224.140625 "/>
<path style=" stroke:none;fill-rule:nonzero;fill:rgb(81.176471%,43.529412%,39.215686%);fill-opacity:1;" d="M 98.394531 218.226562 L 95.058594 222.75 L 91.1875 220.066406 L 94.523438 215.542969 Z M 98.394531 218.226562 "/>
<path style=" stroke:none;fill-rule:nonzero;fill:rgb(81.176471%,43.529412%,39.215686%);fill-opacity:1;" d="M 84.757812 214.859375 L 88.847656 217.195312 L 85.894531 221.976562 L 81.804688 219.640625 Z M 84.757812 214.859375 "/>
<path style=" stroke:none;fill-rule:nonzero;fill:rgb(47.058824%,71.764706%,73.333333%);fill-opacity:1;" d="M 91.320312 148.800781 C 91.320312 148.800781 106.429688 167.839844 103.589844 186.046875 C 101.304688 200.753906 88.042969 220.667969 88.042969 220.667969 L 81.808594 217.570312 C 86.203125 208.765625 89.953125 199.65625 93.03125 190.308594 C 94.953125 184.429688 94.066406 177.992188 90.628906 172.847656 C 82.972656 161.671875 70.710938 168.324219 78.960938 148.800781 Z M 91.320312 148.800781 "/>
<use xlink:href="#surface50" mask="url(#mask15)"/>
<use xlink:href="#surface53" mask="url(#mask16)"/>
<path style=" stroke:none;fill-rule:nonzero;fill:rgb(47.058824%,71.764706%,73.333333%);fill-opacity:1;" d="M 98.0625 148.800781 C 98.0625 148.800781 116.257812 172.726562 116.773438 187.074219 C 117.199219 199.074219 96.972656 222.324219 96.972656 222.324219 L 91.09375 218.519531 C 91.09375 218.519531 102.929688 202.007812 105.910156 188.519531 C 104.761719 175.152344 80.398438 148.800781 80.398438 148.800781 Z M 98.0625 148.800781 "/>
<use xlink:href="#surface56" mask="url(#mask17)"/>
<path style=" stroke:none;fill-rule:nonzero;fill:rgb(47.058824%,71.764706%,73.333333%);fill-opacity:1;" d="M 75.558594 120.246094 C 73.613281 120.707031 71.746094 127.777344 71.746094 127.777344 L 79.351562 132.851562 C 79.351562 132.851562 81.882812 127.261719 80.992188 124.8125 C 80.074219 122.261719 78 119.664062 75.558594 120.246094 Z M 75.558594 120.246094 "/>
<use xlink:href="#surface59" mask="url(#mask18)"/>
<path style=" stroke:none;fill-rule:nonzero;fill:rgb(47.058824%,71.764706%,73.333333%);fill-opacity:1;" d="M 100.3125 120.382812 C 100.3125 120.382812 102.558594 121.171875 98.0625 148.792969 L 78.949219 148.792969 C 79.273438 140.992188 79.277344 136.195312 75.558594 120.246094 C 78.234375 119.695312 80.949219 119.335938 83.675781 119.179688 C 86.566406 118.972656 89.46875 118.972656 92.359375 119.179688 C 96.089844 119.519531 100.3125 120.382812 100.3125 120.382812 Z M 100.3125 120.382812 "/>
<path style=" stroke:none;fill-rule:nonzero;fill:rgb(89.803922%,54.117647%,48.235294%);fill-opacity:1;" d="M 102.257812 124.800781 C 102.691406 126 103.144531 127.289062 103.625 128.53125 C 104.105469 129.773438 104.5625 131.050781 105.046875 132.3125 L 106.519531 136.078125 L 106.890625 137.023438 L 107.082031 137.488281 L 107.171875 137.722656 C 107.171875 137.765625 107.171875 137.765625 107.171875 137.761719 C 107.0625 137.605469 106.917969 137.476562 106.753906 137.386719 C 106.515625 137.25 106.246094 137.167969 105.972656 137.152344 C 105.742188 137.148438 105.515625 137.191406 105.304688 137.28125 C 105.03125 137.40625 105.03125 137.460938 105.035156 137.453125 C 105.085938 137.414062 105.128906 137.367188 105.167969 137.316406 C 105.5 136.878906 105.789062 136.410156 106.027344 135.917969 C 106.308594 135.367188 106.578125 134.777344 106.847656 134.183594 C 107.375 132.984375 107.863281 131.742188 108.347656 130.488281 C 108.835938 129.234375 109.296875 127.96875 109.746094 126.691406 L 111.113281 122.863281 L 113.425781 123.460938 C 112.96875 126.199219 112.378906 128.863281 111.671875 131.574219 C 111.328125 132.925781 110.929688 134.261719 110.472656 135.613281 C 110.242188 136.289062 109.992188 136.960938 109.703125 137.652344 C 109.402344 138.402344 109.035156 139.121094 108.601562 139.800781 C 108.441406 140.027344 108.265625 140.246094 108.070312 140.449219 C 107.765625 140.777344 107.394531 141.042969 106.980469 141.222656 C 106.613281 141.378906 106.214844 141.453125 105.816406 141.4375 C 105.367188 141.421875 104.933594 141.292969 104.550781 141.058594 C 104.097656 140.777344 103.722656 140.386719 103.457031 139.925781 C 103.367188 139.769531 103.289062 139.613281 103.234375 139.5 L 103.121094 139.273438 L 102.894531 138.804688 L 102.4375 137.875 C 101.839844 136.625 101.238281 135.367188 100.714844 134.101562 C 100.195312 132.835938 99.640625 131.550781 99.125 130.261719 C 98.609375 128.96875 98.148438 127.679688 97.710938 126.289062 Z M 102.257812 124.800781 "/>
<path style=" stroke:none;fill-rule:nonzero;fill:rgb(47.058824%,71.764706%,73.333333%);fill-opacity:1;" d="M 100.3125 120.382812 C 102.613281 120.929688 105.199219 127.722656 105.199219 127.722656 L 98.363281 133.535156 C 98.363281 133.535156 93.941406 126.132812 94.835938 123.691406 C 95.765625 121.144531 97.3125 119.671875 100.3125 120.382812 Z M 100.3125 120.382812 "/>
<path style=" stroke:none;fill-rule:nonzero;fill:rgb(89.803922%,54.117647%,48.235294%);fill-opacity:1;" d="M 112.199219 120.714844 L 114.601562 118.710938 L 116.269531 121.308594 L 115.039062 123.472656 C 115.039062 123.472656 113.082031 125.273438 111.355469 124.355469 C 110.789062 123.089844 111.136719 121.601562 112.199219 120.714844 Z M 112.199219 120.714844 "/>
<path style=" stroke:none;fill-rule:nonzero;fill:rgb(89.803922%,54.117647%,48.235294%);fill-opacity:1;" d="M 118.933594 118.714844 L 118.753906 119.371094 L 114.953125 120.007812 L 114.582031 118.710938 Z M 118.933594 118.714844 "/>
<path style=" stroke:none;fill-rule:nonzero;fill:rgb(47.058824%,71.764706%,73.333333%);fill-opacity:1;" d="M 97.441406 222.628906 L 90.589844 218.203125 L 91.816406 216.066406 L 99.515625 220.800781 Z M 97.441406 222.628906 "/>
<path style=" stroke:none;fill-rule:nonzero;fill:rgb(14.901961%,19.607843%,21.960784%);fill-opacity:1;" d="M 85.800781 226.15625 C 85.199219 226.085938 84.621094 225.878906 84.109375 225.558594 C 84.066406 225.542969 84.035156 225.503906 84.035156 225.457031 C 84.035156 225.410156 84.066406 225.367188 84.109375 225.355469 C 84.292969 225.292969 85.90625 224.796875 86.375 225.179688 C 86.484375 225.269531 86.535156 225.410156 86.507812 225.546875 C 86.492188 225.765625 86.363281 225.960938 86.164062 226.0625 C 86.054688 226.125 85.929688 226.15625 85.800781 226.15625 Z M 84.449219 225.496094 C 85.199219 225.882812 85.800781 226.019531 86.089844 225.875 C 86.214844 225.804688 86.296875 225.671875 86.304688 225.527344 C 86.304688 225.433594 86.304688 225.390625 86.25 225.367188 C 85.996094 225.160156 85.097656 225.316406 84.4375 225.496094 Z M 84.449219 225.496094 "/>
<path style=" stroke:none;fill-rule:nonzero;fill:rgb(14.901961%,19.607843%,21.960784%);fill-opacity:1;" d="M 84.148438 225.601562 C 84.117188 225.597656 84.089844 225.585938 84.066406 225.5625 C 84.046875 225.53125 84.046875 225.488281 84.066406 225.457031 C 84.066406 225.402344 84.457031 224.101562 85.066406 223.804688 C 85.226562 223.734375 85.40625 223.734375 85.566406 223.804688 C 85.738281 223.859375 85.851562 224.027344 85.84375 224.207031 C 85.800781 224.746094 84.703125 225.492188 84.199219 225.617188 Z M 85.3125 223.960938 C 85.253906 223.964844 85.199219 223.976562 85.144531 224.003906 C 84.773438 224.183594 84.46875 224.886719 84.316406 225.3125 C 84.847656 225.089844 85.570312 224.503906 85.597656 224.171875 C 85.597656 224.117188 85.597656 224.050781 85.457031 223.992188 C 85.414062 223.96875 85.363281 223.953125 85.3125 223.945312 Z M 85.3125 223.960938 "/>
<path style=" stroke:none;fill-rule:nonzero;fill:rgb(14.901961%,19.607843%,21.960784%);fill-opacity:1;" d="M 94.363281 228.75 C 93.683594 228.75 92.742188 227.878906 92.226562 227.347656 C 92.199219 227.308594 92.199219 227.257812 92.226562 227.21875 C 92.25 227.179688 92.292969 227.15625 92.339844 227.160156 C 92.578125 227.160156 94.660156 227.472656 94.957031 228.058594 C 95.019531 228.167969 95.019531 228.300781 94.957031 228.40625 C 94.867188 228.59375 94.6875 228.722656 94.480469 228.742188 Z M 92.621094 227.429688 C 93.378906 228.160156 94.042969 228.570312 94.421875 228.523438 C 94.554688 228.503906 94.671875 228.421875 94.734375 228.300781 C 94.761719 228.257812 94.761719 228.203125 94.734375 228.160156 C 94.578125 227.839844 93.46875 227.5625 92.621094 227.429688 Z M 92.621094 227.429688 "/>
<path style=" stroke:none;fill-rule:nonzero;fill:rgb(14.901961%,19.607843%,21.960784%);fill-opacity:1;" d="M 92.6875 227.398438 C 92.554688 227.402344 92.417969 227.394531 92.285156 227.371094 C 92.25 227.363281 92.214844 227.339844 92.203125 227.304688 C 92.183594 227.269531 92.183594 227.226562 92.203125 227.191406 C 92.238281 227.148438 93.046875 226.171875 93.816406 226.105469 C 94.035156 226.085938 94.25 226.15625 94.414062 226.296875 C 94.648438 226.5 94.636719 226.679688 94.578125 226.792969 C 94.429688 227.203125 93.390625 227.398438 92.6875 227.398438 Z M 92.53125 227.179688 C 93.203125 227.214844 94.277344 226.992188 94.414062 226.699219 C 94.414062 226.699219 94.464844 226.601562 94.308594 226.46875 C 94.183594 226.359375 94.015625 226.308594 93.851562 226.324219 C 93.335938 226.46875 92.875 226.769531 92.53125 227.183594 Z M 92.53125 227.179688 "/>
<path style=" stroke:none;fill-rule:nonzero;fill:rgb(47.058824%,71.764706%,73.333333%);fill-opacity:1;" d="M 84.3125 224.953125 L 79.222656 223.511719 C 79.042969 223.457031 78.847656 223.546875 78.773438 223.722656 L 77.058594 227.578125 C 76.976562 227.78125 76.984375 228.003906 77.078125 228.199219 C 77.175781 228.390625 77.347656 228.535156 77.554688 228.59375 C 79.355469 229.0625 80.21875 229.195312 82.457031 229.835938 C 83.839844 230.21875 85.804688 230.933594 87.707031 231.472656 C 89.609375 232.015625 90.246094 230.160156 89.507812 229.765625 C 86.171875 228 85.90625 226.765625 84.996094 225.445312 C 84.832031 225.203125 84.589844 225.03125 84.3125 224.953125 Z M 84.3125 224.953125 "/>
<path style=" stroke:none;fill-rule:nonzero;fill:rgb(47.058824%,71.764706%,73.333333%);fill-opacity:1;" d="M 92.363281 226.644531 L 88.019531 223.644531 C 87.867188 223.53125 87.65625 223.554688 87.527344 223.691406 L 84.648438 226.789062 C 84.507812 226.949219 84.441406 227.164062 84.46875 227.378906 C 84.496094 227.59375 84.613281 227.785156 84.792969 227.902344 C 86.320312 228.929688 87.113281 229.34375 89.027344 230.671875 C 90.226562 231.484375 92.550781 233.296875 94.171875 234.425781 C 95.789062 235.554688 96.996094 234.007812 96.421875 233.394531 C 93.839844 230.640625 93.277344 228.910156 92.851562 227.347656 C 92.777344 227.0625 92.605469 226.8125 92.363281 226.644531 Z M 92.363281 226.644531 "/>
<path style=" stroke:none;fill-rule:nonzero;fill:rgb(47.058824%,71.764706%,73.333333%);fill-opacity:1;" d="M 88.84375 221.0625 L 81.011719 217.171875 L 81.820312 215.046875 L 90.1875 219.148438 Z M 88.84375 221.0625 "/>
<path style=" stroke:none;fill-rule:nonzero;fill:rgb(47.058824%,71.764706%,73.333333%);fill-opacity:1;" d="M 78.660156 147.671875 L 78 149.398438 C 77.933594 149.53125 78.089844 149.671875 78.3125 149.671875 L 98.160156 149.671875 C 98.335938 149.671875 98.476562 149.585938 98.488281 149.476562 L 98.65625 147.761719 C 98.65625 147.648438 98.519531 147.546875 98.335938 147.546875 L 78.972656 147.546875 C 78.855469 147.535156 78.738281 147.582031 78.660156 147.671875 Z M 78.660156 147.671875 "/>
<use xlink:href="#surface62" mask="url(#mask19)"/>
<path style=" stroke:none;fill-rule:nonzero;fill:rgb(47.058824%,71.764706%,73.333333%);fill-opacity:1;" d="M 81.785156 149.839844 L 81.265625 149.839844 C 81.160156 149.839844 81.085938 149.785156 81.089844 149.71875 L 81.335938 147.492188 C 81.335938 147.433594 81.433594 147.378906 81.535156 147.378906 L 82.054688 147.378906 C 82.15625 147.378906 82.234375 147.433594 82.230469 147.492188 L 81.984375 149.71875 C 81.976562 149.785156 81.886719 149.839844 81.785156 149.839844 Z M 81.785156 149.839844 "/>
<path style=" stroke:none;fill-rule:nonzero;fill:rgb(47.058824%,71.764706%,73.333333%);fill-opacity:1;" d="M 94.027344 149.839844 L 93.511719 149.839844 C 93.40625 149.839844 93.328125 149.785156 93.335938 149.71875 L 93.574219 147.492188 C 93.574219 147.433594 93.679688 147.378906 93.78125 147.378906 L 94.296875 147.378906 C 94.398438 147.378906 94.480469 147.433594 94.46875 147.492188 L 94.230469 149.71875 C 94.199219 149.785156 94.132812 149.839844 94.027344 149.839844 Z M 94.027344 149.839844 "/>
<path style=" stroke:none;fill-rule:nonzero;fill:rgb(96.078431%,96.078431%,96.078431%);fill-opacity:1;" d="M 97.402344 250.285156 C 97.402344 249.640625 90.207031 249.121094 81.328125 249.121094 C 72.453125 249.121094 65.257812 249.640625 65.257812 250.285156 C 65.257812 250.925781 72.453125 251.449219 81.328125 251.449219 C 90.207031 251.449219 97.402344 250.925781 97.402344 250.285156 Z M 97.402344 250.285156 "/>
<path style=" stroke:none;fill-rule:nonzero;fill:rgb(87.843137%,87.843137%,87.843137%);fill-opacity:1;" d="M 91.121094 248.640625 C 88.277344 247.8125 85.121094 246.75 83.214844 245.640625 C 83.160156 245.605469 83.101562 245.585938 83.046875 245.554688 L 83.046875 232.679688 L 88.800781 232.679688 C 89.707031 232.625 90.414062 231.875 90.414062 230.96875 C 90.414062 230.058594 89.707031 229.308594 88.800781 229.253906 L 83.074219 229.253906 L 83.074219 170.5625 L 79.621094 170.5625 L 79.621094 229.253906 L 73.902344 229.253906 C 73.265625 229.214844 72.660156 229.535156 72.332031 230.078125 C 72.003906 230.625 72.003906 231.308594 72.332031 231.855469 C 72.660156 232.398438 73.265625 232.71875 73.902344 232.679688 L 79.621094 232.679688 L 79.621094 245.539062 C 79.566406 245.539062 79.511719 245.585938 79.457031 245.621094 C 77.519531 246.75 74.386719 247.8125 71.542969 248.621094 C 71.148438 248.742188 70.898438 249.132812 70.957031 249.542969 C 71.015625 249.953125 71.363281 250.261719 71.777344 250.265625 L 90.886719 250.265625 C 91.285156 250.238281 91.605469 249.941406 91.664062 249.546875 C 91.71875 249.15625 91.492188 248.777344 91.121094 248.640625 Z M 91.121094 248.640625 "/>
<path style=" stroke:none;fill-rule:nonzero;fill:rgb(47.058824%,71.764706%,73.333333%);fill-opacity:1;" d="M 70.667969 164.585938 L 92.003906 164.585938 C 93.71875 164.585938 95.113281 165.976562 95.113281 167.695312 L 95.113281 174.035156 C 95.113281 175.753906 93.71875 177.144531 92.003906 177.144531 L 70.667969 177.144531 C 68.953125 177.144531 67.558594 175.753906 67.558594 174.035156 L 67.558594 167.695312 C 67.558594 165.976562 68.953125 164.585938 70.667969 164.585938 Z M 70.667969 164.585938 "/>
<path style=" stroke:none;fill-rule:nonzero;fill:rgb(47.058824%,71.764706%,73.333333%);fill-opacity:1;" d="M 70.46875 177.148438 L 70.46875 178.242188 C 70.46875 179.140625 71.449219 179.875 72.648438 179.875 L 90.046875 179.875 C 91.246094 179.875 92.226562 179.140625 92.226562 178.242188 L 92.226562 177.148438 Z M 70.46875 177.148438 "/>
<use xlink:href="#surface65" mask="url(#mask20)"/>
</g>
</svg>
