<?xml version="1.0" encoding="UTF-8"?>
<svg xmlns="http://www.w3.org/2000/svg" xmlns:xlink="http://www.w3.org/1999/xlink" width="200px" height="200px" viewBox="0 0 200 200" version="1.1">
<defs>
<filter id="alpha" filterUnits="objectBoundingBox" x="0%" y="0%" width="100%" height="100%">
  <feColorMatrix type="matrix" in="SourceGraphic" values="0 0 0 0 1 0 0 0 0 1 0 0 0 0 1 0 0 0 1 0"/>
</filter>
<mask id="mask0">
  <g filter="url(#alpha)">
<rect x="0" y="0" width="200" height="200" style="fill:rgb(0%,0%,0%);fill-opacity:0.2;stroke:none;"/>
  </g>
</mask>
<clipPath id="clip1">
  <rect x="0" y="0" width="200" height="200"/>
</clipPath>
<g id="surface5" clip-path="url(#clip1)">
<path style=" stroke:none;fill-rule:nonzero;fill:rgb(47.058824%,71.764706%,73.333333%);fill-opacity:1;" d="M 92.203125 61.101562 L 68.511719 61.101562 C 67.605469 61.097656 66.871094 60.363281 66.867188 59.457031 C 66.871094 58.550781 67.605469 57.8125 68.511719 57.8125 L 92.203125 57.8125 C 93.109375 57.8125 93.847656 58.550781 93.847656 59.457031 C 93.847656 60.363281 93.109375 61.097656 92.203125 61.101562 Z M 92.203125 61.101562 "/>
</g>
<mask id="mask1">
  <g filter="url(#alpha)">
<rect x="0" y="0" width="200" height="200" style="fill:rgb(0%,0%,0%);fill-opacity:0.2;stroke:none;"/>
  </g>
</mask>
<clipPath id="clip2">
  <rect x="0" y="0" width="200" height="200"/>
</clipPath>
<g id="surface8" clip-path="url(#clip2)">
<path style=" stroke:none;fill-rule:nonzero;fill:rgb(47.058824%,71.764706%,73.333333%);fill-opacity:1;" d="M 98.722656 92.800781 L 73.050781 92.800781 C 72.691406 92.796875 72.398438 92.503906 72.394531 92.144531 C 72.398438 91.78125 72.691406 91.488281 73.050781 91.488281 L 98.722656 91.488281 C 99.085938 91.488281 99.375 91.785156 99.375 92.144531 C 99.375 92.503906 99.085938 92.796875 98.722656 92.800781 Z M 98.722656 92.800781 "/>
</g>
<mask id="mask2">
  <g filter="url(#alpha)">
<rect x="0" y="0" width="200" height="200" style="fill:rgb(0%,0%,0%);fill-opacity:0.6;stroke:none;"/>
  </g>
</mask>
<clipPath id="clip3">
  <rect x="0" y="0" width="200" height="200"/>
</clipPath>
<g id="surface11" clip-path="url(#clip3)">
<path style=" stroke:none;fill-rule:nonzero;fill:rgb(14.901961%,19.607843%,21.960784%);fill-opacity:1;" d="M 70.175781 73.351562 L 70.175781 70.890625 L 71.835938 70.890625 L 71.835938 71.199219 L 70.503906 71.199219 L 70.503906 71.960938 L 71.65625 71.960938 L 71.65625 72.253906 L 70.503906 72.253906 L 70.503906 73.367188 Z M 70.175781 73.351562 "/>
<path style=" stroke:none;fill-rule:nonzero;fill:rgb(14.901961%,19.607843%,21.960784%);fill-opacity:1;" d="M 72.21875 71.238281 L 72.21875 70.890625 L 72.519531 70.890625 L 72.519531 71.238281 Z M 72.21875 73.351562 L 72.21875 71.570312 L 72.519531 71.570312 L 72.519531 73.351562 Z M 72.21875 73.351562 "/>
<path style=" stroke:none;fill-rule:nonzero;fill:rgb(14.901961%,19.607843%,21.960784%);fill-opacity:1;" d="M 72.976562 73.351562 L 72.976562 71.570312 L 73.246094 71.570312 L 73.246094 71.839844 C 73.296875 71.746094 73.359375 71.660156 73.441406 71.59375 C 73.496094 71.550781 73.566406 71.53125 73.636719 71.53125 C 73.746094 71.535156 73.851562 71.566406 73.945312 71.628906 L 73.839844 71.90625 C 73.773438 71.867188 73.699219 71.84375 73.621094 71.84375 C 73.554688 71.84375 73.492188 71.863281 73.441406 71.898438 C 73.386719 71.945312 73.347656 72 73.328125 72.066406 C 73.296875 72.183594 73.277344 72.300781 73.28125 72.421875 L 73.28125 73.351562 Z M 72.976562 73.351562 "/>
<path style=" stroke:none;fill-rule:nonzero;fill:rgb(14.901961%,19.607843%,21.960784%);fill-opacity:1;" d="M 74 72.820312 L 74.296875 72.773438 C 74.308594 72.878906 74.355469 72.976562 74.4375 73.046875 C 74.527344 73.117188 74.644531 73.152344 74.761719 73.144531 C 74.871094 73.152344 74.976562 73.121094 75.066406 73.058594 C 75.128906 73.011719 75.164062 72.9375 75.167969 72.859375 C 75.167969 72.792969 75.136719 72.734375 75.078125 72.699219 C 74.980469 72.652344 74.875 72.617188 74.769531 72.597656 C 74.609375 72.558594 74.457031 72.511719 74.308594 72.453125 C 74.230469 72.417969 74.160156 72.359375 74.117188 72.285156 C 74.070312 72.210938 74.046875 72.128906 74.046875 72.042969 C 74.046875 71.886719 74.121094 71.734375 74.253906 71.644531 C 74.308594 71.605469 74.375 71.574219 74.445312 71.554688 C 74.527344 71.53125 74.617188 71.519531 74.703125 71.519531 C 74.828125 71.515625 74.953125 71.539062 75.070312 71.578125 C 75.164062 71.609375 75.246094 71.667969 75.308594 71.742188 C 75.363281 71.828125 75.398438 71.921875 75.410156 72.019531 L 75.117188 72.058594 C 75.105469 71.976562 75.0625 71.898438 75 71.84375 C 74.921875 71.789062 74.824219 71.761719 74.726562 71.769531 C 74.625 71.757812 74.519531 71.78125 74.429688 71.835938 C 74.375 71.871094 74.34375 71.933594 74.339844 71.996094 C 74.339844 72.035156 74.351562 72.070312 74.375 72.101562 C 74.40625 72.136719 74.445312 72.167969 74.492188 72.183594 L 74.761719 72.261719 C 74.910156 72.296875 75.054688 72.34375 75.199219 72.398438 C 75.363281 72.464844 75.472656 72.625 75.46875 72.800781 C 75.46875 72.902344 75.4375 73 75.378906 73.085938 C 75.316406 73.175781 75.230469 73.246094 75.128906 73.289062 C 75.011719 73.339844 74.882812 73.367188 74.753906 73.363281 C 74.566406 73.375 74.378906 73.324219 74.222656 73.21875 C 74.105469 73.117188 74.023438 72.976562 74 72.820312 Z M 74 72.820312 "/>
<path style=" stroke:none;fill-rule:nonzero;fill:rgb(14.901961%,19.607843%,21.960784%);fill-opacity:1;" d="M 76.5 73.078125 L 76.539062 73.347656 C 76.464844 73.363281 76.390625 73.375 76.3125 73.375 C 76.226562 73.378906 76.136719 73.363281 76.058594 73.324219 C 76.003906 73.292969 75.957031 73.242188 75.933594 73.183594 C 75.902344 73.066406 75.886719 72.949219 75.894531 72.828125 L 75.894531 71.804688 L 75.671875 71.804688 L 75.671875 71.570312 L 75.894531 71.570312 L 75.894531 71.132812 L 76.195312 70.949219 L 76.195312 71.570312 L 76.5 71.570312 L 76.5 71.804688 L 76.195312 71.804688 L 76.195312 72.847656 C 76.1875 72.902344 76.1875 72.957031 76.195312 73.011719 C 76.207031 73.039062 76.222656 73.058594 76.246094 73.070312 C 76.28125 73.078125 76.316406 73.078125 76.347656 73.070312 Z M 76.5 73.078125 "/>
<path style=" stroke:none;fill-rule:nonzero;fill:rgb(14.901961%,19.607843%,21.960784%);fill-opacity:1;" d="M 77.746094 73.351562 L 77.746094 71.570312 L 78.019531 71.570312 L 78.019531 71.824219 C 78.140625 71.632812 78.355469 71.519531 78.585938 71.53125 C 78.683594 71.53125 78.785156 71.546875 78.878906 71.589844 C 78.960938 71.621094 79.03125 71.671875 79.085938 71.738281 C 79.128906 71.808594 79.160156 71.882812 79.175781 71.964844 C 79.183594 72.0625 79.183594 72.160156 79.175781 72.257812 L 79.175781 73.351562 L 78.875 73.351562 L 78.875 72.269531 C 78.878906 72.175781 78.867188 72.082031 78.839844 71.992188 C 78.816406 71.929688 78.773438 71.878906 78.714844 71.847656 C 78.652344 71.808594 78.578125 71.789062 78.503906 71.792969 C 78.382812 71.789062 78.261719 71.832031 78.171875 71.914062 C 78.0625 72.042969 78.011719 72.210938 78.03125 72.378906 L 78.03125 73.351562 Z M 77.746094 73.351562 "/>
<path style=" stroke:none;fill-rule:nonzero;fill:rgb(14.901961%,19.607843%,21.960784%);fill-opacity:1;" d="M 80.800781 73.132812 C 80.703125 73.214844 80.597656 73.28125 80.480469 73.332031 C 80.371094 73.371094 80.257812 73.394531 80.144531 73.390625 C 79.980469 73.402344 79.820312 73.351562 79.695312 73.246094 C 79.589844 73.15625 79.53125 73.019531 79.535156 72.878906 C 79.535156 72.796875 79.554688 72.714844 79.597656 72.644531 C 79.632812 72.574219 79.6875 72.515625 79.753906 72.46875 C 79.816406 72.421875 79.890625 72.390625 79.96875 72.371094 C 80.054688 72.351562 80.144531 72.335938 80.234375 72.324219 C 80.417969 72.308594 80.601562 72.273438 80.777344 72.21875 L 80.777344 72.144531 C 80.785156 72.050781 80.757812 71.953125 80.691406 71.882812 C 80.59375 71.808594 80.472656 71.769531 80.347656 71.78125 C 80.238281 71.769531 80.128906 71.796875 80.035156 71.855469 C 79.957031 71.921875 79.902344 72.015625 79.882812 72.121094 L 79.589844 72.078125 C 79.609375 71.96875 79.65625 71.863281 79.71875 71.773438 C 79.796875 71.691406 79.894531 71.632812 80 71.601562 C 80.128906 71.558594 80.265625 71.539062 80.398438 71.539062 C 80.527344 71.535156 80.652344 71.554688 80.773438 71.59375 C 80.851562 71.617188 80.921875 71.664062 80.980469 71.726562 C 81.027344 71.785156 81.058594 71.855469 81.070312 71.933594 C 81.082031 72.023438 81.082031 72.117188 81.070312 72.210938 L 81.070312 72.613281 C 81.0625 72.789062 81.0625 72.96875 81.070312 73.144531 C 81.085938 73.21875 81.109375 73.292969 81.148438 73.359375 L 80.832031 73.359375 C 80.808594 73.285156 80.796875 73.210938 80.800781 73.132812 Z M 80.777344 72.457031 C 80.617188 72.515625 80.453125 72.554688 80.285156 72.570312 C 80.195312 72.578125 80.105469 72.601562 80.019531 72.632812 C 79.972656 72.652344 79.929688 72.6875 79.898438 72.726562 C 79.871094 72.769531 79.859375 72.820312 79.859375 72.871094 C 79.859375 72.949219 79.890625 73.027344 79.953125 73.074219 C 80.027344 73.132812 80.121094 73.160156 80.214844 73.15625 C 80.324219 73.15625 80.433594 73.128906 80.527344 73.078125 C 80.613281 73.03125 80.683594 72.957031 80.726562 72.867188 C 80.765625 72.773438 80.78125 72.671875 80.777344 72.566406 Z M 80.777344 72.457031 "/>
<path style=" stroke:none;fill-rule:nonzero;fill:rgb(14.901961%,19.607843%,21.960784%);fill-opacity:1;" d="M 81.5625 73.351562 L 81.5625 71.570312 L 81.835938 71.570312 L 81.835938 71.820312 C 81.890625 71.730469 81.964844 71.660156 82.054688 71.613281 C 82.152344 71.558594 82.261719 71.527344 82.371094 71.53125 C 82.484375 71.527344 82.597656 71.554688 82.695312 71.613281 C 82.78125 71.667969 82.84375 71.75 82.875 71.84375 C 82.992188 71.648438 83.203125 71.53125 83.429688 71.53125 C 83.574219 71.523438 83.71875 71.574219 83.828125 71.675781 C 83.933594 71.800781 83.984375 71.964844 83.972656 72.128906 L 83.972656 73.351562 L 83.671875 73.351562 L 83.671875 72.226562 C 83.675781 72.140625 83.667969 72.050781 83.644531 71.96875 C 83.625 71.914062 83.585938 71.871094 83.535156 71.839844 C 83.480469 71.808594 83.417969 71.789062 83.355469 71.792969 C 83.238281 71.789062 83.125 71.832031 83.042969 71.914062 C 82.949219 72.027344 82.90625 72.171875 82.921875 72.316406 L 82.921875 73.351562 L 82.617188 73.351562 L 82.617188 72.195312 C 82.625 72.089844 82.597656 71.984375 82.542969 71.890625 C 82.484375 71.820312 82.394531 71.78125 82.304688 71.792969 C 82.21875 71.792969 82.136719 71.816406 82.066406 71.859375 C 81.996094 71.90625 81.941406 71.972656 81.910156 72.054688 C 81.875 72.175781 81.855469 72.300781 81.859375 72.429688 L 81.859375 73.351562 Z M 81.5625 73.351562 "/>
<path style=" stroke:none;fill-rule:nonzero;fill:rgb(14.901961%,19.607843%,21.960784%);fill-opacity:1;" d="M 85.640625 72.777344 L 85.953125 72.816406 C 85.914062 72.984375 85.816406 73.132812 85.679688 73.238281 C 85.328125 73.472656 84.863281 73.433594 84.550781 73.152344 C 84.390625 72.964844 84.308594 72.722656 84.324219 72.476562 C 84.308594 72.222656 84.390625 71.972656 84.550781 71.78125 C 84.707031 71.617188 84.925781 71.527344 85.152344 71.53125 C 85.371094 71.523438 85.585938 71.609375 85.734375 71.773438 C 85.898438 71.960938 85.980469 72.207031 85.964844 72.457031 C 85.964844 72.484375 85.964844 72.507812 85.964844 72.535156 L 84.640625 72.535156 C 84.636719 72.703125 84.695312 72.863281 84.804688 72.988281 C 84.898438 73.089844 85.035156 73.148438 85.175781 73.144531 C 85.277344 73.144531 85.378906 73.113281 85.460938 73.054688 C 85.546875 72.980469 85.609375 72.882812 85.640625 72.777344 Z M 84.652344 72.289062 L 85.644531 72.289062 C 85.640625 72.167969 85.601562 72.050781 85.53125 71.953125 C 85.441406 71.839844 85.300781 71.773438 85.15625 71.78125 C 85.027344 71.777344 84.902344 71.824219 84.808594 71.914062 C 84.710938 72.015625 84.65625 72.148438 84.652344 72.289062 Z M 84.652344 72.289062 "/>
</g>
<mask id="mask3">
  <g filter="url(#alpha)">
<rect x="0" y="0" width="200" height="200" style="fill:rgb(0%,0%,0%);fill-opacity:0.6;stroke:none;"/>
  </g>
</mask>
<clipPath id="clip4">
  <rect x="0" y="0" width="200" height="200"/>
</clipPath>
<g id="surface14" clip-path="url(#clip4)">
<path style=" stroke:none;fill-rule:nonzero;fill:rgb(14.901961%,19.607843%,21.960784%);fill-opacity:1;" d="M 70.167969 84.148438 L 70.167969 81.691406 L 71.945312 81.691406 L 71.945312 82 L 70.492188 82 L 70.492188 82.753906 L 71.851562 82.753906 L 71.851562 83.039062 L 70.492188 83.039062 L 70.492188 83.875 L 72 83.875 L 72 84.167969 Z M 70.167969 84.148438 "/>
<path style=" stroke:none;fill-rule:nonzero;fill:rgb(14.901961%,19.607843%,21.960784%);fill-opacity:1;" d="M 72.398438 84.148438 L 72.398438 82.367188 L 72.667969 82.367188 L 72.667969 82.617188 C 72.726562 82.53125 72.800781 82.457031 72.890625 82.40625 C 72.988281 82.355469 73.097656 82.328125 73.207031 82.328125 C 73.320312 82.324219 73.433594 82.351562 73.53125 82.40625 C 73.617188 82.464844 73.679688 82.546875 73.710938 82.640625 C 73.828125 82.445312 74.035156 82.328125 74.261719 82.328125 C 74.40625 82.320312 74.550781 82.375 74.660156 82.476562 C 74.765625 82.601562 74.816406 82.761719 74.804688 82.925781 L 74.804688 84.148438 L 74.503906 84.148438 L 74.503906 83.027344 C 74.507812 82.9375 74.496094 82.847656 74.472656 82.765625 C 74.453125 82.710938 74.414062 82.667969 74.367188 82.636719 C 74.3125 82.601562 74.25 82.585938 74.183594 82.589844 C 74.066406 82.585938 73.957031 82.632812 73.871094 82.710938 C 73.78125 82.824219 73.738281 82.96875 73.746094 83.113281 L 73.746094 84.148438 L 73.449219 84.148438 L 73.449219 82.992188 C 73.457031 82.886719 73.429688 82.78125 73.375 82.6875 C 73.316406 82.617188 73.222656 82.582031 73.132812 82.589844 C 73.046875 82.589844 72.964844 82.613281 72.894531 82.65625 C 72.824219 82.699219 72.765625 82.769531 72.738281 82.851562 C 72.703125 82.972656 72.6875 83.097656 72.691406 83.222656 L 72.691406 84.148438 Z M 72.398438 84.148438 "/>
<path style=" stroke:none;fill-rule:nonzero;fill:rgb(14.901961%,19.607843%,21.960784%);fill-opacity:1;" d="M 76.433594 83.929688 C 76.335938 84.011719 76.226562 84.082031 76.109375 84.128906 C 76.003906 84.167969 75.890625 84.1875 75.777344 84.1875 C 75.613281 84.199219 75.453125 84.148438 75.324219 84.042969 C 75.222656 83.953125 75.164062 83.816406 75.167969 83.679688 C 75.167969 83.597656 75.1875 83.511719 75.226562 83.441406 C 75.265625 83.371094 75.320312 83.308594 75.382812 83.265625 C 75.449219 83.222656 75.523438 83.1875 75.601562 83.167969 C 75.6875 83.148438 75.777344 83.128906 75.867188 83.121094 C 76.050781 83.105469 76.230469 83.070312 76.402344 83.015625 C 76.40625 82.992188 76.40625 82.964844 76.402344 82.941406 C 76.414062 82.84375 76.382812 82.75 76.316406 82.679688 C 76.21875 82.605469 76.097656 82.566406 75.976562 82.574219 C 75.867188 82.570312 75.753906 82.59375 75.660156 82.652344 C 75.582031 82.71875 75.527344 82.8125 75.511719 82.914062 L 75.214844 82.875 C 75.238281 82.765625 75.28125 82.660156 75.347656 82.566406 C 75.417969 82.484375 75.511719 82.425781 75.617188 82.390625 C 75.746094 82.347656 75.878906 82.324219 76.015625 82.328125 C 76.140625 82.324219 76.269531 82.339844 76.386719 82.378906 C 76.46875 82.40625 76.542969 82.453125 76.601562 82.515625 C 76.644531 82.578125 76.675781 82.644531 76.691406 82.71875 C 76.699219 82.8125 76.699219 82.90625 76.691406 83 L 76.691406 83.398438 C 76.683594 83.578125 76.691406 83.753906 76.710938 83.933594 C 76.722656 84.007812 76.75 84.082031 76.789062 84.148438 L 76.472656 84.148438 C 76.445312 84.078125 76.433594 84.003906 76.433594 83.929688 Z M 76.402344 83.257812 C 76.246094 83.3125 76.078125 83.347656 75.910156 83.367188 C 75.824219 83.378906 75.738281 83.398438 75.652344 83.429688 C 75.601562 83.449219 75.5625 83.484375 75.53125 83.527344 C 75.503906 83.570312 75.488281 83.617188 75.488281 83.667969 C 75.488281 83.746094 75.519531 83.820312 75.578125 83.871094 C 75.65625 83.929688 75.75 83.957031 75.847656 83.953125 C 75.957031 83.953125 76.0625 83.925781 76.15625 83.875 C 76.242188 83.832031 76.3125 83.757812 76.355469 83.667969 C 76.394531 83.570312 76.410156 83.46875 76.402344 83.363281 Z M 76.402344 83.257812 "/>
<path style=" stroke:none;fill-rule:nonzero;fill:rgb(14.901961%,19.607843%,21.960784%);fill-opacity:1;" d="M 77.199219 82.035156 L 77.199219 81.691406 L 77.503906 81.691406 L 77.503906 82.035156 Z M 77.199219 84.148438 L 77.199219 82.367188 L 77.503906 82.367188 L 77.503906 84.148438 Z M 77.199219 84.148438 "/>
<path style=" stroke:none;fill-rule:nonzero;fill:rgb(14.901961%,19.607843%,21.960784%);fill-opacity:1;" d="M 77.9375 84.148438 L 77.9375 81.691406 L 78.234375 81.691406 L 78.234375 84.148438 Z M 77.9375 84.148438 "/>
</g>
<mask id="mask4">
  <g filter="url(#alpha)">
<rect x="0" y="0" width="200" height="200" style="fill:rgb(0%,0%,0%);fill-opacity:0.6;stroke:none;"/>
  </g>
</mask>
<clipPath id="clip5">
  <rect x="0" y="0" width="200" height="200"/>
</clipPath>
<g id="surface17" clip-path="url(#clip5)">
<path style=" stroke:none;fill-rule:nonzero;fill:rgb(14.901961%,19.607843%,21.960784%);fill-opacity:1;" d="M 114.457031 73.351562 L 114.457031 70.890625 L 114.800781 70.890625 L 114.800781 73.058594 L 116 73.058594 L 116 73.351562 Z M 114.457031 73.351562 "/>
<path style=" stroke:none;fill-rule:nonzero;fill:rgb(14.901961%,19.607843%,21.960784%);fill-opacity:1;" d="M 117.5 73.132812 C 117.402344 73.214844 117.292969 73.28125 117.175781 73.332031 C 117.070312 73.371094 116.957031 73.394531 116.84375 73.390625 C 116.679688 73.402344 116.519531 73.351562 116.390625 73.246094 C 116.226562 73.089844 116.1875 72.84375 116.296875 72.644531 C 116.332031 72.574219 116.386719 72.515625 116.453125 72.46875 C 116.519531 72.421875 116.589844 72.390625 116.667969 72.371094 C 116.757812 72.351562 116.847656 72.335938 116.9375 72.324219 C 117.117188 72.308594 117.300781 72.273438 117.476562 72.21875 L 117.476562 72.144531 C 117.488281 72.050781 117.457031 71.953125 117.390625 71.882812 C 117.292969 71.808594 117.171875 71.773438 117.046875 71.78125 C 116.9375 71.769531 116.828125 71.796875 116.730469 71.855469 C 116.652344 71.921875 116.601562 72.015625 116.585938 72.121094 L 116.289062 72.078125 C 116.308594 71.96875 116.355469 71.863281 116.421875 71.773438 C 116.492188 71.691406 116.585938 71.628906 116.6875 71.59375 C 116.816406 71.550781 116.953125 71.53125 117.089844 71.53125 C 117.210938 71.527344 117.335938 71.542969 117.457031 71.585938 C 117.539062 71.609375 117.609375 71.65625 117.667969 71.71875 C 117.714844 71.777344 117.746094 71.847656 117.761719 71.925781 C 117.769531 72.015625 117.769531 72.109375 117.761719 72.203125 L 117.761719 72.605469 C 117.753906 72.78125 117.761719 72.960938 117.78125 73.136719 C 117.792969 73.210938 117.816406 73.285156 117.855469 73.351562 L 117.539062 73.351562 C 117.511719 73.28125 117.5 73.207031 117.5 73.132812 Z M 117.476562 72.457031 C 117.316406 72.515625 117.152344 72.554688 116.984375 72.570312 C 116.894531 72.578125 116.804688 72.597656 116.71875 72.632812 C 116.671875 72.652344 116.628906 72.6875 116.601562 72.726562 C 116.570312 72.769531 116.554688 72.820312 116.554688 72.871094 C 116.554688 72.949219 116.589844 73.023438 116.648438 73.074219 C 116.726562 73.132812 116.820312 73.164062 116.914062 73.15625 C 117.023438 73.15625 117.132812 73.128906 117.226562 73.078125 C 117.3125 73.03125 117.382812 72.957031 117.429688 72.867188 C 117.464844 72.773438 117.480469 72.671875 117.476562 72.566406 Z M 117.476562 72.457031 "/>
<path style=" stroke:none;fill-rule:nonzero;fill:rgb(14.901961%,19.607843%,21.960784%);fill-opacity:1;" d="M 118.128906 72.820312 L 118.425781 72.773438 C 118.433594 72.878906 118.480469 72.976562 118.5625 73.046875 C 118.65625 73.117188 118.769531 73.152344 118.882812 73.144531 C 118.992188 73.152344 119.101562 73.125 119.191406 73.058594 C 119.253906 73.011719 119.292969 72.9375 119.296875 72.859375 C 119.296875 72.792969 119.261719 72.730469 119.203125 72.699219 C 119.105469 72.652344 119.003906 72.617188 118.894531 72.597656 C 118.738281 72.558594 118.585938 72.511719 118.4375 72.453125 C 118.355469 72.417969 118.289062 72.359375 118.242188 72.285156 C 118.199219 72.210938 118.175781 72.128906 118.175781 72.042969 C 118.171875 71.886719 118.25 71.734375 118.378906 71.644531 C 118.4375 71.605469 118.503906 71.574219 118.570312 71.554688 C 118.65625 71.53125 118.742188 71.519531 118.832031 71.519531 C 118.957031 71.515625 119.082031 71.539062 119.199219 71.578125 C 119.292969 71.609375 119.375 71.667969 119.433594 71.742188 C 119.488281 71.824219 119.527344 71.921875 119.535156 72.019531 L 119.242188 72.058594 C 119.234375 71.976562 119.191406 71.898438 119.125 71.84375 C 119.046875 71.785156 118.949219 71.757812 118.851562 71.769531 C 118.75 71.757812 118.644531 71.78125 118.554688 71.835938 C 118.503906 71.871094 118.46875 71.929688 118.46875 71.996094 C 118.46875 72.035156 118.480469 72.070312 118.503906 72.101562 C 118.535156 72.136719 118.574219 72.167969 118.621094 72.183594 L 118.886719 72.261719 C 119.039062 72.296875 119.1875 72.34375 119.332031 72.398438 C 119.414062 72.429688 119.480469 72.484375 119.53125 72.554688 C 119.582031 72.632812 119.605469 72.722656 119.605469 72.816406 C 119.605469 72.917969 119.574219 73.015625 119.515625 73.101562 C 119.453125 73.191406 119.367188 73.261719 119.265625 73.304688 C 119.144531 73.355469 119.015625 73.382812 118.886719 73.378906 C 118.699219 73.394531 118.515625 73.34375 118.359375 73.234375 C 118.234375 73.132812 118.152344 72.984375 118.128906 72.820312 Z M 118.128906 72.820312 "/>
<path style=" stroke:none;fill-rule:nonzero;fill:rgb(14.901961%,19.607843%,21.960784%);fill-opacity:1;" d="M 120.621094 73.078125 L 120.664062 73.347656 C 120.589844 73.363281 120.511719 73.375 120.4375 73.375 C 120.347656 73.378906 120.261719 73.363281 120.183594 73.324219 C 120.128906 73.292969 120.082031 73.242188 120.054688 73.183594 C 120.023438 73.066406 120.011719 72.949219 120.019531 72.828125 L 120.019531 71.804688 L 119.796875 71.804688 L 119.796875 71.570312 L 120.019531 71.570312 L 120.019531 71.132812 L 120.320312 70.949219 L 120.320312 71.570312 L 120.621094 71.570312 L 120.621094 71.804688 L 120.320312 71.804688 L 120.320312 72.847656 C 120.308594 72.902344 120.308594 72.957031 120.320312 73.011719 C 120.332031 73.035156 120.347656 73.058594 120.367188 73.070312 C 120.402344 73.078125 120.4375 73.078125 120.472656 73.070312 Z M 120.621094 73.078125 "/>
<path style=" stroke:none;fill-rule:nonzero;fill:rgb(14.901961%,19.607843%,21.960784%);fill-opacity:1;" d="M 121.867188 73.351562 L 121.867188 71.570312 L 122.140625 71.570312 L 122.140625 71.824219 C 122.265625 71.632812 122.480469 71.519531 122.707031 71.53125 C 122.808594 71.53125 122.910156 71.546875 123.003906 71.589844 C 123.082031 71.621094 123.152344 71.671875 123.203125 71.738281 C 123.25 71.808594 123.285156 71.882812 123.300781 71.964844 C 123.308594 72.0625 123.308594 72.160156 123.300781 72.257812 L 123.300781 73.351562 L 123 73.351562 L 123 72.269531 C 123.003906 72.175781 122.992188 72.082031 122.964844 71.992188 C 122.941406 71.929688 122.894531 71.878906 122.839844 71.847656 C 122.777344 71.808594 122.703125 71.789062 122.628906 71.792969 C 122.503906 71.789062 122.386719 71.832031 122.296875 71.914062 C 122.1875 72.042969 122.136719 72.210938 122.15625 72.378906 L 122.15625 73.351562 Z M 121.867188 73.351562 "/>
<path style=" stroke:none;fill-rule:nonzero;fill:rgb(14.901961%,19.607843%,21.960784%);fill-opacity:1;" d="M 124.941406 73.132812 C 124.84375 73.214844 124.734375 73.28125 124.617188 73.332031 C 124.511719 73.371094 124.398438 73.394531 124.285156 73.390625 C 124.121094 73.402344 123.960938 73.351562 123.835938 73.246094 C 123.730469 73.15625 123.671875 73.019531 123.675781 72.878906 C 123.675781 72.796875 123.695312 72.714844 123.734375 72.644531 C 123.773438 72.574219 123.828125 72.515625 123.890625 72.46875 C 123.957031 72.421875 124.03125 72.390625 124.109375 72.371094 C 124.195312 72.351562 124.285156 72.335938 124.375 72.324219 C 124.558594 72.308594 124.738281 72.273438 124.914062 72.21875 L 124.914062 72.144531 C 124.925781 72.050781 124.894531 71.953125 124.832031 71.882812 C 124.734375 71.808594 124.613281 71.769531 124.488281 71.78125 C 124.378906 71.769531 124.265625 71.796875 124.171875 71.855469 C 124.09375 71.921875 124.039062 72.015625 124.023438 72.121094 L 123.726562 72.078125 C 123.75 71.96875 123.792969 71.863281 123.859375 71.773438 C 123.933594 71.691406 124.023438 71.628906 124.128906 71.59375 C 124.257812 71.550781 124.390625 71.53125 124.527344 71.53125 C 124.652344 71.527344 124.78125 71.546875 124.898438 71.585938 C 124.980469 71.609375 125.050781 71.65625 125.109375 71.71875 C 125.15625 71.777344 125.1875 71.847656 125.199219 71.925781 C 125.207031 72.015625 125.207031 72.109375 125.199219 72.203125 L 125.199219 72.605469 C 125.195312 72.78125 125.203125 72.960938 125.21875 73.136719 C 125.230469 73.210938 125.257812 73.285156 125.296875 73.351562 L 124.980469 73.351562 C 124.953125 73.28125 124.941406 73.207031 124.941406 73.132812 Z M 124.914062 72.457031 C 124.757812 72.515625 124.59375 72.554688 124.425781 72.570312 C 124.332031 72.578125 124.246094 72.601562 124.160156 72.632812 C 124.113281 72.652344 124.070312 72.6875 124.039062 72.726562 C 124.011719 72.769531 124 72.820312 124 72.871094 C 124 72.949219 124.03125 73.023438 124.089844 73.074219 C 124.164062 73.132812 124.261719 73.164062 124.355469 73.15625 C 124.464844 73.15625 124.570312 73.128906 124.667969 73.078125 C 124.753906 73.03125 124.824219 72.957031 124.867188 72.867188 C 124.90625 72.773438 124.921875 72.671875 124.914062 72.566406 Z M 124.914062 72.457031 "/>
<path style=" stroke:none;fill-rule:nonzero;fill:rgb(14.901961%,19.607843%,21.960784%);fill-opacity:1;" d="M 125.6875 73.351562 L 125.6875 71.570312 L 125.957031 71.570312 L 125.957031 71.820312 C 126.011719 71.734375 126.089844 71.660156 126.179688 71.613281 C 126.277344 71.558594 126.386719 71.527344 126.496094 71.53125 C 126.609375 71.527344 126.722656 71.554688 126.820312 71.613281 C 126.902344 71.667969 126.96875 71.75 127 71.84375 C 127.113281 71.648438 127.324219 71.53125 127.546875 71.53125 C 127.695312 71.523438 127.839844 71.578125 127.949219 71.675781 C 128.054688 71.800781 128.105469 71.964844 128.09375 72.128906 L 128.09375 73.351562 L 127.792969 73.351562 L 127.792969 72.226562 C 127.796875 72.140625 127.785156 72.050781 127.761719 71.96875 C 127.742188 71.914062 127.707031 71.867188 127.65625 71.839844 C 127.601562 71.808594 127.539062 71.789062 127.476562 71.792969 C 127.359375 71.785156 127.246094 71.832031 127.164062 71.914062 C 127.070312 72.027344 127.027344 72.171875 127.039062 72.316406 L 127.039062 73.351562 L 126.734375 73.351562 L 126.734375 72.195312 C 126.742188 72.089844 126.71875 71.984375 126.664062 71.890625 C 126.605469 71.820312 126.515625 71.785156 126.425781 71.792969 C 126.339844 71.792969 126.257812 71.816406 126.1875 71.859375 C 126.113281 71.90625 126.058594 71.976562 126.027344 72.054688 C 125.992188 72.175781 125.972656 72.300781 125.980469 72.429688 L 125.980469 73.351562 Z M 125.6875 73.351562 "/>
<path style=" stroke:none;fill-rule:nonzero;fill:rgb(14.901961%,19.607843%,21.960784%);fill-opacity:1;" d="M 129.765625 72.777344 L 130.074219 72.816406 C 130.035156 72.984375 129.941406 73.132812 129.804688 73.238281 C 129.65625 73.34375 129.476562 73.398438 129.296875 73.390625 C 129.0625 73.40625 128.839844 73.316406 128.675781 73.152344 C 128.515625 72.964844 128.433594 72.722656 128.449219 72.476562 C 128.433594 72.222656 128.511719 71.972656 128.675781 71.78125 C 128.832031 71.617188 129.050781 71.527344 129.277344 71.53125 C 129.496094 71.523438 129.707031 71.613281 129.859375 71.773438 C 130.019531 71.960938 130.101562 72.207031 130.089844 72.457031 C 130.089844 72.476562 130.089844 72.503906 130.089844 72.535156 L 128.761719 72.535156 C 128.761719 72.703125 128.820312 72.863281 128.929688 72.988281 C 129.023438 73.089844 129.160156 73.148438 129.300781 73.144531 C 129.402344 73.144531 129.5 73.113281 129.585938 73.054688 C 129.667969 72.980469 129.730469 72.882812 129.765625 72.777344 Z M 128.777344 72.289062 L 129.769531 72.289062 C 129.765625 72.167969 129.726562 72.050781 129.65625 71.953125 C 129.5625 71.839844 129.425781 71.777344 129.28125 71.78125 C 129.148438 71.777344 129.023438 71.824219 128.933594 71.914062 C 128.835938 72.015625 128.777344 72.148438 128.777344 72.289062 Z M 128.777344 72.289062 "/>
</g>
<mask id="mask5">
  <g filter="url(#alpha)">
<rect x="0" y="0" width="200" height="200" style="fill:rgb(0%,0%,0%);fill-opacity:0.2;stroke:none;"/>
  </g>
</mask>
<clipPath id="clip6">
  <rect x="0" y="0" width="200" height="200"/>
</clipPath>
<g id="surface20" clip-path="url(#clip6)">
<path style=" stroke:none;fill-rule:nonzero;fill:rgb(47.058824%,71.764706%,73.333333%);fill-opacity:1;" d="M 141.457031 97.5625 L 155.136719 97.5625 C 156.34375 97.5625 157.320312 98.542969 157.320312 99.746094 L 157.320312 102.21875 C 157.320312 103.425781 156.34375 104.402344 155.136719 104.402344 L 141.457031 104.402344 C 140.25 104.402344 139.273438 103.425781 139.273438 102.21875 L 139.273438 99.746094 C 139.273438 98.542969 140.25 97.5625 141.457031 97.5625 Z M 141.457031 97.5625 "/>
</g>
<mask id="mask6">
  <g filter="url(#alpha)">
<rect x="0" y="0" width="200" height="200" style="fill:rgb(0%,0%,0%);fill-opacity:0.2;stroke:none;"/>
  </g>
</mask>
<clipPath id="clip7">
  <rect x="0" y="0" width="200" height="200"/>
</clipPath>
<g id="surface23" clip-path="url(#clip7)">
<path style=" stroke:none;fill-rule:nonzero;fill:rgb(0%,0%,0%);fill-opacity:1;" d="M 59.058594 152.53125 L 56.277344 154.136719 L 58.390625 157.324219 L 61.175781 155.71875 Z M 59.058594 152.53125 "/>
</g>
<mask id="mask7">
  <g filter="url(#alpha)">
<rect x="0" y="0" width="200" height="200" style="fill:rgb(0%,0%,0%);fill-opacity:0.301961;stroke:none;"/>
  </g>
</mask>
<clipPath id="clip8">
  <rect x="0" y="0" width="200" height="200"/>
</clipPath>
<g id="surface26" clip-path="url(#clip8)">
<path style=" stroke:none;fill-rule:nonzero;fill:rgb(100%,100%,100%);fill-opacity:1;" d="M 43.601562 80.777344 C 43.601562 80.777344 36.863281 107.269531 36.160156 116.425781 C 35.390625 126.449219 56.695312 156.976562 56.695312 156.976562 L 61.894531 154.246094 C 61.894531 154.246094 52.03125 136.835938 45.453125 117.148438 C 48.652344 106.847656 55.007812 81.648438 55.007812 81.648438 Z M 43.601562 80.777344 "/>
</g>
<mask id="mask8">
  <g filter="url(#alpha)">
<rect x="0" y="0" width="200" height="200" style="fill:rgb(0%,0%,0%);fill-opacity:0.4;stroke:none;"/>
  </g>
</mask>
<clipPath id="clip9">
  <rect x="0" y="0" width="200" height="200"/>
</clipPath>
<g id="surface29" clip-path="url(#clip9)">
<path style=" stroke:none;fill-rule:nonzero;fill:rgb(47.058824%,71.764706%,73.333333%);fill-opacity:1;" d="M 49.566406 91.199219 C 46.925781 95.832031 46.03125 106.894531 46.710938 112.941406 C 48.558594 106.503906 50.886719 97.671875 52.613281 91.035156 C 51.453125 90.128906 50.3125 89.878906 49.566406 91.199219 Z M 49.566406 91.199219 "/>
</g>
<mask id="mask9">
  <g filter="url(#alpha)">
<rect x="0" y="0" width="200" height="200" style="fill:rgb(0%,0%,0%);fill-opacity:0.301961;stroke:none;"/>
  </g>
</mask>
<clipPath id="clip10">
  <rect x="0" y="0" width="200" height="200"/>
</clipPath>
<g id="surface32" clip-path="url(#clip10)">
<path style=" stroke:none;fill-rule:nonzero;fill:rgb(0%,0%,0%);fill-opacity:1;" d="M 46.027344 56.925781 C 48.1875 55.523438 45.183594 62.097656 43.949219 64.824219 L 42.027344 63.332031 C 42.542969 61.382812 44.367188 58 46.027344 56.925781 Z M 46.027344 56.925781 "/>
</g>
<mask id="mask10">
  <g filter="url(#alpha)">
<rect x="0" y="0" width="200" height="200" style="fill:rgb(0%,0%,0%);fill-opacity:0.2;stroke:none;"/>
  </g>
</mask>
<clipPath id="clip11">
  <rect x="0" y="0" width="200" height="200"/>
</clipPath>
<g id="surface35" clip-path="url(#clip11)">
<path style=" stroke:none;fill-rule:nonzero;fill:rgb(0%,0%,0%);fill-opacity:1;" d="M 55.246094 155.820312 L 52.050781 155.574219 L 52.003906 159.40625 L 55.203125 159.652344 Z M 55.246094 155.820312 "/>
</g>
<mask id="mask11">
  <g filter="url(#alpha)">
<rect x="0" y="0" width="200" height="200" style="fill:rgb(0%,0%,0%);fill-opacity:0.301961;stroke:none;"/>
  </g>
</mask>
<clipPath id="clip12">
  <rect x="0" y="0" width="200" height="200"/>
</clipPath>
<g id="surface38" clip-path="url(#clip12)">
<path style=" stroke:none;fill-rule:nonzero;fill:rgb(100%,100%,100%);fill-opacity:1;" d="M 49.835938 81.253906 C 49.835938 81.253906 47.875 105.5 47.769531 114.695312 C 47.648438 124.765625 50.695312 158.382812 50.695312 158.382812 L 56.550781 158.832031 C 56.550781 158.832031 56.113281 126.222656 57.144531 116.324219 C 58.265625 105.578125 60.6875 82.078125 60.6875 82.078125 Z M 49.835938 81.253906 "/>
</g>
<mask id="mask12">
  <g filter="url(#alpha)">
<rect x="0" y="0" width="200" height="200" style="fill:rgb(0%,0%,0%);fill-opacity:0.301961;stroke:none;"/>
  </g>
</mask>
<clipPath id="clip13">
  <rect x="0" y="0" width="200" height="200"/>
</clipPath>
<g id="surface41" clip-path="url(#clip13)">
<path style=" stroke:none;fill-rule:nonzero;fill:rgb(0%,0%,0%);fill-opacity:1;" d="M 46.820312 69.894531 L 50.367188 70.167969 L 48.445312 62.976562 L 44.894531 62.703125 Z M 46.820312 69.894531 "/>
</g>
<mask id="mask13">
  <g filter="url(#alpha)">
<rect x="0" y="0" width="200" height="200" style="fill:rgb(0%,0%,0%);fill-opacity:0.301961;stroke:none;"/>
  </g>
</mask>
<clipPath id="clip14">
  <rect x="0" y="0" width="200" height="200"/>
</clipPath>
<g id="surface44" clip-path="url(#clip14)">
<path style=" stroke:none;fill-rule:nonzero;fill:rgb(0%,0%,0%);fill-opacity:1;" d="M 61.601562 69.261719 C 62.082031 64.585938 62.96875 59.960938 64.253906 55.441406 C 63.117188 55.257812 61.15625 55.214844 60.707031 57.039062 C 60.21875 58.996094 60.339844 63.695312 61.601562 69.261719 Z M 61.601562 69.261719 "/>
</g>
<mask id="mask14">
  <g filter="url(#alpha)">
<rect x="0" y="0" width="200" height="200" style="fill:rgb(0%,0%,0%);fill-opacity:0.2;stroke:none;"/>
  </g>
</mask>
<clipPath id="clip15">
  <rect x="0" y="0" width="200" height="200"/>
</clipPath>
<g id="surface47" clip-path="url(#clip15)">
<path style=" stroke:none;fill-rule:nonzero;fill:rgb(0%,0%,0%);fill-opacity:1;" d="M 54.460938 48.5625 C 54.515625 48.921875 54.542969 49.285156 54.550781 49.648438 C 55.550781 49.523438 57.105469 48.761719 57.324219 47.648438 C 57.347656 47.285156 57.324219 46.917969 57.257812 46.558594 Z M 54.460938 48.5625 "/>
</g>
</defs>
<g id="surface1">
<path style=" stroke:none;fill-rule:nonzero;fill:rgb(92.156863%,92.156863%,92.156863%);fill-opacity:1;" d="M 0 152.960938 L 200 152.960938 L 200 153.058594 L 0 153.058594 Z M 0 152.960938 "/>
<path style=" stroke:none;fill-rule:nonzero;fill:rgb(92.156863%,92.156863%,92.156863%);fill-opacity:1;" d="M 115.359375 158.535156 L 128.609375 158.535156 L 128.609375 158.636719 L 115.359375 158.636719 Z M 115.359375 158.535156 "/>
<path style=" stroke:none;fill-rule:nonzero;fill:rgb(92.156863%,92.156863%,92.156863%);fill-opacity:1;" d="M 162.832031 157.453125 L 166.308594 157.453125 L 166.308594 157.550781 L 162.832031 157.550781 Z M 162.832031 157.453125 "/>
<path style=" stroke:none;fill-rule:nonzero;fill:rgb(92.156863%,92.156863%,92.156863%);fill-opacity:1;" d="M 131.066406 155.683594 L 158.636719 155.683594 L 158.636719 155.785156 L 131.066406 155.785156 Z M 131.066406 155.683594 "/>
<path style=" stroke:none;fill-rule:nonzero;fill:rgb(92.156863%,92.156863%,92.156863%);fill-opacity:1;" d="M 77.9375 158.042969 L 90.054688 158.042969 L 90.054688 158.144531 L 77.9375 158.144531 Z M 77.9375 158.042969 "/>
<path style=" stroke:none;fill-rule:nonzero;fill:rgb(92.156863%,92.156863%,92.156863%);fill-opacity:1;" d="M 66.6875 158.042969 L 74.375 158.042969 L 74.375 158.144531 L 66.6875 158.144531 Z M 66.6875 158.042969 "/>
<path style=" stroke:none;fill-rule:nonzero;fill:rgb(92.156863%,92.156863%,92.156863%);fill-opacity:1;" d="M 20.984375 156.355469 L 39.71875 156.355469 L 39.71875 156.457031 L 20.984375 156.457031 Z M 20.984375 156.355469 "/>
<path style=" stroke:none;fill-rule:nonzero;fill:rgb(92.156863%,92.156863%,92.156863%);fill-opacity:1;" d="M 94.800781 135.121094 L 17.5625 135.121094 C 16.304688 135.117188 15.285156 134.097656 15.285156 132.835938 L 15.285156 24.265625 C 15.296875 23.011719 16.3125 22.003906 17.5625 22 L 94.800781 22 C 96.0625 22 97.085938 23.023438 97.085938 24.285156 L 97.085938 132.835938 C 97.085938 134.097656 96.0625 135.121094 94.800781 135.121094 Z M 17.5625 22.078125 C 16.359375 22.082031 15.382812 23.058594 15.382812 24.265625 L 15.382812 132.835938 C 15.382812 134.039062 16.359375 135.019531 17.5625 135.019531 L 94.800781 135.019531 C 96.003906 135.019531 96.980469 134.042969 96.984375 132.835938 L 96.984375 24.265625 C 96.980469 23.058594 96.003906 22.082031 94.800781 22.078125 Z M 17.5625 22.078125 "/>
<path style=" stroke:none;fill-rule:nonzero;fill:rgb(92.156863%,92.156863%,92.156863%);fill-opacity:1;" d="M 181.324219 135.121094 L 104.085938 135.121094 C 102.824219 135.117188 101.800781 134.097656 101.800781 132.835938 L 101.800781 24.265625 C 101.8125 23.011719 102.832031 22.003906 104.085938 22 L 181.324219 22 C 182.574219 22.003906 183.589844 23.011719 183.601562 24.265625 L 183.601562 132.835938 C 183.601562 134.09375 182.582031 135.117188 181.324219 135.121094 Z M 104.085938 22.078125 C 102.878906 22.082031 101.902344 23.058594 101.898438 24.265625 L 101.898438 132.835938 C 101.902344 134.042969 102.878906 135.019531 104.085938 135.019531 L 181.324219 135.019531 C 182.527344 135.019531 183.503906 134.042969 183.507812 132.835938 L 183.507812 24.265625 C 183.503906 23.058594 182.527344 22.082031 181.324219 22.078125 Z M 104.085938 22.078125 "/>
<path style=" stroke:none;fill-rule:nonzero;fill:rgb(90.196078%,90.196078%,90.196078%);fill-opacity:1;" d="M 91.050781 93.898438 L 22.9375 93.898438 L 22.9375 31.1875 L 91.050781 31.1875 Z M 91.050781 93.898438 "/>
<path style=" stroke:none;fill-rule:nonzero;fill:rgb(96.078431%,96.078431%,96.078431%);fill-opacity:1;" d="M 90.347656 93.898438 L 21.316406 93.898438 L 21.316406 31.1875 L 90.347656 31.1875 Z M 90.347656 93.898438 "/>
<path style=" stroke:none;fill-rule:nonzero;fill:rgb(98.039216%,98.039216%,98.039216%);fill-opacity:1;" d="M 87.449219 34.324219 L 87.449219 90.765625 L 24.21875 90.765625 L 24.21875 34.324219 Z M 87.449219 34.324219 "/>
<path style=" stroke:none;fill-rule:nonzero;fill:rgb(100%,100%,100%);fill-opacity:1;" d="M 79.636719 90.761719 L 58.371094 34.324219 L 49.421875 34.324219 L 70.683594 90.761719 Z M 79.636719 90.761719 "/>
<path style=" stroke:none;fill-rule:nonzero;fill:rgb(100%,100%,100%);fill-opacity:1;" d="M 68.144531 90.761719 L 46.882812 34.324219 L 40.71875 34.324219 L 61.980469 90.761719 Z M 68.144531 90.761719 "/>
<path style=" stroke:none;fill-rule:nonzero;fill:rgb(90.196078%,90.196078%,90.196078%);fill-opacity:1;" d="M 49.085938 34.324219 L 49.085938 90.765625 L 45.621094 90.765625 L 45.621094 34.324219 Z M 49.085938 34.324219 "/>
<path style=" stroke:none;fill-rule:nonzero;fill:rgb(90.196078%,90.196078%,90.196078%);fill-opacity:1;" d="M 68.363281 34.320312 L 68.363281 90.761719 L 64.898438 90.761719 L 64.898438 34.320312 Z M 68.363281 34.320312 "/>
<path style=" stroke:none;fill-rule:nonzero;fill:rgb(96.078431%,96.078431%,96.078431%);fill-opacity:1;" d="M 48.464844 31.988281 L 48.464844 92.746094 L 44.089844 92.746094 L 44.089844 31.988281 Z M 48.464844 31.988281 "/>
<path style=" stroke:none;fill-rule:nonzero;fill:rgb(96.078431%,96.078431%,96.078431%);fill-opacity:1;" d="M 67.738281 31.992188 L 67.738281 92.753906 L 63.363281 92.753906 L 63.363281 31.992188 Z M 67.738281 31.992188 "/>
<path style=" stroke:none;fill-rule:nonzero;fill:rgb(90.196078%,90.196078%,90.196078%);fill-opacity:1;" d="M 24.527344 34.324219 L 24.527344 90.765625 L 24.21875 90.765625 L 24.21875 34.324219 Z M 24.527344 34.324219 "/>
<path style=" stroke:none;fill-rule:nonzero;fill:rgb(92.156863%,92.156863%,92.156863%);fill-opacity:1;" d="M 108.277344 31.761719 L 178.351562 31.761719 L 178.351562 80.777344 L 108.277344 80.777344 Z M 108.277344 31.761719 "/>
<path style=" stroke:none;fill-rule:nonzero;fill:rgb(87.843137%,87.843137%,87.843137%);fill-opacity:1;" d="M 178.941406 80.777344 L 178.347656 80.777344 L 178.347656 31.761719 L 178.941406 31.761719 Z M 178.941406 80.777344 "/>
<path style=" stroke:none;fill-rule:nonzero;fill:rgb(100%,100%,100%);fill-opacity:1;" d="M 175.894531 34.210938 L 175.894531 78.320312 L 110.730469 78.320312 L 110.730469 34.210938 Z M 175.894531 34.210938 "/>
<path style=" stroke:none;fill-rule:nonzero;fill:rgb(87.843137%,87.843137%,87.843137%);fill-opacity:1;" d="M 111.21875 34.210938 L 111.21875 78.320312 L 110.730469 78.320312 L 110.730469 34.210938 Z M 111.21875 34.210938 "/>
<path style=" stroke:none;fill-rule:nonzero;fill:rgb(96.078431%,96.078431%,96.078431%);fill-opacity:1;" d="M 152.21875 38.972656 L 168.140625 38.972656 L 168.140625 61.339844 L 152.21875 61.339844 Z M 152.21875 38.972656 "/>
<path style=" stroke:none;fill-rule:nonzero;fill:rgb(96.078431%,96.078431%,96.078431%);fill-opacity:1;" d="M 115.835938 43.117188 L 131.757812 43.117188 L 131.757812 65.484375 L 115.835938 65.484375 Z M 115.835938 43.117188 "/>
<path style=" stroke:none;fill-rule:nonzero;fill:rgb(92.156863%,92.156863%,92.156863%);fill-opacity:1;" d="M 141.203125 48.679688 L 157.125 48.679688 L 157.125 71.046875 L 141.203125 71.046875 Z M 141.203125 48.679688 "/>
<path style=" stroke:none;fill-rule:nonzero;fill:rgb(96.078431%,96.078431%,96.078431%);fill-opacity:1;" d="M 129.074219 49.664062 L 135.292969 49.664062 L 135.292969 55.878906 L 129.074219 55.878906 Z M 129.074219 49.664062 "/>
<path style=" stroke:none;fill-rule:nonzero;fill:rgb(94.117647%,94.117647%,94.117647%);fill-opacity:1;" d="M 127.273438 62.375 L 133.488281 62.375 L 133.488281 68.59375 L 127.273438 68.59375 Z M 127.273438 62.375 "/>
<path style=" stroke:none;fill-rule:nonzero;fill:rgb(87.843137%,87.843137%,87.843137%);fill-opacity:1;" d="M 163.640625 150.085938 C 163.640625 148.496094 164.929688 147.207031 166.515625 147.207031 C 168.105469 147.207031 169.394531 148.496094 169.390625 150.085938 C 169.390625 151.675781 168.101562 152.960938 166.511719 152.960938 C 164.925781 152.957031 163.640625 151.671875 163.640625 150.085938 Z M 163.640625 150.085938 "/>
<path style=" stroke:none;fill-rule:nonzero;fill:rgb(87.843137%,87.843137%,87.843137%);fill-opacity:1;" d="M 168.488281 150.085938 C 168.488281 148.496094 169.777344 147.207031 171.363281 147.207031 C 172.953125 147.207031 174.238281 148.496094 174.238281 150.085938 C 174.238281 151.671875 172.953125 152.960938 171.363281 152.960938 C 169.777344 152.960938 168.488281 151.671875 168.488281 150.085938 Z M 168.488281 150.085938 "/>
<path style=" stroke:none;fill-rule:nonzero;fill:rgb(87.843137%,87.843137%,87.843137%);fill-opacity:1;" d="M 89.066406 150.085938 C 89.066406 148.496094 90.355469 147.207031 91.945312 147.207031 C 93.53125 147.207031 94.820312 148.496094 94.820312 150.085938 C 94.820312 151.671875 93.53125 152.960938 91.945312 152.960938 C 90.355469 152.960938 89.066406 151.671875 89.066406 150.085938 Z M 89.066406 150.085938 "/>
<path style=" stroke:none;fill-rule:nonzero;fill:rgb(87.843137%,87.843137%,87.843137%);fill-opacity:1;" d="M 93.921875 150.085938 C 93.921875 148.496094 95.207031 147.207031 96.792969 147.207031 C 98.382812 147.207031 99.671875 148.492188 99.671875 150.082031 C 99.671875 151.667969 98.386719 152.957031 96.800781 152.960938 C 96.035156 152.960938 95.304688 152.660156 94.765625 152.117188 C 94.222656 151.578125 93.921875 150.847656 93.921875 150.085938 Z M 93.921875 150.085938 "/>
<path style=" stroke:none;fill-rule:nonzero;fill:rgb(92.156863%,92.156863%,92.156863%);fill-opacity:1;" d="M 175.414062 150.480469 L 168.613281 150.480469 L 168.613281 89.199219 L 175.414062 89.199219 Z M 175.414062 150.480469 "/>
<path style=" stroke:none;fill-rule:nonzero;fill:rgb(96.078431%,96.078431%,96.078431%);fill-opacity:1;" d="M 88.480469 89.199219 L 168.617188 89.199219 L 168.617188 150.480469 L 88.480469 150.480469 Z M 88.480469 89.199219 "/>
<path style=" stroke:none;fill-rule:nonzero;fill:rgb(92.156863%,92.156863%,92.156863%);fill-opacity:1;" d="M 91.085938 91.714844 L 166.007812 91.714844 L 166.007812 147.96875 L 91.085938 147.96875 Z M 91.085938 91.714844 "/>
<path style=" stroke:none;fill-rule:nonzero;fill:rgb(96.078431%,96.078431%,96.078431%);fill-opacity:1;" d="M 92.152344 115.371094 L 164.945312 115.371094 L 164.945312 146.929688 L 92.152344 146.929688 Z M 92.152344 115.371094 "/>
<path style=" stroke:none;fill-rule:nonzero;fill:rgb(96.078431%,96.078431%,96.078431%);fill-opacity:1;" d="M 92.152344 92.898438 L 164.945312 92.898438 L 164.945312 114.574219 L 92.152344 114.574219 Z M 92.152344 92.898438 "/>
<path style=" stroke:none;fill-rule:nonzero;fill:rgb(92.156863%,92.156863%,92.156863%);fill-opacity:1;" d="M 105.394531 115.90625 L 151.699219 115.90625 C 151.996094 115.90625 152.230469 115.667969 152.230469 115.371094 C 152.230469 115.078125 151.992188 114.84375 151.699219 114.839844 L 105.394531 114.839844 C 105.101562 114.84375 104.867188 115.078125 104.863281 115.371094 C 104.863281 115.667969 105.101562 115.90625 105.394531 115.90625 Z M 105.394531 115.90625 "/>
<path style=" stroke:none;fill-rule:nonzero;fill:rgb(92.156863%,92.156863%,92.156863%);fill-opacity:1;" d="M 105.394531 93.433594 L 151.699219 93.433594 C 151.992188 93.429688 152.230469 93.191406 152.230469 92.898438 C 152.230469 92.605469 151.996094 92.367188 151.699219 92.363281 L 105.394531 92.363281 C 105.101562 92.367188 104.863281 92.605469 104.863281 92.898438 C 104.867188 93.191406 105.101562 93.429688 105.394531 93.433594 Z M 105.394531 93.433594 "/>
<path style=" stroke:none;fill-rule:nonzero;fill:rgb(96.078431%,96.078431%,96.078431%);fill-opacity:1;" d="M 25.5625 121.667969 L 60.851562 121.667969 L 60.851562 152.957031 L 25.5625 152.957031 Z M 25.5625 121.667969 "/>
<path style=" stroke:none;fill-rule:nonzero;fill:rgb(92.156863%,92.156863%,92.156863%);fill-opacity:1;" d="M 74.566406 152.960938 L 60.851562 152.960938 L 60.851562 121.671875 L 74.566406 121.671875 Z M 74.566406 152.960938 "/>
<path style=" stroke:none;fill-rule:nonzero;fill:rgb(92.156863%,92.156863%,92.156863%);fill-opacity:1;" d="M 23.824219 116.179688 L 61.617188 116.179688 L 61.617188 121.667969 L 23.824219 121.667969 Z M 23.824219 116.179688 "/>
<path style=" stroke:none;fill-rule:nonzero;fill:rgb(87.843137%,87.843137%,87.843137%);fill-opacity:1;" d="M 76.304688 121.671875 L 61.613281 121.671875 L 61.613281 116.183594 L 76.304688 116.183594 Z M 76.304688 121.671875 "/>
<path style=" stroke:none;fill-rule:nonzero;fill:rgb(96.078431%,96.078431%,96.078431%);fill-opacity:1;" d="M 177.554688 166.496094 C 177.554688 163.996094 142.832031 161.96875 100 161.96875 C 57.167969 161.96875 22.445312 163.996094 22.445312 166.496094 C 22.445312 168.996094 57.167969 171.023438 100 171.023438 C 142.832031 171.023438 177.554688 168.996094 177.554688 166.496094 Z M 177.554688 166.496094 "/>
<path style=" stroke:none;fill-rule:nonzero;fill:rgb(47.058824%,71.764706%,73.333333%);fill-opacity:1;" d="M 163.074219 74.757812 L 163.476562 74.757812 L 163.476562 79.523438 L 163.074219 79.523438 Z M 163.074219 74.757812 "/>
<path style=" stroke:none;fill-rule:nonzero;fill:rgb(47.058824%,71.764706%,73.333333%);fill-opacity:1;" d="M 163.074219 61.101562 L 163.476562 61.101562 L 163.476562 71.421875 L 163.074219 71.421875 Z M 163.074219 61.101562 "/>
<path style=" stroke:none;fill-rule:nonzero;fill:rgb(87.843137%,87.843137%,87.843137%);fill-opacity:1;" d="M 61.761719 52.765625 L 157.667969 52.765625 C 159.246094 52.765625 160.527344 54.042969 160.527344 55.625 L 160.527344 107.214844 C 160.527344 108.796875 159.246094 110.074219 157.667969 110.074219 L 61.761719 110.074219 C 60.179688 110.074219 58.898438 108.796875 58.898438 107.214844 L 58.898438 55.625 C 58.898438 54.042969 60.179688 52.765625 61.761719 52.765625 Z M 61.761719 52.765625 "/>
<path style=" stroke:none;fill-rule:nonzero;fill:rgb(100%,100%,100%);fill-opacity:1;" d="M 63.21875 51.304688 L 159.128906 51.304688 C 160.707031 51.304688 161.988281 52.585938 161.988281 54.164062 L 161.988281 105.757812 C 161.988281 107.335938 160.707031 108.617188 159.128906 108.617188 L 63.21875 108.617188 C 61.640625 108.617188 60.359375 107.335938 60.359375 105.757812 L 60.359375 54.164062 C 60.359375 52.585938 61.640625 51.304688 63.21875 51.304688 Z M 63.21875 51.304688 "/>
<path style=" stroke:none;fill-rule:nonzero;fill:rgb(47.058824%,71.764706%,73.333333%);fill-opacity:1;" d="M 159.132812 108.800781 L 63.21875 108.800781 C 61.53125 108.796875 60.164062 107.429688 60.160156 105.738281 L 60.160156 54.140625 C 60.164062 52.449219 61.53125 51.082031 63.21875 51.078125 L 159.132812 51.078125 C 160.820312 51.082031 162.191406 52.449219 162.191406 54.140625 L 162.191406 105.738281 C 162.191406 107.429688 160.820312 108.796875 159.132812 108.800781 Z M 63.21875 51.503906 C 61.75 51.507812 60.5625 52.695312 60.558594 54.164062 L 60.558594 105.765625 C 60.5625 107.230469 61.75 108.421875 63.21875 108.425781 L 159.132812 108.425781 C 160.601562 108.421875 161.789062 107.230469 161.792969 105.765625 L 161.792969 54.164062 C 161.789062 52.695312 160.601562 51.507812 159.132812 51.503906 Z M 63.21875 51.503906 "/>
<path style=" stroke:none;fill-rule:nonzero;fill:rgb(87.843137%,87.843137%,87.843137%);fill-opacity:1;" d="M 105.121094 76.195312 L 68.15625 76.195312 C 67.332031 76.195312 66.667969 75.527344 66.667969 74.703125 L 66.667969 69.601562 C 66.667969 68.777344 67.332031 68.109375 68.15625 68.109375 L 105.121094 68.109375 C 105.941406 68.109375 106.609375 68.777344 106.609375 69.601562 L 106.609375 74.691406 C 106.609375 75.089844 106.457031 75.472656 106.175781 75.753906 C 105.898438 76.035156 105.515625 76.195312 105.121094 76.195312 Z M 68.15625 68.519531 C 67.554688 68.523438 67.066406 69.011719 67.066406 69.613281 L 67.066406 74.703125 C 67.066406 74.992188 67.179688 75.269531 67.386719 75.476562 C 67.589844 75.679688 67.867188 75.796875 68.15625 75.796875 L 105.121094 75.796875 C 105.410156 75.796875 105.6875 75.679688 105.890625 75.476562 C 106.09375 75.269531 106.210938 74.992188 106.207031 74.703125 L 106.207031 69.601562 C 106.207031 69 105.722656 68.511719 105.121094 68.507812 Z M 68.15625 68.519531 "/>
<path style=" stroke:none;fill-rule:nonzero;fill:rgb(87.843137%,87.843137%,87.843137%);fill-opacity:1;" d="M 124.59375 86.992188 L 68.15625 86.992188 C 67.335938 86.988281 66.671875 86.324219 66.667969 85.503906 L 66.667969 80.398438 C 66.667969 79.578125 67.332031 78.910156 68.15625 78.90625 L 124.59375 78.90625 C 125.414062 78.910156 126.078125 79.578125 126.078125 80.398438 L 126.078125 85.496094 C 126.082031 86.320312 125.414062 86.988281 124.59375 86.992188 Z M 68.15625 79.316406 C 67.554688 79.316406 67.066406 79.804688 67.066406 80.40625 L 67.066406 85.503906 C 67.066406 86.105469 67.554688 86.59375 68.15625 86.59375 L 124.59375 86.59375 C 125.191406 86.59375 125.679688 86.105469 125.679688 85.503906 L 125.679688 80.398438 C 125.679688 79.796875 125.195312 79.308594 124.59375 79.308594 Z M 68.15625 79.316406 "/>
<path style=" stroke:none;fill-rule:nonzero;fill:rgb(87.843137%,87.843137%,87.843137%);fill-opacity:1;" d="M 68.585938 84.558594 C 68.472656 84.558594 68.382812 84.46875 68.382812 84.359375 L 68.382812 81.558594 C 68.382812 81.449219 68.472656 81.359375 68.585938 81.359375 C 68.695312 81.359375 68.785156 81.449219 68.785156 81.558594 L 68.785156 84.359375 C 68.785156 84.46875 68.695312 84.558594 68.585938 84.558594 Z M 68.585938 84.558594 "/>
<path style=" stroke:none;fill-rule:nonzero;fill:rgb(87.843137%,87.843137%,87.843137%);fill-opacity:1;" d="M 149.429688 76.195312 L 112.464844 76.195312 C 111.640625 76.195312 110.976562 75.527344 110.976562 74.703125 L 110.976562 69.601562 C 110.976562 68.777344 111.640625 68.109375 112.464844 68.109375 L 149.429688 68.109375 C 150.25 68.109375 150.914062 68.777344 150.914062 69.601562 L 150.914062 74.691406 C 150.917969 75.089844 150.765625 75.472656 150.484375 75.753906 C 150.207031 76.035156 149.824219 76.195312 149.429688 76.195312 Z M 112.464844 68.519531 C 111.863281 68.523438 111.375 69.011719 111.375 69.613281 L 111.375 74.703125 C 111.375 74.992188 111.488281 75.269531 111.691406 75.476562 C 111.898438 75.679688 112.175781 75.796875 112.464844 75.796875 L 149.429688 75.796875 C 149.71875 75.796875 149.996094 75.679688 150.199219 75.476562 C 150.402344 75.269531 150.515625 74.992188 150.515625 74.703125 L 150.515625 69.601562 C 150.515625 69 150.03125 68.511719 149.429688 68.507812 Z M 112.464844 68.519531 "/>
<use xlink:href="#surface5" mask="url(#mask0)"/>
<use xlink:href="#surface8" mask="url(#mask1)"/>
<path style=" stroke:none;fill-rule:nonzero;fill:rgb(47.058824%,71.764706%,73.333333%);fill-opacity:1;" d="M 69.515625 92.15625 C 69.515625 92.886719 68.921875 93.480469 68.191406 93.480469 C 67.460938 93.480469 66.867188 92.886719 66.867188 92.15625 C 66.867188 91.425781 67.460938 90.832031 68.191406 90.832031 C 68.921875 90.832031 69.515625 91.425781 69.515625 92.15625 Z M 69.515625 92.15625 "/>
<path style=" stroke:none;fill-rule:nonzero;fill:rgb(87.843137%,87.843137%,87.843137%);fill-opacity:1;" d="M 112.890625 73.765625 C 112.78125 73.765625 112.691406 73.675781 112.691406 73.5625 L 112.691406 70.765625 C 112.691406 70.652344 112.78125 70.5625 112.890625 70.5625 C 113.003906 70.5625 113.09375 70.652344 113.09375 70.765625 L 113.09375 73.5625 C 113.09375 73.675781 113.003906 73.765625 112.890625 73.765625 Z M 112.890625 73.765625 "/>
<path style=" stroke:none;fill-rule:nonzero;fill:rgb(87.843137%,87.843137%,87.843137%);fill-opacity:1;" d="M 68.585938 73.765625 C 68.472656 73.765625 68.382812 73.675781 68.382812 73.5625 L 68.382812 70.765625 C 68.382812 70.652344 68.472656 70.5625 68.585938 70.5625 C 68.695312 70.5625 68.785156 70.652344 68.785156 70.765625 L 68.785156 73.5625 C 68.785156 73.675781 68.695312 73.765625 68.585938 73.765625 Z M 68.585938 73.765625 "/>
<use xlink:href="#surface11" mask="url(#mask2)"/>
<use xlink:href="#surface14" mask="url(#mask3)"/>
<use xlink:href="#surface17" mask="url(#mask4)"/>
<path style=" stroke:none;fill-rule:nonzero;fill:rgb(47.058824%,71.764706%,73.333333%);fill-opacity:1;" d="M 119.617188 97.5625 L 133.296875 97.5625 C 134.503906 97.5625 135.480469 98.542969 135.480469 99.746094 L 135.480469 102.21875 C 135.480469 103.425781 134.503906 104.402344 133.296875 104.402344 L 119.617188 104.402344 C 118.410156 104.402344 117.433594 103.425781 117.433594 102.21875 L 117.433594 99.746094 C 117.433594 98.542969 118.410156 97.5625 119.617188 97.5625 Z M 119.617188 97.5625 "/>
<use xlink:href="#surface20" mask="url(#mask5)"/>
<path style=" stroke:none;fill-rule:nonzero;fill:rgb(14.901961%,19.607843%,21.960784%);fill-opacity:1;" d="M 54.722656 34.871094 C 51.769531 34.429688 51.097656 37.113281 47.988281 37.003906 C 48.351562 38.03125 49.113281 38.867188 50.101562 39.324219 C 50.101562 39.324219 47.632812 41.117188 48.183594 43.796875 C 50.117188 41.609375 52.710938 43.683594 55.539062 43.601562 C 61.40625 43.414062 63.539062 40.699219 61.496094 38.367188 C 63.382812 35.96875 58.21875 34.695312 58.339844 32.914062 C 57.746094 33.191406 57.769531 34.328125 57.769531 34.328125 C 56.332031 34.375 54.925781 33.910156 53.800781 33.015625 C 53.722656 34.113281 54.722656 34.871094 54.722656 34.871094 Z M 54.722656 34.871094 "/>
<path style=" stroke:none;fill-rule:nonzero;fill:rgb(14.901961%,19.607843%,21.960784%);fill-opacity:1;" d="M 60.398438 38.257812 C 60.898438 38.382812 61.429688 38.28125 61.847656 37.984375 C 62.269531 37.683594 62.535156 37.21875 62.578125 36.703125 C 63.5 38.679688 62.054688 39.753906 60.398438 38.257812 Z M 60.398438 38.257812 "/>
<path style=" stroke:none;fill-rule:nonzero;fill:rgb(100%,54.509804%,48.235294%);fill-opacity:1;" d="M 63.160156 158.714844 L 60.375 160.320312 L 56.277344 154.136719 L 59.058594 152.53125 Z M 63.160156 158.714844 "/>
<path style=" stroke:none;fill-rule:nonzero;fill:rgb(14.901961%,19.607843%,21.960784%);fill-opacity:1;" d="M 60.039062 160.085938 L 63.167969 158.285156 C 63.21875 158.25 63.28125 158.238281 63.339844 158.25 C 63.398438 158.261719 63.453125 158.300781 63.484375 158.351562 L 65.085938 160.71875 C 65.160156 160.847656 65.179688 161 65.144531 161.144531 C 65.105469 161.289062 65.011719 161.414062 64.882812 161.488281 C 63.785156 162.101562 63.226562 162.335938 61.851562 163.128906 C 61.003906 163.617188 57.949219 165.246094 55.691406 165.074219 C 54.378906 164.976562 54.347656 163.777344 54.914062 163.644531 C 57.464844 163.054688 59.242188 161.597656 59.671875 160.527344 C 59.746094 160.34375 59.875 160.1875 60.039062 160.085938 Z M 60.039062 160.085938 "/>
<use xlink:href="#surface23" mask="url(#mask6)"/>
<path style=" stroke:none;fill-rule:nonzero;fill:rgb(47.058824%,71.764706%,73.333333%);fill-opacity:1;" d="M 43.601562 80.777344 C 43.601562 80.777344 36.863281 107.269531 36.160156 116.425781 C 35.390625 126.449219 56.695312 156.976562 56.695312 156.976562 L 61.894531 154.246094 C 61.894531 154.246094 52.03125 136.835938 45.453125 117.148438 C 48.652344 106.847656 55.007812 81.648438 55.007812 81.648438 Z M 43.601562 80.777344 "/>
<use xlink:href="#surface26" mask="url(#mask7)"/>
<use xlink:href="#surface29" mask="url(#mask8)"/>
<path style=" stroke:none;fill-rule:nonzero;fill:rgb(47.058824%,71.764706%,73.333333%);fill-opacity:1;" d="M 62.089844 154.230469 L 56.507812 157.15625 L 54.890625 155.285156 L 61.503906 152.339844 Z M 62.089844 154.230469 "/>
<path style=" stroke:none;fill-rule:nonzero;fill:rgb(47.058824%,71.764706%,73.333333%);fill-opacity:1;" d="M 59.335938 161.132812 C 59.582031 160.980469 59.8125 160.804688 60.019531 160.609375 C 60.035156 160.582031 60.035156 160.554688 60.019531 160.527344 C 60.011719 160.5 59.984375 160.480469 59.957031 160.480469 C 59.832031 160.480469 58.730469 160.386719 58.46875 160.714844 C 58.40625 160.792969 58.390625 160.894531 58.425781 160.984375 C 58.453125 161.128906 58.5625 161.246094 58.707031 161.289062 C 58.929688 161.316406 59.152344 161.261719 59.335938 161.132812 Z M 59.789062 160.617188 C 59.347656 161.015625 58.988281 161.195312 58.769531 161.144531 C 58.679688 161.125 58.625 161.054688 58.589844 160.941406 C 58.5625 160.898438 58.5625 160.847656 58.589844 160.808594 C 58.746094 160.632812 59.34375 160.601562 59.789062 160.617188 Z M 59.789062 160.617188 "/>
<path style=" stroke:none;fill-rule:nonzero;fill:rgb(47.058824%,71.764706%,73.333333%);fill-opacity:1;" d="M 60 160.617188 L 60.023438 160.59375 C 60.035156 160.570312 60.035156 160.542969 60.023438 160.519531 C 60.023438 160.484375 59.625 159.65625 59.167969 159.546875 C 59.054688 159.523438 58.933594 159.546875 58.839844 159.617188 C 58.730469 159.6875 58.679688 159.824219 58.71875 159.949219 C 58.832031 160.289062 59.585938 160.625 59.957031 160.628906 C 59.972656 160.628906 59.988281 160.625 60 160.617188 Z M 58.964844 159.714844 C 59.015625 159.6875 59.078125 159.679688 59.136719 159.691406 C 59.394531 159.757812 59.6875 160.199219 59.832031 160.464844 C 59.472656 160.398438 58.941406 160.125 58.863281 159.898438 C 58.863281 159.859375 58.863281 159.804688 58.9375 159.734375 Z M 58.964844 159.714844 "/>
<path style=" stroke:none;fill-rule:nonzero;fill:rgb(100%,54.509804%,48.235294%);fill-opacity:1;" d="M 48.359375 58.042969 L 45.46875 63.019531 C 44.992188 63.847656 44.523438 64.675781 44.089844 65.488281 C 43.871094 65.886719 43.6875 66.289062 43.484375 66.6875 C 43.28125 67.089844 43.132812 67.464844 43.058594 67.660156 L 42.902344 66.179688 C 42.945312 66.363281 42.96875 66.550781 43.003906 66.722656 C 43.039062 66.894531 43.0625 67.074219 43.105469 67.230469 C 43.144531 67.386719 43.171875 67.554688 43.203125 67.710938 L 43.257812 67.945312 C 43.257812 67.988281 43.257812 68.023438 43.257812 68.058594 C 43.257812 68.097656 43.257812 68.101562 43.257812 68.117188 C 43.257812 68.132812 43.257812 68.15625 43.171875 68.15625 C 43.636719 68.21875 44.027344 68.523438 44.199219 68.960938 C 44.371094 69.394531 44.292969 69.890625 43.996094 70.25 C 43.703125 70.613281 43.230469 70.785156 42.773438 70.699219 L 42.289062 70.699219 C 42.167969 70.699219 42.042969 70.671875 41.933594 70.652344 C 41.707031 70.609375 41.488281 70.550781 41.277344 70.46875 C 40.878906 70.3125 40.507812 70.109375 40.164062 69.855469 C 39.84375 69.621094 39.550781 69.351562 39.285156 69.054688 C 39.15625 68.910156 39.039062 68.765625 38.921875 68.613281 C 38.800781 68.460938 38.710938 68.308594 38.609375 68.15625 C 38.386719 67.820312 38.304688 67.410156 38.382812 67.015625 L 38.453125 66.675781 C 38.582031 66.058594 38.761719 65.453125 38.988281 64.863281 C 39.175781 64.339844 39.386719 63.851562 39.59375 63.371094 C 39.992188 62.414062 40.453125 61.5 40.914062 60.601562 C 41.378906 59.699219 41.855469 58.820312 42.347656 57.949219 C 42.839844 57.074219 43.347656 56.226562 43.898438 55.367188 C 44.667969 54.1875 46.238281 53.835938 47.4375 54.570312 C 48.636719 55.304688 49.035156 56.863281 48.332031 58.085938 Z M 48.359375 58.042969 "/>
<path style=" stroke:none;fill-rule:nonzero;fill:rgb(14.901961%,19.607843%,21.960784%);fill-opacity:1;" d="M 46.738281 53.199219 C 49.996094 52.957031 51.597656 55.257812 50.042969 59.046875 C 49.109375 61.210938 48.050781 63.316406 46.871094 65.351562 C 46.613281 65.8125 46.375 66.21875 46.179688 66.550781 L 39.65625 61.480469 C 40.925781 58.476562 44.558594 53.378906 46.738281 53.199219 Z M 46.738281 53.199219 "/>
<use xlink:href="#surface32" mask="url(#mask9)"/>
<path style=" stroke:none;fill-rule:nonzero;fill:rgb(100%,54.509804%,48.235294%);fill-opacity:1;" d="M 55.15625 163.257812 L 51.960938 163.011719 L 52.050781 155.574219 L 55.246094 155.820312 Z M 55.15625 163.257812 "/>
<path style=" stroke:none;fill-rule:nonzero;fill:rgb(14.901961%,19.607843%,21.960784%);fill-opacity:1;" d="M 51.820312 162.628906 L 55.421875 162.898438 C 55.546875 162.90625 55.644531 163.011719 55.644531 163.140625 L 55.601562 166 C 55.589844 166.148438 55.523438 166.289062 55.414062 166.386719 C 55.300781 166.488281 55.152344 166.539062 55.003906 166.527344 C 53.757812 166.410156 53.164062 166.292969 51.585938 166.171875 C 50.613281 166.097656 46.476562 165.882812 45.136719 165.773438 C 43.796875 165.660156 43.9375 164.34375 44.5 164.269531 C 47.085938 163.925781 50.296875 163.425781 51.246094 162.785156 C 51.414062 162.667969 51.617188 162.613281 51.820312 162.628906 Z M 51.820312 162.628906 "/>
<use xlink:href="#surface35" mask="url(#mask10)"/>
<path style=" stroke:none;fill-rule:nonzero;fill:rgb(47.058824%,71.764706%,73.333333%);fill-opacity:1;" d="M 49.835938 81.253906 C 49.835938 81.253906 47.875 105.5 47.769531 114.695312 C 47.648438 124.765625 50.695312 158.382812 50.695312 158.382812 L 56.550781 158.832031 C 56.550781 158.832031 56.113281 126.222656 57.144531 116.324219 C 58.265625 105.578125 60.6875 82.078125 60.6875 82.078125 Z M 49.835938 81.253906 "/>
<use xlink:href="#surface38" mask="url(#mask11)"/>
<path style=" stroke:none;fill-rule:nonzero;fill:rgb(47.058824%,71.764706%,73.333333%);fill-opacity:1;" d="M 56.789062 158.847656 L 50.464844 158.363281 L 50.265625 156.117188 L 57.21875 156.996094 Z M 56.789062 158.847656 "/>
<path style=" stroke:none;fill-rule:nonzero;fill:rgb(47.058824%,71.764706%,73.333333%);fill-opacity:1;" d="M 50.648438 163.101562 C 50.9375 163.113281 51.222656 163.09375 51.507812 163.046875 C 51.535156 163.042969 51.558594 163.023438 51.566406 162.996094 C 51.574219 162.964844 51.5625 162.933594 51.539062 162.914062 C 51.445312 162.839844 50.578125 162.152344 50.179688 162.277344 C 50.085938 162.304688 50.015625 162.378906 49.992188 162.472656 C 49.941406 162.609375 49.964844 162.761719 50.058594 162.871094 C 50.21875 163.019531 50.429688 163.101562 50.648438 163.101562 Z M 51.308594 162.925781 C 50.726562 162.996094 50.3125 162.945312 50.171875 162.789062 C 50.113281 162.710938 50.097656 162.605469 50.136719 162.515625 C 50.148438 162.46875 50.179688 162.433594 50.222656 162.414062 C 50.441406 162.351562 50.957031 162.660156 51.308594 162.925781 Z M 51.308594 162.925781 "/>
<path style=" stroke:none;fill-rule:nonzero;fill:rgb(47.058824%,71.764706%,73.333333%);fill-opacity:1;" d="M 51.488281 163.046875 C 51.5 163.050781 51.511719 163.050781 51.523438 163.046875 C 51.546875 163.039062 51.5625 163.015625 51.566406 162.992188 C 51.566406 162.953125 51.707031 162.039062 51.40625 161.703125 C 51.332031 161.613281 51.21875 161.566406 51.101562 161.574219 C 50.96875 161.566406 50.847656 161.652344 50.8125 161.78125 C 50.714844 162.125 51.148438 162.828125 51.453125 163.039062 C 51.464844 163.046875 51.476562 163.050781 51.488281 163.046875 Z M 51.140625 161.71875 C 51.199219 161.722656 51.257812 161.753906 51.296875 161.800781 C 51.453125 162.117188 51.5 162.480469 51.4375 162.828125 C 51.175781 162.570312 50.890625 162.027344 50.957031 161.816406 C 50.957031 161.777344 50.996094 161.722656 51.109375 161.71875 Z M 51.140625 161.71875 "/>
<path style=" stroke:none;fill-rule:nonzero;fill:rgb(47.058824%,71.764706%,73.333333%);fill-opacity:1;" d="M 43.601562 80.777344 L 60.691406 82.078125 C 60.914062 80.558594 60.902344 75.566406 61.601562 69.28125 C 62.082031 64.605469 62.96875 59.980469 64.253906 55.460938 C 64.351562 55.121094 64.457031 54.785156 64.558594 54.449219 C 64.558594 54.449219 63.707031 54.203125 62.476562 53.929688 C 61.457031 53.699219 60.175781 53.445312 58.910156 53.289062 C 56.503906 52.964844 54.078125 52.777344 51.648438 52.730469 C 50.523438 52.753906 49.421875 52.851562 48.539062 52.957031 C 47.410156 53.097656 46.742188 53.234375 46.742188 53.234375 C 46.742188 53.234375 43.007812 62.363281 43.601562 80.777344 Z M 43.601562 80.777344 "/>
<path style=" stroke:none;fill-rule:nonzero;fill:rgb(100%,54.509804%,48.235294%);fill-opacity:1;" d="M 44.355469 67.789062 C 44.691406 67.292969 45.121094 66.871094 45.621094 66.542969 C 45.953125 66.386719 46.273438 66.203125 46.574219 65.996094 C 46.640625 65.953125 46.722656 65.949219 46.789062 65.984375 C 46.855469 66.019531 46.902344 66.085938 46.902344 66.164062 C 46.902344 66.414062 46.785156 66.820312 46.105469 67.363281 C 46 68.164062 44.773438 68.929688 44.773438 68.929688 Z M 44.355469 67.789062 "/>
<use xlink:href="#surface41" mask="url(#mask12)"/>
<path style=" stroke:none;fill-rule:nonzero;fill:rgb(100%,100%,100%);fill-opacity:1;" d="M 46.574219 69.875 L 50.128906 70.148438 L 48.203125 62.957031 L 44.652344 62.683594 Z M 46.574219 69.875 "/>
<use xlink:href="#surface44" mask="url(#mask13)"/>
<path style=" stroke:none;fill-rule:nonzero;fill:rgb(100%,54.509804%,48.235294%);fill-opacity:1;" d="M 65.757812 56.925781 C 65.9375 57.484375 66.078125 57.96875 66.214844 58.488281 C 66.351562 59.007812 66.476562 59.515625 66.617188 60.035156 C 66.84375 61.070312 67.050781 62.117188 67.195312 63.179688 C 67.351562 64.257812 67.453125 65.347656 67.496094 66.4375 C 67.542969 67.585938 67.496094 68.742188 67.347656 69.882812 L 67.347656 70.011719 C 67.285156 70.492188 67.0625 70.941406 66.714844 71.28125 C 66.476562 71.511719 66.207031 71.710938 65.914062 71.871094 C 65.703125 71.992188 65.480469 72.09375 65.253906 72.179688 C 64.894531 72.3125 64.523438 72.414062 64.148438 72.476562 C 63.542969 72.578125 62.925781 72.632812 62.3125 72.640625 C 61.21875 72.648438 60.125 72.585938 59.039062 72.453125 C 57.988281 72.324219 56.957031 72.15625 55.933594 71.949219 C 54.90625 71.738281 53.90625 71.507812 52.886719 71.207031 C 52.269531 71.027344 51.875 70.421875 51.964844 69.78125 C 52.050781 69.144531 52.59375 68.664062 53.238281 68.660156 L 53.265625 68.660156 L 56.246094 68.628906 C 57.238281 68.628906 58.222656 68.59375 59.191406 68.542969 C 60.160156 68.496094 61.113281 68.421875 61.992188 68.300781 C 62.386719 68.246094 62.773438 68.164062 63.15625 68.046875 C 63.277344 68.011719 63.394531 67.964844 63.503906 67.902344 C 63.539062 67.902344 63.535156 67.871094 63.523438 67.878906 C 63.453125 67.90625 63.386719 67.949219 63.335938 68.007812 L 62.683594 69.402344 C 62.699219 68.53125 62.65625 67.65625 62.554688 66.789062 C 62.453125 65.878906 62.292969 64.953125 62.121094 64.019531 C 61.949219 63.089844 61.71875 62.152344 61.511719 61.21875 C 61.40625 60.753906 61.285156 60.285156 61.167969 59.816406 L 60.816406 58.457031 L 60.796875 58.378906 C 60.464844 57.027344 61.257812 55.65625 62.59375 55.265625 C 63.929688 54.878906 65.335938 55.609375 65.785156 56.929688 Z M 65.757812 56.925781 "/>
<path style=" stroke:none;fill-rule:nonzero;fill:rgb(14.901961%,19.607843%,21.960784%);fill-opacity:1;" d="M 64.554688 54.429688 C 61.429688 53.449219 59.558594 55.449219 60.078125 59.523438 C 60.453125 61.855469 61.011719 64.15625 61.753906 66.398438 L 68.644531 64.28125 C 68.042969 61.046875 66.648438 55.085938 64.554688 54.429688 Z M 64.554688 54.429688 "/>
<path style=" stroke:none;fill-rule:nonzero;fill:rgb(100%,54.509804%,48.235294%);fill-opacity:1;" d="M 52 52.710938 C 54.144531 52.375 54.605469 51.113281 54.558594 49.648438 C 54.550781 49.285156 54.523438 48.921875 54.46875 48.5625 L 57.269531 46.5625 L 59.320312 45.101562 C 58.625 47.398438 57.71875 51.621094 59.199219 53.300781 C 57.222656 54.710938 55.089844 55.882812 52.839844 56.800781 C 52.574219 56.90625 52.277344 56.894531 52.019531 56.777344 C 51.761719 56.65625 51.566406 56.433594 51.476562 56.164062 C 50.800781 53.976562 52 52.710938 52 52.710938 Z M 52 52.710938 "/>
<use xlink:href="#surface47" mask="url(#mask14)"/>
<path style=" stroke:none;fill-rule:nonzero;fill:rgb(100%,54.509804%,48.235294%);fill-opacity:1;" d="M 59.476562 40.367188 C 59.625 43.566406 59.875 45.410156 58.464844 47.253906 C 56.34375 50.015625 52.308594 49.097656 51.214844 46.050781 C 50.234375 43.300781 50.152344 38.546875 53.09375 36.851562 C 54.378906 36.082031 55.980469 36.054688 57.292969 36.777344 C 58.605469 37.5 59.4375 38.867188 59.476562 40.367188 Z M 59.476562 40.367188 "/>
<path style=" stroke:none;fill-rule:nonzero;fill:rgb(14.901961%,19.607843%,21.960784%);fill-opacity:1;" d="M 58.140625 38.433594 C 57.238281 40.0625 57.925781 41.257812 57.925781 41.257812 L 58.09375 40.488281 C 58.09375 40.488281 59.226562 41.6875 58.890625 43.078125 C 60.882812 42.019531 61.109375 37.898438 58.140625 38.433594 Z M 58.140625 38.433594 "/>
<path style=" stroke:none;fill-rule:nonzero;fill:rgb(14.901961%,19.607843%,21.960784%);fill-opacity:1;" d="M 59.800781 38.921875 C 56.199219 39.71875 54.175781 39.347656 53.535156 39.210938 C 55.042969 39.109375 55.441406 38.410156 55.441406 38.410156 C 55.441406 38.410156 51.839844 39.296875 51.109375 39.011719 C 51.832031 36.820312 53.507812 35.8125 56.921875 35.945312 C 60.332031 36.074219 59.800781 38.921875 59.800781 38.921875 Z M 59.800781 38.921875 "/>
<path style=" stroke:none;fill-rule:nonzero;fill:rgb(100%,54.509804%,48.235294%);fill-opacity:1;" d="M 61.007812 43.335938 C 60.683594 44.050781 60.117188 44.628906 59.40625 44.972656 C 58.5 45.371094 58.050781 44.570312 58.308594 43.578125 C 58.535156 42.699219 59.285156 41.429688 60.191406 41.433594 C 61.101562 41.4375 61.425781 42.4375 61.007812 43.335938 Z M 61.007812 43.335938 "/>
<path style=" stroke:none;fill-rule:nonzero;fill:rgb(14.901961%,19.607843%,21.960784%);fill-opacity:1;" d="M 54.800781 41.898438 C 54.828125 42.160156 54.714844 42.382812 54.546875 42.40625 C 54.378906 42.433594 54.21875 42.238281 54.191406 41.984375 C 54.164062 41.726562 54.28125 41.5 54.445312 41.476562 C 54.609375 41.453125 54.800781 41.644531 54.800781 41.898438 Z M 54.800781 41.898438 "/>
<path style=" stroke:none;fill-rule:nonzero;fill:rgb(14.901961%,19.607843%,21.960784%);fill-opacity:1;" d="M 51.914062 42.296875 C 51.945312 42.550781 51.832031 42.78125 51.664062 42.804688 C 51.496094 42.828125 51.339844 42.636719 51.3125 42.375 C 51.285156 42.117188 51.394531 41.890625 51.5625 41.871094 C 51.730469 41.851562 51.886719 42.035156 51.914062 42.296875 Z M 51.914062 42.296875 "/>
<path style=" stroke:none;fill-rule:nonzero;fill:rgb(100%,33.72549%,32.156863%);fill-opacity:1;" d="M 52.847656 42.300781 C 52.628906 43.128906 52.296875 43.925781 51.867188 44.667969 C 52.363281 45.03125 53.113281 44.730469 53.113281 44.730469 Z M 52.847656 42.300781 "/>
<path style=" stroke:none;fill-rule:nonzero;fill:rgb(14.901961%,19.607843%,21.960784%);fill-opacity:1;" d="M 54.230469 45.285156 C 54.820312 45.140625 55.320312 44.757812 55.621094 44.230469 C 55.628906 44.214844 55.632812 44.191406 55.625 44.175781 C 55.617188 44.15625 55.601562 44.140625 55.585938 44.132812 C 55.546875 44.113281 55.503906 44.128906 55.484375 44.164062 C 55.152344 44.734375 54.570312 45.113281 53.914062 45.191406 C 53.894531 45.195312 53.878906 45.203125 53.867188 45.21875 C 53.855469 45.234375 53.847656 45.257812 53.851562 45.277344 C 53.855469 45.296875 53.867188 45.316406 53.882812 45.328125 C 53.898438 45.339844 53.917969 45.34375 53.941406 45.339844 C 54.039062 45.328125 54.136719 45.308594 54.230469 45.285156 Z M 54.230469 45.285156 "/>
<path style=" stroke:none;fill-rule:nonzero;fill:rgb(14.901961%,19.607843%,21.960784%);fill-opacity:1;" d="M 55.601562 40.839844 C 55.625 40.832031 55.644531 40.820312 55.664062 40.804688 C 55.691406 40.777344 55.710938 40.738281 55.710938 40.695312 C 55.710938 40.65625 55.691406 40.617188 55.664062 40.589844 C 55.335938 40.230469 54.851562 40.058594 54.371094 40.128906 C 54.332031 40.132812 54.296875 40.15625 54.273438 40.191406 C 54.25 40.226562 54.246094 40.269531 54.257812 40.308594 C 54.261719 40.347656 54.289062 40.382812 54.320312 40.40625 C 54.355469 40.425781 54.398438 40.433594 54.4375 40.425781 C 54.8125 40.375 55.191406 40.515625 55.449219 40.796875 C 55.484375 40.839844 55.546875 40.855469 55.601562 40.839844 Z M 55.601562 40.839844 "/>
<path style=" stroke:none;fill-rule:nonzero;fill:rgb(14.901961%,19.607843%,21.960784%);fill-opacity:1;" d="M 50.5625 41.464844 C 50.613281 41.453125 50.652344 41.414062 50.667969 41.367188 C 50.789062 40.996094 51.074219 40.699219 51.445312 40.566406 C 51.484375 40.558594 51.519531 40.535156 51.539062 40.5 C 51.558594 40.464844 51.5625 40.421875 51.550781 40.382812 C 51.53125 40.304688 51.449219 40.253906 51.367188 40.277344 C 50.902344 40.433594 50.539062 40.800781 50.386719 41.269531 C 50.375 41.304688 50.375 41.347656 50.394531 41.386719 C 50.410156 41.421875 50.441406 41.449219 50.480469 41.464844 C 50.507812 41.472656 50.535156 41.472656 50.5625 41.464844 Z M 50.5625 41.464844 "/>
<path style=" stroke:none;fill-rule:nonzero;fill:rgb(100%,54.509804%,48.235294%);fill-opacity:1;" d="M 53.921875 68.949219 L 50.636719 66.921875 L 50.941406 70.957031 C 50.941406 70.957031 53.6875 71.941406 54.0625 70.484375 Z M 53.921875 68.949219 "/>
<path style=" stroke:none;fill-rule:nonzero;fill:rgb(100%,54.509804%,48.235294%);fill-opacity:1;" d="M 51.679688 67.5625 C 51.332031 67.070312 50.894531 66.648438 50.386719 66.324219 C 50.019531 66.121094 49.671875 65.882812 49.34375 65.621094 C 49.28125 65.578125 49.199219 65.574219 49.132812 65.609375 C 49.066406 65.644531 49.023438 65.710938 49.019531 65.789062 C 49.019531 66.035156 49.230469 66.589844 49.898438 67.148438 C 50.023438 67.949219 51.265625 68.707031 51.265625 68.707031 Z M 51.679688 67.5625 "/>
<path style=" stroke:none;fill-rule:nonzero;fill:rgb(100%,54.509804%,48.235294%);fill-opacity:1;" d="M 47.800781 67.261719 L 48.09375 69.789062 C 48.117188 70.007812 48.277344 70.1875 48.492188 70.242188 L 50.953125 70.957031 L 50.648438 66.957031 L 48.410156 66.671875 C 48.246094 66.644531 48.078125 66.699219 47.960938 66.8125 C 47.839844 66.929688 47.78125 67.09375 47.800781 67.261719 Z M 47.800781 67.261719 "/>
<path style=" stroke:none;fill-rule:nonzero;fill:rgb(100%,54.509804%,48.235294%);fill-opacity:1;" d="M 42.800781 68.429688 L 45.644531 66.992188 L 45.570312 70.542969 C 45.570312 70.542969 42.625 71.425781 42.449219 69.925781 Z M 42.800781 68.429688 "/>
<path style=" stroke:none;fill-rule:nonzero;fill:rgb(100%,54.509804%,48.235294%);fill-opacity:1;" d="M 46.871094 67.125 L 46.871094 69.925781 C 46.871094 70.082031 46.765625 70.21875 46.617188 70.261719 L 45.554688 70.535156 L 45.628906 66.984375 L 46.429688 66.777344 C 46.535156 66.746094 46.652344 66.769531 46.738281 66.835938 C 46.828125 66.90625 46.875 67.011719 46.871094 67.125 Z M 46.871094 67.125 "/>
<path style=" stroke:none;fill-rule:nonzero;fill:rgb(47.058824%,71.764706%,73.333333%);fill-opacity:1;" d="M 133.265625 116.363281 C 135.949219 119.035156 135.558594 121.746094 133.664062 123.667969 C 131.769531 125.589844 129.039062 125.992188 126.355469 123.316406 C 123.671875 120.640625 122.03125 115.910156 123.957031 113.992188 C 125.878906 112.070312 130.578125 113.691406 133.265625 116.363281 Z M 133.265625 116.363281 "/>
<path style=" stroke:none;fill-rule:nonzero;fill:rgb(47.058824%,71.764706%,73.333333%);fill-opacity:1;" d="M 142.765625 133.894531 C 139.449219 134.484375 137.449219 132.910156 136.765625 130.664062 C 136.078125 128.414062 136.941406 126.339844 140.261719 125.753906 C 143.578125 125.164062 148.085938 126.296875 148.78125 128.550781 C 149.476562 130.808594 146.085938 133.3125 142.765625 133.894531 Z M 142.765625 133.894531 "/>
<path style=" stroke:none;fill-rule:nonzero;fill:rgb(47.058824%,71.764706%,73.333333%);fill-opacity:1;" d="M 125.253906 139.148438 C 127.652344 139.949219 129.289062 138.992188 130.050781 137.402344 C 130.816406 135.816406 130.382812 134.183594 127.996094 133.402344 C 125.609375 132.625 122.148438 132.960938 121.390625 134.546875 C 120.636719 136.136719 122.859375 138.355469 125.253906 139.148438 Z M 125.253906 139.148438 "/>
<path style=" stroke:none;fill-rule:nonzero;fill:rgb(47.058824%,71.764706%,73.333333%);fill-opacity:1;" d="M 144.621094 116.207031 C 142.324219 119.355469 139.488281 119.613281 137.214844 118.257812 C 134.945312 116.898438 134.097656 114.4375 136.390625 111.292969 C 138.6875 108.148438 143.265625 105.511719 145.535156 106.867188 C 147.808594 108.222656 146.921875 113.0625 144.621094 116.207031 Z M 144.621094 116.207031 "/>
<path style=" stroke:none;fill-rule:nonzero;fill:rgb(14.901961%,19.607843%,21.960784%);fill-opacity:1;" d="M 131.234375 157.445312 C 131.023438 157.445312 130.847656 157.277344 130.835938 157.0625 C 129.609375 133.359375 138.585938 114.949219 138.675781 114.765625 C 138.773438 114.566406 139.015625 114.484375 139.210938 114.585938 C 139.410156 114.683594 139.488281 114.921875 139.390625 115.121094 C 139.304688 115.300781 130.414062 133.519531 131.636719 157.019531 C 131.640625 157.125 131.605469 157.230469 131.53125 157.308594 C 131.460938 157.386719 131.363281 157.433594 131.257812 157.441406 Z M 131.234375 157.445312 "/>
<path style=" stroke:none;fill-rule:nonzero;fill:rgb(14.901961%,19.607843%,21.960784%);fill-opacity:1;" d="M 134.554688 127.855469 L 134.519531 127.855469 C 134.414062 127.847656 134.316406 127.796875 134.246094 127.714844 C 134.179688 127.632812 134.144531 127.527344 134.15625 127.421875 C 134.15625 127.367188 134.605469 122.21875 131.0625 120.511719 C 130.863281 120.417969 130.777344 120.179688 130.875 119.976562 C 130.96875 119.777344 131.207031 119.691406 131.40625 119.789062 C 135.457031 121.722656 134.976562 127.261719 134.953125 127.496094 C 134.929688 127.699219 134.761719 127.855469 134.554688 127.855469 Z M 134.554688 127.855469 "/>
<path style=" stroke:none;fill-rule:nonzero;fill:rgb(14.901961%,19.607843%,21.960784%);fill-opacity:1;" d="M 131.65625 143.070312 C 131.445312 143.074219 131.273438 142.914062 131.257812 142.703125 C 131.257812 142.652344 130.792969 137.738281 126.484375 136.371094 C 126.335938 136.339844 126.21875 136.226562 126.183594 136.078125 C 126.144531 135.933594 126.195312 135.777344 126.308594 135.679688 C 126.425781 135.578125 126.585938 135.554688 126.722656 135.613281 C 131.550781 137.140625 132.046875 142.585938 132.050781 142.640625 C 132.066406 142.859375 131.90625 143.050781 131.6875 143.066406 Z M 131.65625 143.070312 "/>
<path style=" stroke:none;fill-rule:nonzero;fill:rgb(14.901961%,19.607843%,21.960784%);fill-opacity:1;" d="M 132.519531 136.953125 L 132.425781 136.953125 C 132.210938 136.898438 132.078125 136.683594 132.132812 136.46875 C 134.003906 128.867188 139.910156 129.054688 139.972656 129.054688 C 140.191406 129.066406 140.363281 129.253906 140.355469 129.472656 C 140.34375 129.695312 140.15625 129.867188 139.9375 129.855469 C 139.71875 129.855469 134.621094 129.71875 132.90625 136.65625 C 132.859375 136.832031 132.703125 136.953125 132.519531 136.953125 Z M 132.519531 136.953125 "/>
<path style=" stroke:none;fill-rule:nonzero;fill:rgb(47.058824%,71.764706%,73.333333%);fill-opacity:1;" d="M 147.859375 153.960938 C 147.859375 158.691406 145.742188 163.175781 142.085938 166.179688 C 141.847656 166.382812 141.550781 166.492188 141.238281 166.492188 L 122.257812 166.492188 C 121.945312 166.492188 121.648438 166.382812 121.410156 166.179688 C 117.757812 163.175781 115.636719 158.691406 115.636719 153.960938 C 115.632812 152.441406 115.851562 150.929688 116.285156 149.476562 C 116.523438 148.675781 117.121094 148.15625 117.777344 148.15625 L 145.71875 148.15625 C 146.453125 148.21875 147.058594 148.753906 147.207031 149.476562 C 147.640625 150.929688 147.859375 152.441406 147.859375 153.960938 Z M 147.859375 153.960938 "/>
<path style=" stroke:none;fill-rule:nonzero;fill:rgb(100%,100%,100%);fill-opacity:1;" d="M 147.8125 155.125 C 138.617188 158.113281 129.597656 161.621094 120.800781 165.628906 C 120.90625 165.726562 121.023438 165.824219 121.136719 165.925781 C 129.824219 161.976562 138.722656 158.515625 147.796875 155.558594 C 147.792969 155.414062 147.804688 155.273438 147.8125 155.125 Z M 147.8125 155.125 "/>
<path style=" stroke:none;fill-rule:nonzero;fill:rgb(100%,100%,100%);fill-opacity:1;" d="M 142.058594 148.144531 L 141.367188 148.144531 C 133.972656 153.371094 126.785156 159.011719 119.769531 164.617188 C 119.855469 164.714844 119.949219 164.816406 120.039062 164.910156 C 127.199219 159.199219 134.523438 153.453125 142.058594 148.144531 Z M 142.058594 148.144531 "/>
<path style=" stroke:none;fill-rule:nonzero;fill:rgb(100%,100%,100%);fill-opacity:1;" d="M 137.558594 166.492188 C 140.878906 163.773438 144.128906 160.972656 147.3125 158.09375 C 147.375 157.859375 147.433594 157.628906 147.484375 157.390625 C 144.058594 160.523438 140.539062 163.5625 136.933594 166.507812 Z M 137.558594 166.492188 "/>
<path style=" stroke:none;fill-rule:nonzero;fill:rgb(100%,100%,100%);fill-opacity:1;" d="M 137.601562 148.144531 C 130.054688 150.621094 122.976562 154.542969 116.371094 158.660156 C 116.414062 158.789062 116.457031 158.921875 116.5 159.058594 C 123.453125 154.707031 130.9375 150.59375 138.929688 148.152344 Z M 137.601562 148.144531 "/>
<path style=" stroke:none;fill-rule:nonzero;fill:rgb(100%,100%,100%);fill-opacity:1;" d="M 115.878906 151.238281 C 118.011719 150.113281 120.1875 149.082031 122.402344 148.144531 L 121.402344 148.144531 C 119.5625 148.945312 117.753906 149.8125 115.96875 150.742188 C 115.9375 150.90625 115.90625 151.074219 115.878906 151.238281 Z M 115.878906 151.238281 "/>
<path style=" stroke:none;fill-rule:nonzero;fill:rgb(100%,100%,100%);fill-opacity:1;" d="M 125.816406 148.144531 L 125.226562 148.144531 L 115.886719 156.777344 C 115.914062 156.929688 115.953125 157.085938 115.984375 157.234375 Z M 125.816406 148.144531 "/>
</g>
</svg>
